font.ufo
<glyph name="exclam" format="2">
	<unicode hex="0021"/>
	<advance width="290"/>
	<outline>
		<contour>
			<point x="133" y="198" type="line"/>
			<point x="166" y="198" type="line"/>
			<point x="262" y="512"/>
			<point x="290" y="591"/>
			<point x="290" y="638" type="curve" smooth="yes"/>
			<point x="290" y="668"/>
			<point x="276" y="684"/>
			<point x="245" y="684" type="curve" smooth="yes"/>
			<point x="217" y="684"/>
			<point x="193" y="669"/>
			<point x="181" y="607" type="curve" smooth="yes"/>
			<point x="176" y="579"/>
			<point x="165" y="490"/>
			<point x="152" y="355" type="curve" smooth="yes"/>
		</contour>
		<contour>
			<point x="58" y="46" type="curve" smooth="yes"/>
			<point x="58" y="12"/>
			<point x="83" y="-12"/>
			<point x="114" y="-12" type="curve" smooth="yes"/>
			<point x="152" y="-12"/>
			<point x="185" y="19"/>
			<point x="185" y="56" type="curve" smooth="yes"/>
			<point x="185" y="89"/>
			<point x="163" y="116"/>
			<point x="128" y="116" type="curve" smooth="yes"/>
			<point x="91" y="116"/>
			<point x="58" y="85"/>
		</contour>
	</outline>
</glyph>
<glyph name="numbersign" format="1">
	<unicode hex="0023"/>
	<advance width="525"/>
	<outline>
		<contour>
			<point x="82" y="0" type="line"/>
			<point x="128" y="0" type="line"/>
			<point x="304" y="650" type="line"/>
			<point x="258" y="650" type="line"/>
		</contour>
		<contour>
			<point x="51" y="261" type="line"/>
			<point x="35" y="180" type="line"/>
			<point x="478" y="180" type="line"/>
			<point x="494" y="261" type="line"/>
		</contour>
		<contour>
			<point x="534" y="393" type="line"/>
			<point x="550" y="474" type="line"/>
			<point x="107" y="474" type="line"/>
			<point x="91" y="393" type="line"/>
		</contour>
		<contour>
			<point x="286" y="0" type="line"/>
			<point x="332" y="0" type="line"/>
			<point x="508" y="650" type="line"/>
			<point x="462" y="650" type="line"/>
		</contour>
	</outline>
</glyph>
<glyph name="dollar" format="1">
	<unicode hex="0024"/>
	<advance width="512"/>
	<outline>
		<contour>
			<point x="226" y="-13" type="curve" smooth="yes"/>
			<point x="367" y="-13"/>
			<point x="456" y="71"/>
			<point x="456" y="177" type="curve" smooth="yes"/>
			<point x="456" y="258"/>
			<point x="421" y="296"/>
			<point x="332" y="351" type="curve" smooth="yes"/>
			<point x="293" y="375" type="line" smooth="yes"/>
			<point x="242" y="408"/>
			<point x="204" y="430"/>
			<point x="204" y="501" type="curve" smooth="yes"/>
			<point x="204" y="576"/>
			<point x="260" y="619"/>
			<point x="349" y="619" type="curve" smooth="yes"/>
			<point x="380" y="619"/>
			<point x="423" y="616"/>
			<point x="470" y="590" type="curve" smooth="yes"/>
			<point x="428" y="627" type="line"/>
			<point x="428" y="549" type="line" smooth="yes"/>
			<point x="428" y="503"/>
			<point x="451" y="489"/>
			<point x="474" y="489" type="curve" smooth="yes"/>
			<point x="494" y="489"/>
			<point x="512" y="501"/>
			<point x="518" y="530" type="curve"/>
			<point x="512" y="613"/>
			<point x="458" y="659"/>
			<point x="354" y="659" type="curve" smooth="yes"/>
			<point x="209" y="659"/>
			<point x="130" y="572"/>
			<point x="130" y="471" type="curve" smooth="yes"/>
			<point x="130" y="394"/>
			<point x="166" y="348"/>
			<point x="237" y="303" type="curve" smooth="yes"/>
			<point x="278" y="277" type="line" smooth="yes"/>
			<point x="339" y="238"/>
			<point x="383" y="213"/>
			<point x="383" y="148" type="curve" smooth="yes"/>
			<point x="383" y="76"/>
			<point x="328" y="26"/>
			<point x="232" y="26" type="curve" smooth="yes"/>
			<point x="184" y="26"/>
			<point x="150" y="31"/>
			<point x="101" y="58" type="curve"/>
			<point x="149" y="16" type="line"/>
			<point x="143" y="96" type="line" smooth="yes"/>
			<point x="139" y="149"/>
			<point x="121" y="163"/>
			<point x="95" y="163" type="curve" smooth="yes"/>
			<point x="73" y="163"/>
			<point x="60" y="152"/>
			<point x="52" y="128" type="curve" smooth="yes"/>
			<point x="59" y="27"/>
			<point x="118" y="-13"/>
		</contour>
		<contour>
			<point x="184" y="-115" type="line"/>
			<point x="223" y="-115" type="line"/>
			<point x="312" y="322" type="line"/>
			<point x="273" y="322" type="line"/>
		</contour>
		<contour>
			<point x="271" y="322" type="line"/>
			<point x="310" y="322" type="line"/>
			<point x="397" y="749" type="line"/>
			<point x="358" y="749" type="line"/>
		</contour>
	</outline>
</glyph>
<glyph name="ampersand" format="1">
	<unicode hex="0026"/>
	<advance width="683"/>
	<outline>
		<contour>
			<point x="302" y="-13" type="curve" smooth="yes"/>
			<point x="406" y="-13"/>
			<point x="519" y="40"/>
			<point x="519" y="163" type="curve" smooth="yes"/>
			<point x="519" y="216"/>
			<point x="493" y="260"/>
			<point x="421" y="271" type="curve"/>
			<point x="415" y="258" type="line"/>
			<point x="559" y="257"/>
			<point x="635" y="305"/>
			<point x="701" y="441" type="curve"/>
			<point x="620" y="470" type="line"/>
			<point x="593" y="352"/>
			<point x="526" y="290"/>
			<point x="424" y="290" type="curve" smooth="yes"/>
			<point x="367" y="290" type="line"/>
			<point x="360" y="252" type="line"/>
			<point x="396" y="252" type="line" smooth="yes"/>
			<point x="453" y="252"/>
			<point x="472" y="216"/>
			<point x="472" y="172" type="curve" smooth="yes"/>
			<point x="472" y="109"/>
			<point x="412" y="55"/>
			<point x="310" y="55" type="curve" smooth="yes"/>
			<point x="220" y="55"/>
			<point x="146" y="118"/>
			<point x="146" y="211" type="curve" smooth="yes"/>
			<point x="146" y="300"/>
			<point x="200" y="383"/>
			<point x="303" y="411" type="curve"/>
			<point x="285" y="439"/>
			<point x="280" y="465"/>
			<point x="280" y="504" type="curve" smooth="yes"/>
			<point x="280" y="574"/>
			<point x="343" y="652"/>
			<point x="434" y="652" type="curve" smooth="yes"/>
			<point x="448" y="652"/>
			<point x="459" y="651"/>
			<point x="471" y="647" type="curve"/>
			<point x="443" y="671" type="line"/>
			<point x="462" y="614" type="line" smooth="yes"/>
			<point x="472" y="584"/>
			<point x="490" y="568"/>
			<point x="514" y="568" type="curve" smooth="yes"/>
			<point x="534" y="568"/>
			<point x="547" y="577"/>
			<point x="553" y="596" type="curve"/>
			<point x="538" y="650"/>
			<point x="484" y="684"/>
			<point x="413" y="684" type="curve" smooth="yes"/>
			<point x="284" y="684"/>
			<point x="223" y="595"/>
			<point x="223" y="513" type="curve" smooth="yes"/>
			<point x="223" y="423"/>
			<point x="284" y="374"/>
			<point x="362" y="351" type="curve"/>
			<point x="385" y="358"/>
			<point x="400" y="369"/>
			<point x="400" y="390" type="curve" smooth="yes"/>
			<point x="400" y="419"/>
			<point x="371" y="434"/>
			<point x="317" y="434" type="curve" smooth="yes"/>
			<point x="200" y="434"/>
			<point x="75" y="332"/>
			<point x="75" y="199" type="curve" smooth="yes"/>
			<point x="75" y="79"/>
			<point x="152" y="-13"/>
		</contour>
	</outline>
</glyph>
<glyph name="quotesingle" format="1">
	<unicode hex="0027"/>
	<advance width="258"/>
	<outline>
		<contour>
			<point x="239" y="736" type="curve" smooth="yes"/>
			<point x="208" y="736"/>
			<point x="189" y="722"/>
			<point x="181" y="679" type="curve" smooth="yes"/>
			<point x="174" y="641"/>
			<point x="173" y="537"/>
			<point x="171" y="504" type="curve" smooth="yes"/>
			<point x="169" y="433" type="line"/>
			<point x="205" y="433" type="line"/>
			<point x="241" y="537"/>
			<point x="282" y="650"/>
			<point x="283" y="689" type="curve" smooth="yes"/>
			<point x="284" y="717"/>
			<point x="267" y="736"/>
		</contour>
	</outline>
</glyph>
<glyph name="parenleft" format="1">
	<unicode hex="0028"/>
	<advance width="376"/>
	<outline>
		<contour>
			<point x="234" y="-211" type="curve"/>
			<point x="268" y="-189" type="line"/>
			<point x="195" y="-65"/>
			<point x="161" y="37"/>
			<point x="161" y="172" type="curve" smooth="yes"/>
			<point x="161" y="382"/>
			<point x="250" y="537"/>
			<point x="433" y="682" type="curve"/>
			<point x="409" y="714" type="line"/>
			<point x="191" y="569"/>
			<point x="82" y="383"/>
			<point x="82" y="176" type="curve" smooth="yes"/>
			<point x="82" y="31"/>
			<point x="138" y="-92"/>
		</contour>
	</outline>
</glyph>
<glyph name="asterisk" format="1">
	<unicode hex="002A"/>
	<advance width="440"/>
	<outline>
		<contour>
			<point x="272" y="750" type="curve" smooth="yes"/>
			<point x="248" y="750"/>
			<point x="239" y="732"/>
			<point x="239" y="716" type="curve" smooth="yes"/>
			<point x="239" y="694"/>
			<point x="256" y="648"/>
			<point x="287" y="560" type="curve"/>
			<point x="188" y="588"/>
			<point x="153" y="599"/>
			<point x="129" y="599" type="curve" smooth="yes"/>
			<point x="106" y="599"/>
			<point x="98" y="581"/>
			<point x="98" y="566" type="curve" smooth="yes"/>
			<point x="98" y="524"/>
			<point x="146" y="527"/>
			<point x="282" y="531" type="curve"/>
			<point x="221" y="439"/>
			<point x="193" y="409"/>
			<point x="193" y="382" type="curve" smooth="yes"/>
			<point x="193" y="359"/>
			<point x="207" y="351"/>
			<point x="222" y="351" type="curve" smooth="yes"/>
			<point x="255" y="351"/>
			<point x="271" y="402"/>
			<point x="308" y="519" type="curve"/>
			<point x="381" y="422"/>
			<point x="406" y="382"/>
			<point x="438" y="387" type="curve" smooth="yes"/>
			<point x="454" y="390"/>
			<point x="468" y="405"/>
			<point x="465" y="423" type="curve" smooth="yes"/>
			<point x="460" y="451"/>
			<point x="420" y="471"/>
			<point x="328" y="539" type="curve"/>
			<point x="447" y="582"/>
			<point x="492" y="589"/>
			<point x="492" y="624" type="curve" smooth="yes"/>
			<point x="492" y="648"/>
			<point x="477" y="657"/>
			<point x="461" y="657" type="curve" smooth="yes"/>
			<point x="434" y="657"/>
			<point x="399" y="627"/>
			<point x="314" y="564" type="curve"/>
			<point x="312" y="657"/>
			<point x="310" y="700"/>
			<point x="308" y="716" type="curve" smooth="yes"/>
			<point x="304" y="742"/>
			<point x="291" y="750"/>
		</contour>
	</outline>
</glyph>
<glyph name="plus" format="1">
	<unicode hex="002B"/>
	<advance width="530"/>
	<outline>
		<contour>
			<point x="251" y="77" type="line"/>
			<point x="312" y="77" type="line"/>
			<point x="312" y="578" type="line"/>
			<point x="251" y="578" type="line"/>
		</contour>
		<contour>
			<point x="517" y="301" type="line"/>
			<point x="517" y="358" type="line"/>
			<point x="45" y="358" type="line"/>
			<point x="45" y="301" type="line"/>
		</contour>
	</outline>
</glyph>
<glyph name="comma" format="2">
	<unicode hex="002C"/>
	<advance width="300"/>
	<outline>
		<contour>
			<point x="187" y="61" type="curve" smooth="yes"/>
			<point x="187" y="72"/>
			<point x="186" y="79"/>
			<point x="184" y="89" type="curve"/>
			<point x="168" y="110"/>
			<point x="152" y="117"/>
			<point x="126" y="117" type="curve" smooth="yes"/>
			<point x="91" y="117"/>
			<point x="63" y="88"/>
			<point x="63" y="48" type="curve" smooth="yes"/>
			<point x="63" y="18"/>
			<point x="73" y="1"/>
			<point x="103" y="-15" type="curve" smooth="yes"/>
			<point x="147" y="-37" type="line"/>
			<point x="131" y="0" type="line"/>
			<point x="108" y="-69"/>
			<point x="74" y="-106"/>
			<point x="-2" y="-133" type="curve"/>
			<point x="11" y="-170" type="line"/>
			<point x="116" y="-141"/>
			<point x="187" y="-51"/>
		</contour>
	</outline>
</glyph>
<glyph name="hyphen" format="1">
	<unicode hex="002D"/>
	<advance width="312"/>
	<outline>
		<contour>
			<point x="55" y="218" type="line"/>
			<point x="287" y="218" type="line"/>
			<point x="287" y="284" type="line"/>
			<point x="55" y="284" type="line"/>
		</contour>
	</outline>
</glyph>
<glyph name="period" format="1">
	<unicode hex="002E"/>
	<advance width="300"/>
	<outline>
		<contour>
			<point x="118" y="-12" type="curve" smooth="yes"/>
			<point x="161" y="-12"/>
			<point x="196" y="21"/>
			<point x="196" y="64" type="curve" smooth="yes"/>
			<point x="196" y="100"/>
			<point x="169" y="128"/>
			<point x="130" y="128" type="curve" smooth="yes"/>
			<point x="88" y="128"/>
			<point x="53" y="96"/>
			<point x="53" y="52" type="curve" smooth="yes"/>
			<point x="53" y="16"/>
			<point x="80" y="-12"/>
		</contour>
	</outline>
</glyph>
<glyph name="slash" format="1">
	<unicode hex="002F"/>
	<advance width="329"/>
	<outline>
		<contour>
			<point x="-69" y="-160" type="line"/>
			<point x="-6" y="-160" type="line"/>
			<point x="439" y="710" type="line"/>
			<point x="376" y="710" type="line"/>
		</contour>
	</outline>
</glyph>
<glyph name="one" format="1">
	<unicode hex="0031"/>
	<advance width="511"/>
	<outline>
		<contour>
			<point x="174" y="603" type="line"/>
			<point x="166" y="563" type="line"/>
			<point x="334" y="576" type="line"/>
			<point x="310" y="602" type="line"/>
			<point x="188" y="0" type="line"/>
			<point x="263" y="0" type="line"/>
			<point x="276" y="70"/>
			<point x="290" y="141"/>
			<point x="304" y="211" type="curve" smooth="yes"/>
			<point x="363" y="503" type="line"/>
			<point x="396" y="646" type="line"/>
			<point x="385" y="656" type="line"/>
		</contour>
		<contour>
			<point x="268" y="50" type="line"/>
			<point x="210" y="50" type="line"/>
			<point x="58" y="35" type="line"/>
			<point x="51" y="0" type="line"/>
			<point x="413" y="0" type="line"/>
			<point x="421" y="35" type="line"/>
		</contour>
	</outline>
</glyph>
<glyph name="less" format="1">
	<unicode hex="003C"/>
	<advance width="530"/>
	<outline>
		<contour>
			<point x="74" y="306" type="line"/>
			<point x="459" y="82" type="line"/>
			<point x="489" y="135" type="line"/>
			<point x="131" y="335" type="line"/>
			<point x="131" y="324" type="line"/>
			<point x="489" y="525" type="line"/>
			<point x="459" y="578" type="line"/>
			<point x="74" y="353" type="line"/>
		</contour>
	</outline>
</glyph>
<glyph name="question" format="1">
	<unicode hex="003F"/>
	<advance width="445"/>
	<outline>
		<contour>
			<point x="60" y="46" type="curve" smooth="yes"/>
			<point x="60" y="11"/>
			<point x="85" y="-13"/>
			<point x="121" y="-13" type="curve" smooth="yes"/>
			<point x="154" y="-13"/>
			<point x="188" y="18"/>
			<point x="188" y="56" type="curve" smooth="yes"/>
			<point x="188" y="88"/>
			<point x="165" y="115"/>
			<point x="129" y="115" type="curve" smooth="yes"/>
			<point x="93" y="115"/>
			<point x="60" y="84"/>
		</contour>
		<contour>
			<point x="116" y="184" type="curve"/>
			<point x="152" y="180" type="line"/>
			<point x="162" y="260"/>
			<point x="174" y="286"/>
			<point x="199" y="311" type="curve" smooth="yes"/>
			<point x="214" y="325"/>
			<point x="242" y="340"/>
			<point x="328" y="390" type="curve" smooth="yes"/>
			<point x="442" y="456"/>
			<point x="490" y="490"/>
			<point x="490" y="569" type="curve" smooth="yes"/>
			<point x="490" y="647"/>
			<point x="415" y="684"/>
			<point x="326" y="684" type="curve" smooth="yes"/>
			<point x="231" y="684"/>
			<point x="187" y="643"/>
			<point x="175" y="599" type="curve"/>
			<point x="175" y="578"/>
			<point x="193" y="557"/>
			<point x="221" y="557" type="curve" smooth="yes"/>
			<point x="242" y="557"/>
			<point x="260" y="566"/>
			<point x="268" y="595" type="curve" smooth="yes"/>
			<point x="290" y="670" type="line"/>
			<point x="223" y="650" type="line"/>
			<point x="243" y="652"/>
			<point x="267" y="654"/>
			<point x="295" y="655" type="curve" smooth="yes"/>
			<point x="384" y="657"/>
			<point x="421" y="627"/>
			<point x="421" y="584" type="curve" smooth="yes"/>
			<point x="421" y="545"/>
			<point x="399" y="509"/>
			<point x="305" y="457" type="curve" smooth="yes"/>
			<point x="207" y="402"/>
			<point x="184" y="385"/>
			<point x="163" y="363" type="curve" smooth="yes"/>
			<point x="132" y="331"/>
			<point x="120" y="287"/>
		</contour>
	</outline>
</glyph>
<glyph name="at" format="1">
	<unicode hex="0040"/>
	<advance width="832"/>
	<outline>
		<contour>
			<point x="330" y="43" type="curve" smooth="yes"/>
			<point x="393" y="43"/>
			<point x="471" y="113"/>
			<point x="534" y="204" type="curve"/>
			<point x="526" y="224" type="line"/>
			<point x="449" y="134"/>
			<point x="406" y="105"/>
			<point x="369" y="105" type="curve" smooth="yes"/>
			<point x="337" y="105"/>
			<point x="316" y="130"/>
			<point x="316" y="185" type="curve" smooth="yes"/>
			<point x="316" y="327"/>
			<point x="422" y="429"/>
			<point x="489" y="429" type="curve" smooth="yes"/>
			<point x="519" y="429"/>
			<point x="550" y="412"/>
			<point x="572" y="393" type="curve"/>
			<point x="605" y="416" type="line"/>
			<point x="582" y="456"/>
			<point x="559" y="489"/>
			<point x="520" y="489" type="curve" smooth="yes"/>
			<point x="406" y="489"/>
			<point x="244" y="303"/>
			<point x="244" y="148" type="curve" smooth="yes"/>
			<point x="244" y="74"/>
			<point x="287" y="43"/>
		</contour>
		<contour>
			<point x="560" y="43" type="curve" smooth="yes"/>
			<point x="654" y="43"/>
			<point x="826" y="141"/>
			<point x="826" y="354" type="curve" smooth="yes"/>
			<point x="826" y="520"/>
			<point x="734" y="660"/>
			<point x="523" y="660" type="curve" smooth="yes"/>
			<point x="264" y="660"/>
			<point x="46" y="452"/>
			<point x="46" y="160" type="curve" smooth="yes"/>
			<point x="46" y="-32"/>
			<point x="177" y="-155"/>
			<point x="373" y="-155" type="curve" smooth="yes"/>
			<point x="431" y="-155"/>
			<point x="504" y="-143"/>
			<point x="564" y="-113" type="curve"/>
			<point x="553" y="-81" type="line"/>
			<point x="507" y="-99"/>
			<point x="457" y="-109"/>
			<point x="396" y="-109" type="curve" smooth="yes"/>
			<point x="214" y="-109"/>
			<point x="107" y="-8"/>
			<point x="107" y="174" type="curve" smooth="yes"/>
			<point x="107" y="425"/>
			<point x="294" y="619"/>
			<point x="517" y="619" type="curve" smooth="yes"/>
			<point x="673" y="619"/>
			<point x="771" y="513"/>
			<point x="771" y="355" type="curve" smooth="yes"/>
			<point x="771" y="168"/>
			<point x="647" y="95"/>
			<point x="588" y="95" type="curve" smooth="yes"/>
			<point x="554" y="95"/>
			<point x="545" y="110"/>
			<point x="557" y="163" type="curve" smooth="yes"/>
			<point x="629" y="489" type="line"/>
			<point x="614" y="497" type="line"/>
			<point x="552" y="448" type="line"/>
			<point x="491" y="168" type="line" smooth="yes"/>
			<point x="475" y="96"/>
			<point x="487" y="43"/>
		</contour>
	</outline>
</glyph>
<glyph name="A" format="2">
	<unicode hex="0041"/>
	<advance width="676"/>
	<outline>
		<contour>
			<point x="-29" y="0" type="line"/>
			<point x="195" y="0" type="line"/>
			<point x="203" y="40" type="line"/>
			<point x="104" y="55" type="line"/>
			<point x="86" y="55" type="line"/>
			<point x="-21" y="40" type="line"/>
		</contour>
		<contour>
			<point x="33" y="0" type="line"/>
			<point x="88" y="0" type="line"/>
			<point x="403" y="595" type="line"/>
			<point x="388" y="594" type="line"/>
			<point x="468" y="0" type="line"/>
			<point x="558" y="0" type="line"/>
			<point x="463" y="670" type="line"/>
			<point x="405" y="670" type="line"/>
		</contour>
		<contour>
			<point x="195" y="243" type="line"/>
			<point x="481" y="243" type="line"/>
			<point x="493" y="289" type="line"/>
			<point x="209" y="289" type="line"/>
		</contour>
		<contour>
			<point x="366" y="0" type="line"/>
			<point x="631" y="0" type="line"/>
			<point x="639" y="40" type="line"/>
			<point x="520" y="55" type="line"/>
			<point x="502" y="55" type="line"/>
			<point x="374" y="40" type="line"/>
		</contour>
	</outline>
	<anchor name="aboveUC" x="432" y="691"/>
	<anchor name="belowLC" x="282" y="-22"/>
	<anchor name="ogonek" x="526" y="0"/>
</glyph>
<glyph name="B" format="2">
	<unicode hex="0042"/>
	<advance width="624"/>
	<outline>
		<contour>
			<point x="16" y="0" type="line"/>
			<point x="142" y="0" type="line"/>
			<point x="152" y="55" type="line"/>
			<point x="146" y="55" type="line"/>
			<point x="24" y="40" type="line"/>
		</contour>
		<contour>
			<point x="100" y="0" type="line"/>
			<point x="190" y="0" type="line"/>
			<point x="206" y="103"/>
			<point x="224" y="207"/>
			<point x="243" y="310" type="curve" smooth="yes"/>
			<point x="311" y="670" type="line"/>
			<point x="221" y="670" type="line"/>
			<point x="205" y="567"/>
			<point x="187" y="463"/>
			<point x="168" y="360" type="curve" smooth="yes"/>
		</contour>
		<contour>
			<point x="122" y="629" type="line"/>
			<point x="243" y="614" type="line"/>
			<point x="255" y="614" type="line"/>
			<point x="266" y="670" type="line"/>
			<point x="130" y="670" type="line"/>
		</contour>
		<contour>
			<point x="142" y="0" type="line"/>
			<point x="293" y="0" type="line" smooth="yes"/>
			<point x="456" y="0"/>
			<point x="570" y="72"/>
			<point x="570" y="186" type="curve" smooth="yes"/>
			<point x="570" y="280"/>
			<point x="491" y="360"/>
			<point x="349" y="360" type="curve"/>
			<point x="330" y="341" type="line"/>
			<point x="465" y="341"/>
			<point x="579" y="415"/>
			<point x="579" y="524" type="curve" smooth="yes"/>
			<point x="579" y="605"/>
			<point x="518" y="670"/>
			<point x="385" y="670" type="curve" smooth="yes"/>
			<point x="266" y="670" type="line"/>
			<point x="258" y="623" type="line"/>
			<point x="372" y="623" type="line" smooth="yes"/>
			<point x="453" y="623"/>
			<point x="492" y="576"/>
			<point x="492" y="510" type="curve" smooth="yes"/>
			<point x="492" y="433"/>
			<point x="437" y="373"/>
			<point x="310" y="373" type="curve" smooth="yes"/>
			<point x="210" y="373" type="line"/>
			<point x="202" y="327" type="line"/>
			<point x="320" y="327" type="line" smooth="yes"/>
			<point x="411" y="327"/>
			<point x="477" y="281"/>
			<point x="477" y="199" type="curve" smooth="yes"/>
			<point x="477" y="114"/>
			<point x="424" y="46"/>
			<point x="283" y="46" type="curve" smooth="yes"/>
			<point x="151" y="46" type="line"/>
		</contour>
	</outline>
	<anchor name="aboveUC" x="372" y="691"/>
	<anchor name="belowLC" x="285" y="-22"/>
</glyph>
<glyph name="C" format="2">
	<unicode hex="0043"/>
	<advance width="593"/>
	<outline>
		<contour>
			<point x="312" y="-15" type="curve" smooth="yes"/>
			<point x="397" y="-15"/>
			<point x="454" y="7"/>
			<point x="507" y="30" type="curve"/>
			<point x="535" y="175" type="line"/>
			<point x="475" y="175" type="line"/>
			<point x="427" y="30" type="line"/>
			<point x="483" y="71" type="line"/>
			<point x="441" y="50"/>
			<point x="394" y="35"/>
			<point x="345" y="35" type="curve" smooth="yes"/>
			<point x="229" y="35"/>
			<point x="131" y="117"/>
			<point x="131" y="285" type="curve" smooth="yes"/>
			<point x="131" y="474"/>
			<point x="252" y="635"/>
			<point x="412" y="635" type="curve" smooth="yes"/>
			<point x="461" y="635"/>
			<point x="517" y="619"/>
			<point x="552" y="591" type="curve"/>
			<point x="511" y="632" type="line"/>
			<point x="511" y="492" type="line"/>
			<point x="568" y="492" type="line"/>
			<point x="591" y="632" type="line"/>
			<point x="529" y="672"/>
			<point x="475" y="685"/>
			<point x="422" y="685" type="curve" smooth="yes"/>
			<point x="213" y="685"/>
			<point x="40" y="502"/>
			<point x="40" y="281" type="curve" smooth="yes"/>
			<point x="40" y="103"/>
			<point x="145" y="-15"/>
		</contour>
	</outline>
	<anchor name="aboveUC" x="421" y="690"/>
	<anchor name="belowLC" x="301" y="-20"/>
	<anchor name="baseLC" x="324" y="0"/>
</glyph>
<glyph name="D" format="2">
	<unicode hex="0044"/>
	<advance width="701"/>
	<outline>
		<contour>
			<point x="16" y="0" type="line"/>
			<point x="142" y="0" type="line"/>
			<point x="152" y="55" type="line"/>
			<point x="146" y="55" type="line"/>
			<point x="24" y="40" type="line"/>
		</contour>
		<contour>
			<point x="100" y="0" type="line"/>
			<point x="190" y="0" type="line"/>
			<point x="206" y="103"/>
			<point x="224" y="207"/>
			<point x="243" y="310" type="curve" smooth="yes"/>
			<point x="311" y="670" type="line"/>
			<point x="221" y="670" type="line"/>
			<point x="205" y="567"/>
			<point x="187" y="463"/>
			<point x="168" y="360" type="curve" smooth="yes"/>
		</contour>
		<contour>
			<point x="122" y="629" type="line"/>
			<point x="243" y="614" type="line"/>
			<point x="258" y="614" type="line"/>
			<point x="269" y="670" type="line"/>
			<point x="130" y="670" type="line"/>
		</contour>
		<contour>
			<point x="142" y="0" type="line"/>
			<point x="290" y="0" type="line" smooth="yes"/>
			<point x="493" y="0"/>
			<point x="684" y="129"/>
			<point x="685" y="394" type="curve" smooth="yes"/>
			<point x="685" y="565"/>
			<point x="575" y="670"/>
			<point x="404" y="670" type="curve" smooth="yes"/>
			<point x="269" y="670" type="line"/>
			<point x="260" y="623" type="line"/>
			<point x="363" y="623" type="line" smooth="yes"/>
			<point x="505" y="623"/>
			<point x="591" y="543"/>
			<point x="590" y="394" type="curve" smooth="yes"/>
			<point x="589" y="228"/>
			<point x="495" y="46"/>
			<point x="304" y="46" type="curve" smooth="yes"/>
			<point x="151" y="46" type="line"/>
		</contour>
	</outline>
	<anchor name="aboveUC" x="405" y="691"/>
	<anchor name="belowLC" x="297" y="-22"/>
</glyph>
<glyph name="E" format="2">
	<unicode hex="0045"/>
	<advance width="587"/>
	<outline>
		<contour>
			<point x="16" y="0" type="line"/>
			<point x="142" y="0" type="line"/>
			<point x="152" y="55" type="line"/>
			<point x="146" y="55" type="line"/>
			<point x="24" y="40" type="line"/>
		</contour>
		<contour>
			<point x="100" y="0" type="line"/>
			<point x="190" y="0" type="line"/>
			<point x="206" y="103"/>
			<point x="224" y="207"/>
			<point x="243" y="310" type="curve" smooth="yes"/>
			<point x="311" y="670" type="line"/>
			<point x="221" y="670" type="line"/>
			<point x="205" y="567"/>
			<point x="187" y="463"/>
			<point x="168" y="360" type="curve" smooth="yes"/>
		</contour>
		<contour>
			<point x="122" y="629" type="line"/>
			<point x="243" y="614" type="line"/>
			<point x="255" y="614" type="line"/>
			<point x="266" y="670" type="line"/>
			<point x="130" y="670" type="line"/>
		</contour>
		<contour>
			<point x="142" y="0" type="line"/>
			<point x="515" y="0" type="line"/>
			<point x="554" y="178" type="line"/>
			<point x="503" y="178" type="line"/>
			<point x="440" y="0" type="line"/>
			<point x="496" y="50" type="line"/>
			<point x="152" y="50" type="line"/>
		</contour>
		<contour>
			<point x="204" y="319" type="line"/>
			<point x="429" y="319" type="line"/>
			<point x="437" y="365" type="line"/>
			<point x="213" y="365" type="line"/>
		</contour>
		<contour>
			<point x="256" y="619" type="line"/>
			<point x="550" y="619" type="line"/>
			<point x="518" y="670" type="line"/>
			<point x="518" y="492" type="line"/>
			<point x="568" y="492" type="line"/>
			<point x="592" y="670" type="line"/>
			<point x="266" y="670" type="line"/>
		</contour>
		<contour>
			<point x="397" y="224" type="line"/>
			<point x="439" y="224" type="line"/>
			<point x="484" y="461" type="line"/>
			<point x="442" y="461" type="line"/>
			<point x="404" y="355" type="line"/>
			<point x="401" y="335" type="line"/>
		</contour>
	</outline>
	<anchor name="aboveUC" x="397" y="691"/>
	<anchor name="belowLC" x="307" y="-22"/>
	<anchor name="ogonek" x="425" y="0"/>
</glyph>
<glyph name="F" format="2">
	<unicode hex="0046"/>
	<advance width="550"/>
	<outline>
		<contour>
			<point x="16" y="0" type="line"/>
			<point x="286" y="0" type="line"/>
			<point x="294" y="40" type="line"/>
			<point x="170" y="55" type="line"/>
			<point x="151" y="55" type="line"/>
			<point x="24" y="40" type="line"/>
		</contour>
		<contour>
			<point x="100" y="0" type="line"/>
			<point x="190" y="0" type="line"/>
			<point x="206" y="103"/>
			<point x="224" y="207"/>
			<point x="243" y="310" type="curve" smooth="yes"/>
			<point x="311" y="670" type="line"/>
			<point x="221" y="670" type="line"/>
			<point x="205" y="567"/>
			<point x="187" y="463"/>
			<point x="168" y="360" type="curve" smooth="yes"/>
		</contour>
		<contour>
			<point x="122" y="629" type="line"/>
			<point x="243" y="614" type="line"/>
			<point x="255" y="614" type="line"/>
			<point x="266" y="670" type="line"/>
			<point x="130" y="670" type="line"/>
		</contour>
		<contour>
			<point x="204" y="319" type="line"/>
			<point x="429" y="319" type="line"/>
			<point x="437" y="365" type="line"/>
			<point x="213" y="365" type="line"/>
		</contour>
		<contour>
			<point x="256" y="619" type="line"/>
			<point x="562" y="619" type="line"/>
			<point x="526" y="670" type="line"/>
			<point x="526" y="492" type="line"/>
			<point x="576" y="492" type="line"/>
			<point x="605" y="670" type="line"/>
			<point x="266" y="670" type="line"/>
		</contour>
		<contour>
			<point x="397" y="214" type="line"/>
			<point x="439" y="214" type="line"/>
			<point x="483" y="461" type="line"/>
			<point x="441" y="461" type="line"/>
			<point x="404" y="355" type="line"/>
			<point x="401" y="335" type="line"/>
		</contour>
	</outline>
	<anchor name="aboveUC" x="393" y="691"/>
	<anchor name="belowLC" x="147" y="-22"/>
</glyph>
<glyph name="G" format="2">
	<unicode hex="0047"/>
	<advance width="655"/>
	<outline>
		<contour>
			<point x="40" y="277" type="curve" smooth="yes"/>
			<point x="40" y="104"/>
			<point x="149" y="-15"/>
			<point x="329" y="-15" type="curve" smooth="yes"/>
			<point x="404" y="-15"/>
			<point x="465" y="2"/>
			<point x="527" y="30" type="curve"/>
			<point x="580" y="318" type="line"/>
			<point x="490" y="318" type="line"/>
			<point x="478" y="243"/>
			<point x="466" y="166"/>
			<point x="452" y="90" type="curve" smooth="yes"/>
			<point x="441" y="30" type="line"/>
			<point x="495" y="65" type="line"/>
			<point x="449" y="46"/>
			<point x="404" y="35"/>
			<point x="355" y="35" type="curve" smooth="yes"/>
			<point x="240" y="35"/>
			<point x="131" y="121"/>
			<point x="131" y="283" type="curve" smooth="yes"/>
			<point x="131" y="474"/>
			<point x="247" y="635"/>
			<point x="422" y="635" type="curve" smooth="yes"/>
			<point x="475" y="635"/>
			<point x="535" y="621"/>
			<point x="572" y="591" type="curve"/>
			<point x="530" y="632" type="line"/>
			<point x="531" y="492" type="line"/>
			<point x="587" y="492" type="line"/>
			<point x="610" y="632" type="line"/>
			<point x="546" y="674"/>
			<point x="496" y="685"/>
			<point x="422" y="685" type="curve" smooth="yes"/>
			<point x="217" y="685"/>
			<point x="40" y="513"/>
		</contour>
		<contour>
			<point x="383" y="278" type="line"/>
			<point x="504" y="263" type="line"/>
			<point x="524" y="263" type="line"/>
			<point x="643" y="278" type="line"/>
			<point x="650" y="318" type="line"/>
			<point x="390" y="318" type="line"/>
		</contour>
	</outline>
	<anchor name="aboveUC" x="415" y="690"/>
	<anchor name="belowLC" x="335" y="-20"/>
</glyph>
<glyph name="I" format="1">
	<unicode hex="0049"/>
	<advance width="358"/>
	<outline>
		<contour>
			<point x="16" y="0" type="line"/>
			<point x="281" y="0" type="line"/>
			<point x="289" y="40" type="line"/>
			<point x="169" y="55" type="line"/>
			<point x="151" y="55" type="line"/>
			<point x="24" y="40" type="line"/>
		</contour>
		<contour>
			<point x="100" y="0" type="line"/>
			<point x="190" y="0" type="line"/>
			<point x="206" y="103"/>
			<point x="224" y="207"/>
			<point x="243" y="310" type="curve" smooth="yes"/>
			<point x="311" y="670" type="line"/>
			<point x="221" y="670" type="line"/>
			<point x="205" y="567"/>
			<point x="187" y="463"/>
			<point x="168" y="360" type="curve" smooth="yes"/>
		</contour>
		<contour>
			<point x="122" y="629" type="line"/>
			<point x="243" y="614" type="line"/>
			<point x="262" y="614" type="line"/>
			<point x="387" y="629" type="line"/>
			<point x="395" y="670" type="line"/>
			<point x="130" y="670" type="line"/>
		</contour>
		<contour>
			<point name="aboveUC" x="266" y="691" type="move"/>
		</contour>
		<contour>
			<point name="ogonek" x="178" y="0" type="move"/>
		</contour>
		<contour>
			<point name="belowLC" x="141" y="-22" type="move"/>
		</contour>
	</outline>
</glyph>
<glyph name="J" format="1">
	<unicode hex="004A"/>
	<advance width="410"/>
	<outline>
		<contour>
			<point x="-34" y="7" type="curve"/>
			<point x="-29" y="-28"/>
			<point x="11" y="-44"/>
			<point x="57" y="-44" type="curve" smooth="yes"/>
			<point x="127" y="-44"/>
			<point x="216" y="5"/>
			<point x="258" y="100" type="curve" smooth="yes"/>
			<point x="275" y="139"/>
			<point x="288" y="188"/>
			<point x="301" y="263" type="curve" smooth="yes"/>
			<point x="369" y="670" type="line"/>
			<point x="279" y="670" type="line"/>
			<point x="265" y="566"/>
			<point x="249" y="462"/>
			<point x="233" y="360" type="curve" smooth="yes"/>
			<point x="213" y="235"/>
			<point x="207" y="188"/>
			<point x="198" y="141" type="curve" smooth="yes"/>
			<point x="182" y="62"/>
			<point x="144" y="17"/>
			<point x="91" y="-9" type="curve"/>
			<point x="122" y="-2" type="line"/>
			<point x="99" y="22" type="line" smooth="yes"/>
			<point x="76" y="44"/>
			<point x="56" y="53"/>
			<point x="33" y="53" type="curve" smooth="yes"/>
			<point x="1" y="53"/>
			<point x="-26" y="37"/>
		</contour>
		<contour>
			<point x="176" y="629" type="line"/>
			<point x="302" y="614" type="line"/>
			<point x="322" y="614" type="line"/>
			<point x="451" y="629" type="line"/>
			<point x="459" y="670" type="line"/>
			<point x="184" y="670" type="line"/>
		</contour>
		<contour>
			<point name="aboveUC" x="324" y="691" type="move"/>
		</contour>
		<contour>
			<point name="belowLC" x="86" y="-64" type="move"/>
		</contour>
	</outline>
</glyph>
<glyph name="K" format="2">
	<unicode hex="004B"/>
	<advance width="663"/>
	<outline>
		<contour>
			<point x="-3" y="0" type="line"/>
			<point x="262" y="0" type="line"/>
			<point x="270" y="40" type="line"/>
			<point x="151" y="55" type="line"/>
			<point x="133" y="55" type="line"/>
			<point x="5" y="40" type="line"/>
		</contour>
		<contour>
			<point x="82" y="0" type="line"/>
			<point x="172" y="0" type="line"/>
			<point x="188" y="103"/>
			<point x="206" y="207"/>
			<point x="225" y="310" type="curve" smooth="yes"/>
			<point x="293" y="670" type="line"/>
			<point x="203" y="670" type="line"/>
			<point x="187" y="567"/>
			<point x="169" y="463"/>
			<point x="150" y="360" type="curve" smooth="yes"/>
		</contour>
		<contour>
			<point x="104" y="629" type="line"/>
			<point x="225" y="614" type="line"/>
			<point x="244" y="614" type="line"/>
			<point x="368" y="629" type="line"/>
			<point x="377" y="670" type="line"/>
			<point x="112" y="670" type="line"/>
		</contour>
		<contour>
			<point x="161" y="224" type="line"/>
			<point x="647" y="670" type="line"/>
			<point x="587" y="670" type="line"/>
			<point x="195" y="308" type="line"/>
			<point x="169" y="284" type="line"/>
			<point x="159" y="284" type="line"/>
		</contour>
		<contour>
			<point x="486" y="0" type="line"/>
			<point x="579" y="0" type="line"/>
			<point x="352" y="423" type="line"/>
			<point x="293" y="364" type="line"/>
		</contour>
		<contour>
			<point x="378" y="0" type="line"/>
			<point x="628" y="0" type="line"/>
			<point x="633" y="40" type="line"/>
			<point x="521" y="55" type="line"/>
			<point x="502" y="55" type="line"/>
			<point x="383" y="40" type="line"/>
		</contour>
		<contour>
			<point x="466" y="629" type="line"/>
			<point x="554" y="614" type="line"/>
			<point x="573" y="614" type="line"/>
			<point x="686" y="629" type="line"/>
			<point x="695" y="670" type="line"/>
			<point x="474" y="670" type="line"/>
		</contour>
	</outline>
	<anchor name="aboveUC" x="416" y="690"/>
	<anchor name="belowLC" x="314" y="-20"/>
</glyph>
<glyph name="L" format="2">
	<unicode hex="004C"/>
	<advance width="568"/>
	<outline>
		<contour>
			<point x="16" y="0" type="line"/>
			<point x="142" y="0" type="line"/>
			<point x="152" y="55" type="line"/>
			<point x="144" y="55" type="line"/>
			<point x="24" y="40" type="line"/>
		</contour>
		<contour>
			<point x="100" y="0" type="line"/>
			<point x="190" y="0" type="line"/>
			<point x="206" y="103"/>
			<point x="224" y="207"/>
			<point x="243" y="310" type="curve" smooth="yes"/>
			<point x="311" y="670" type="line"/>
			<point x="221" y="670" type="line"/>
			<point x="205" y="567"/>
			<point x="187" y="463"/>
			<point x="168" y="360" type="curve" smooth="yes"/>
		</contour>
		<contour>
			<point x="122" y="629" type="line"/>
			<point x="243" y="614" type="line"/>
			<point x="272" y="614" type="line"/>
			<point x="397" y="629" type="line"/>
			<point x="405" y="670" type="line"/>
			<point x="130" y="670" type="line"/>
		</contour>
		<contour>
			<point x="142" y="0" type="line"/>
			<point x="521" y="0" type="line"/>
			<point x="557" y="188" type="line"/>
			<point x="501" y="188" type="line"/>
			<point x="435" y="0" type="line"/>
			<point x="498" y="50" type="line"/>
			<point x="151" y="50" type="line"/>
		</contour>
	</outline>
	<anchor name="aboveUC" x="259" y="691"/>
	<anchor name="belowLC" x="295" y="-22"/>
</glyph>
<glyph name="M" format="2">
	<unicode hex="004D"/>
	<advance width="927"/>
	<outline>
		<contour>
			<point x="-7" y="0" type="line"/>
			<point x="223" y="0" type="line"/>
			<point x="231" y="40" type="line"/>
			<point x="123" y="55" type="line"/>
			<point x="103" y="55" type="line"/>
			<point x="1" y="40" type="line"/>
		</contour>
		<contour>
			<point x="80" y="0" type="line"/>
			<point x="127" y="0" type="line"/>
			<point x="279" y="644" type="line"/>
			<point x="232" y="644" type="line"/>
		</contour>
		<contour>
			<point x="391" y="1" type="line"/>
			<point x="420" y="1" type="line"/>
			<point x="811" y="670" type="line"/>
			<point x="767" y="670" type="line"/>
			<point x="425" y="90" type="line"/>
			<point x="453" y="104" type="line"/>
			<point x="333" y="670" type="line"/>
			<point x="148" y="670" type="line"/>
			<point x="140" y="629" type="line"/>
			<point x="276" y="613" type="line"/>
			<point x="240" y="657" type="line"/>
		</contour>
		<contour>
			<point x="591" y="0" type="line"/>
			<point x="851" y="0" type="line"/>
			<point x="856" y="42" type="line"/>
			<point x="737" y="57" type="line"/>
			<point x="719" y="57" type="line"/>
			<point x="597" y="42" type="line"/>
		</contour>
		<contour>
			<point x="670" y="0" type="line"/>
			<point x="760" y="0" type="line"/>
			<point x="772" y="103"/>
			<point x="786" y="209"/>
			<point x="800" y="312" type="curve" smooth="yes"/>
			<point x="852" y="670" type="line"/>
			<point x="785" y="670" type="line"/>
			<point x="764" y="637" type="line"/>
		</contour>
		<contour>
			<point x="800" y="614" type="line"/>
			<point x="818" y="614" type="line"/>
			<point x="939" y="629" type="line"/>
			<point x="943" y="670" type="line"/>
			<point x="800" y="670" type="line"/>
		</contour>
	</outline>
	<anchor name="aboveUC" x="540" y="661"/>
	<anchor name="belowLC" x="404" y="-22"/>
</glyph>
<glyph name="N" format="2">
	<unicode hex="004E"/>
	<advance width="727"/>
	<outline>
		<contour>
			<point x="9" y="0" type="line"/>
			<point x="242" y="0" type="line"/>
			<point x="248" y="40" type="line"/>
			<point x="136" y="55" type="line"/>
			<point x="117" y="55" type="line"/>
			<point x="18" y="40" type="line"/>
		</contour>
		<contour>
			<point x="90" y="0" type="line"/>
			<point x="138" y="0" type="line"/>
			<point x="265" y="669" type="line"/>
			<point x="216" y="670" type="line"/>
		</contour>
		<contour>
			<point x="557" y="-10" type="line"/>
			<point x="588" y="-10" type="line"/>
			<point x="603" y="84" type="line"/>
			<point x="278" y="670" type="line"/>
			<point x="125" y="670" type="line"/>
			<point x="116" y="629" type="line"/>
			<point x="243" y="614" type="line"/>
			<point x="190" y="639" type="line"/>
		</contour>
		<contour>
			<point x="548" y="629" type="line"/>
			<point x="670" y="614" type="line"/>
			<point x="689" y="614" type="line"/>
			<point x="784" y="629" type="line"/>
			<point x="792" y="670" type="line"/>
			<point x="556" y="670" type="line"/>
		</contour>
		<contour>
			<point x="588" y="-10" type="line"/>
			<point x="714" y="670" type="line"/>
			<point x="665" y="670" type="line"/>
			<point x="554" y="67" type="line"/>
		</contour>
	</outline>
	<anchor name="aboveUC" x="431" y="691"/>
	<anchor name="belowLC" x="364" y="-22"/>
</glyph>
<glyph name="O" format="1">
	<unicode hex="004F"/>
	<advance width="660"/>
	<outline>
		<contour>
			<point x="302" y="-14" type="curve" smooth="yes"/>
			<point x="504" y="-14"/>
			<point x="654" y="179"/>
			<point x="654" y="409" type="curve" smooth="yes"/>
			<point x="654" y="571"/>
			<point x="561" y="684"/>
			<point x="415" y="684" type="curve" smooth="yes"/>
			<point x="218" y="684"/>
			<point x="66" y="491"/>
			<point x="66" y="259" type="curve" smooth="yes"/>
			<point x="66" y="90"/>
			<point x="160" y="-14"/>
		</contour>
		<contour>
			<point x="316" y="36" type="curve" smooth="yes"/>
			<point x="205" y="36"/>
			<point x="155" y="125"/>
			<point x="155" y="257" type="curve" smooth="yes"/>
			<point x="155" y="471"/>
			<point x="265" y="634"/>
			<point x="403" y="634" type="curve" smooth="yes"/>
			<point x="516" y="634"/>
			<point x="565" y="547"/>
			<point x="565" y="411" type="curve" smooth="yes"/>
			<point x="565" y="198"/>
			<point x="455" y="36"/>
		</contour>
		<contour>
			<point name="aboveUC" x="417" y="690" type="move"/>
		</contour>
		<contour>
			<point name="hornLC" x="568" y="676" type="move"/>
		</contour>
		<contour>
			<point name="ogonek" x="392" y="-1" type="move"/>
		</contour>
		<contour>
			<point name="belowLC" x="304" y="-21" type="move"/>
		</contour>
	</outline>
</glyph>
<glyph name="P" format="2">
	<unicode hex="0050"/>
	<advance width="563"/>
	<outline>
		<contour>
			<point x="16" y="0" type="line"/>
			<point x="286" y="0" type="line"/>
			<point x="294" y="40" type="line"/>
			<point x="170" y="55" type="line"/>
			<point x="151" y="55" type="line"/>
			<point x="24" y="40" type="line"/>
		</contour>
		<contour>
			<point x="100" y="0" type="line"/>
			<point x="190" y="0" type="line"/>
			<point x="206" y="103"/>
			<point x="224" y="207"/>
			<point x="243" y="310" type="curve" smooth="yes"/>
			<point x="311" y="670" type="line"/>
			<point x="221" y="670" type="line"/>
			<point x="205" y="567"/>
			<point x="187" y="463"/>
			<point x="168" y="360" type="curve" smooth="yes"/>
		</contour>
		<contour>
			<point x="122" y="629" type="line"/>
			<point x="243" y="614" type="line"/>
			<point x="258" y="614" type="line"/>
			<point x="269" y="670" type="line"/>
			<point x="130" y="670" type="line"/>
		</contour>
		<contour>
			<point x="188" y="260" type="line"/>
			<point x="303" y="260" type="line" smooth="yes"/>
			<point x="484" y="260"/>
			<point x="585" y="359"/>
			<point x="585" y="494" type="curve" smooth="yes"/>
			<point x="585" y="598"/>
			<point x="510" y="670"/>
			<point x="358" y="670" type="curve" smooth="yes"/>
			<point x="269" y="670" type="line"/>
			<point x="260" y="623" type="line"/>
			<point x="343" y="623" type="line" smooth="yes"/>
			<point x="440" y="623"/>
			<point x="492" y="575"/>
			<point x="492" y="483" type="curve" smooth="yes"/>
			<point x="492" y="379"/>
			<point x="429" y="306"/>
			<point x="301" y="306" type="curve" smooth="yes"/>
			<point x="197" y="306" type="line"/>
		</contour>
	</outline>
	<anchor name="aboveUC" x="371" y="691"/>
	<anchor name="belowLC" x="150" y="-22"/>
</glyph>
<glyph name="Q" format="2">
	<unicode hex="0051"/>
	<advance width="660"/>
	<outline>
		<contour>
			<point x="478" y="-249" type="curve" smooth="yes"/>
			<point x="543" y="-249"/>
			<point x="594" y="-223"/>
			<point x="636" y="-186" type="curve"/>
			<point x="621" y="-157" type="line"/>
			<point x="582" y="-177"/>
			<point x="548" y="-186"/>
			<point x="495" y="-186" type="curve" smooth="yes"/>
			<point x="384" y="-186"/>
			<point x="324" y="-109"/>
			<point x="324" y="20" type="curve"/>
			<point x="241" y="20" type="line"/>
			<point x="241" y="-137"/>
			<point x="328" y="-249"/>
		</contour>
		<component base="O"/>
	</outline>
	<anchor name="aboveUC" x="395" y="690"/>
</glyph>
<glyph name="R" format="2">
	<unicode hex="0052"/>
	<advance width="646"/>
	<outline>
		<contour>
			<point x="16" y="0" type="line"/>
			<point x="286" y="0" type="line"/>
			<point x="294" y="40" type="line"/>
			<point x="169" y="55" type="line"/>
			<point x="151" y="55" type="line"/>
			<point x="24" y="40" type="line"/>
		</contour>
		<contour>
			<point x="100" y="0" type="line"/>
			<point x="190" y="0" type="line"/>
			<point x="206" y="103"/>
			<point x="224" y="207"/>
			<point x="243" y="310" type="curve" smooth="yes"/>
			<point x="311" y="670" type="line"/>
			<point x="221" y="670" type="line"/>
			<point x="205" y="567"/>
			<point x="187" y="463"/>
			<point x="168" y="360" type="curve" smooth="yes"/>
		</contour>
		<contour>
			<point x="122" y="629" type="line"/>
			<point x="243" y="614" type="line"/>
			<point x="256" y="614" type="line"/>
			<point x="267" y="670" type="line"/>
			<point x="130" y="670" type="line"/>
		</contour>
		<contour>
			<point x="545" y="-10" type="curve" smooth="yes"/>
			<point x="585" y="-10"/>
			<point x="606" y="-5"/>
			<point x="629" y="0" type="curve"/>
			<point x="637" y="40" type="line"/>
			<point x="463" y="62" type="line"/>
			<point x="538" y="33" type="line"/>
			<point x="480" y="198" type="line" smooth="yes"/>
			<point x="448" y="289"/>
			<point x="419" y="318"/>
			<point x="346" y="330" type="curve"/>
			<point x="356" y="311" type="line"/>
			<point x="522" y="323"/>
			<point x="599" y="404"/>
			<point x="599" y="511" type="curve" smooth="yes"/>
			<point x="599" y="614"/>
			<point x="518" y="670"/>
			<point x="395" y="670" type="curve" smooth="yes"/>
			<point x="268" y="670" type="line"/>
			<point x="259" y="623" type="line"/>
			<point x="386" y="623" type="line" smooth="yes"/>
			<point x="464" y="623"/>
			<point x="507" y="584"/>
			<point x="507" y="513" type="curve" smooth="yes"/>
			<point x="507" y="420"/>
			<point x="456" y="355"/>
			<point x="323" y="355" type="curve" smooth="yes"/>
			<point x="209" y="355" type="line"/>
			<point x="201" y="310" type="line"/>
			<point x="285" y="310" type="line" smooth="yes"/>
			<point x="341" y="310"/>
			<point x="360" y="294"/>
			<point x="387" y="215" type="curve" smooth="yes"/>
			<point x="438" y="60" type="line" smooth="yes"/>
			<point x="455" y="9"/>
			<point x="487" y="-10"/>
		</contour>
	</outline>
	<anchor name="aboveUC" x="378" y="691"/>
	<anchor name="belowLC" x="365" y="-22"/>
</glyph>
<glyph name="S" format="1">
	<unicode hex="0053"/>
	<advance width="494"/>
	<outline>
		<contour>
			<point x="34" y="30" type="line"/>
			<point x="76" y="2"/>
			<point x="151" y="-15"/>
			<point x="211" y="-15" type="curve" smooth="yes"/>
			<point x="344" y="-15"/>
			<point x="434" y="61"/>
			<point x="434" y="177" type="curve" smooth="yes"/>
			<point x="434" y="238"/>
			<point x="409" y="290"/>
			<point x="296" y="378" type="curve" smooth="yes"/>
			<point x="225" y="432"/>
			<point x="198" y="471"/>
			<point x="198" y="524" type="curve" smooth="yes"/>
			<point x="198" y="598"/>
			<point x="254" y="635"/>
			<point x="352" y="635" type="curve" smooth="yes"/>
			<point x="381" y="635"/>
			<point x="410" y="630"/>
			<point x="460" y="605" type="curve"/>
			<point x="417" y="640" type="line"/>
			<point x="424" y="500" type="line"/>
			<point x="482" y="500" type="line"/>
			<point x="506" y="640" type="line"/>
			<point x="450" y="673"/>
			<point x="394" y="685"/>
			<point x="340" y="685" type="curve" smooth="yes"/>
			<point x="212" y="685"/>
			<point x="122" y="608"/>
			<point x="122" y="502" type="curve" smooth="yes"/>
			<point x="122" y="440"/>
			<point x="148" y="383"/>
			<point x="250" y="305" type="curve" smooth="yes"/>
			<point x="340" y="236"/>
			<point x="354" y="200"/>
			<point x="354" y="155" type="curve" smooth="yes"/>
			<point x="354" y="86"/>
			<point x="307" y="35"/>
			<point x="207" y="35" type="curve" smooth="yes"/>
			<point x="160" y="35"/>
			<point x="113" y="45"/>
			<point x="75" y="67" type="curve"/>
			<point x="123" y="32" type="line"/>
			<point x="110" y="172" type="line"/>
			<point x="52" y="172" type="line"/>
		</contour>
		<contour>
			<point name="aboveUC" x="344" y="691" type="move"/>
		</contour>
		<contour>
			<point name="baseLC" x="205" y="0" type="move"/>
		</contour>
		<contour>
			<point name="belowLC" x="200" y="-22" type="move"/>
		</contour>
	</outline>
</glyph>
<glyph name="T" format="1">
	<unicode hex="0054"/>
	<advance width="569"/>
	<outline>
		<contour>
			<point x="76" y="491" type="line"/>
			<point x="127" y="491" type="line"/>
			<point x="192" y="670" type="line"/>
			<point x="137" y="619" type="line"/>
			<point x="591" y="619" type="line"/>
			<point x="554" y="670" type="line"/>
			<point x="554" y="491" type="line"/>
			<point x="605" y="491" type="line"/>
			<point x="634" y="670" type="line"/>
			<point x="112" y="670" type="line"/>
		</contour>
		<contour>
			<point x="115" y="0" type="line"/>
			<point x="400" y="0" type="line"/>
			<point x="408" y="40" type="line"/>
			<point x="279" y="55" type="line"/>
			<point x="260" y="55" type="line"/>
			<point x="123" y="40" type="line"/>
		</contour>
		<contour>
			<point x="210" y="0" type="line"/>
			<point x="299" y="0" type="line"/>
			<point x="315" y="103"/>
			<point x="333" y="207"/>
			<point x="352" y="310" type="curve" smooth="yes"/>
			<point x="420" y="670" type="line"/>
			<point x="331" y="670" type="line"/>
			<point x="315" y="567"/>
			<point x="297" y="463"/>
			<point x="278" y="360" type="curve" smooth="yes"/>
		</contour>
		<contour>
			<point name="aboveUC" x="381" y="691" type="move"/>
		</contour>
		<contour>
			<point name="baseLC" x="257" y="0" type="move"/>
		</contour>
		<contour>
			<point name="belowLC" x="253" y="-22" type="move"/>
		</contour>
	</outline>
</glyph>
<glyph name="U" format="1">
	<unicode hex="0055"/>
	<advance width="749"/>
	<outline>
		<contour>
			<point x="142" y="179" type="curve" smooth="yes"/>
			<point x="142" y="54"/>
			<point x="215" y="-15"/>
			<point x="350" y="-15" type="curve" smooth="yes"/>
			<point x="496" y="-15"/>
			<point x="601" y="62"/>
			<point x="641" y="274" type="curve" smooth="yes"/>
			<point x="716" y="670" type="line"/>
			<point x="663" y="670" type="line"/>
			<point x="592" y="298" type="line" smooth="yes"/>
			<point x="555" y="108"/>
			<point x="499" y="55"/>
			<point x="361" y="55" type="curve" smooth="yes"/>
			<point x="288" y="55"/>
			<point x="227" y="101"/>
			<point x="227" y="185" type="curve" smooth="yes"/>
			<point x="227" y="232"/>
			<point x="233" y="256"/>
			<point x="238" y="282" type="curve" smooth="yes"/>
			<point x="309" y="670" type="line"/>
			<point x="222" y="670" type="line"/>
			<point x="206" y="567"/>
			<point x="188" y="463"/>
			<point x="169" y="360" type="curve" smooth="yes"/>
			<point x="155" y="286" type="line" smooth="yes"/>
			<point x="148" y="249"/>
			<point x="142" y="212"/>
		</contour>
		<contour>
			<point x="122" y="629" type="line"/>
			<point x="243" y="614" type="line"/>
			<point x="262" y="614" type="line"/>
			<point x="387" y="629" type="line"/>
			<point x="395" y="670" type="line"/>
			<point x="130" y="670" type="line"/>
		</contour>
		<contour>
			<point x="550" y="629" type="line"/>
			<point x="666" y="614" type="line"/>
			<point x="686" y="614" type="line"/>
			<point x="791" y="629" type="line"/>
			<point x="799" y="670" type="line"/>
			<point x="558" y="670" type="line"/>
		</contour>
		<contour>
			<point name="aboveUC" x="476" y="691" type="move"/>
		</contour>
		<contour>
			<point name="hornLC" x="690" y="679" type="move"/>
		</contour>
		<contour>
			<point name="ogonek" x="444" y="0" type="move"/>
		</contour>
		<contour>
			<point name="belowLC" x="351" y="-22" type="move"/>
		</contour>
	</outline>
</glyph>
<glyph name="V" format="2">
	<unicode hex="0056"/>
	<advance width="605"/>
	<outline>
		<contour>
			<point x="62" y="629" type="line"/>
			<point x="183" y="614" type="line"/>
			<point x="203" y="614" type="line"/>
			<point x="327" y="629" type="line"/>
			<point x="335" y="670" type="line"/>
			<point x="70" y="670" type="line"/>
		</contour>
		<contour>
			<point x="241" y="-10" type="line"/>
			<point x="284" y="-10" type="line"/>
			<point x="648" y="670" type="line"/>
			<point x="594" y="670" type="line"/>
			<point x="281" y="83" type="line"/>
			<point x="307" y="83" type="line"/>
			<point x="224" y="670" type="line"/>
			<point x="132" y="670" type="line"/>
		</contour>
		<contour>
			<point x="483" y="629" type="line"/>
			<point x="584" y="614" type="line"/>
			<point x="603" y="614" type="line"/>
			<point x="707" y="629" type="line"/>
			<point x="715" y="670" type="line"/>
			<point x="491" y="670" type="line"/>
		</contour>
	</outline>
	<anchor name="aboveUC" x="411" y="691"/>
	<anchor name="belowLC" x="257" y="-22"/>
</glyph>
<glyph name="W" format="2">
	<unicode hex="0057"/>
	<advance width="872"/>
	<outline>
		<contour>
			<point x="62" y="629" type="line"/>
			<point x="183" y="614" type="line"/>
			<point x="203" y="614" type="line"/>
			<point x="323" y="629" type="line"/>
			<point x="331" y="670" type="line"/>
			<point x="70" y="670" type="line"/>
		</contour>
		<contour>
			<point x="196" y="-10" type="line"/>
			<point x="237" y="-10" type="line"/>
			<point x="526" y="586" type="line"/>
			<point x="491" y="563" type="line"/>
			<point x="565" y="-10" type="line"/>
			<point x="605" y="-10" type="line"/>
			<point x="916" y="670" type="line"/>
			<point x="863" y="670" type="line"/>
			<point x="603" y="94" type="line"/>
			<point x="620" y="107" type="line"/>
			<point x="558" y="670" type="line"/>
			<point x="515" y="670" type="line"/>
			<point x="239" y="94" type="line"/>
			<point x="259" y="107" type="line"/>
			<point x="226" y="670" type="line"/>
			<point x="135" y="670" type="line"/>
		</contour>
		<contour>
			<point x="394" y="629" type="line"/>
			<point x="513" y="614" type="line"/>
			<point x="533" y="614" type="line"/>
			<point x="657" y="629" type="line"/>
			<point x="665" y="670" type="line"/>
			<point x="402" y="670" type="line"/>
		</contour>
		<contour>
			<point x="750" y="629" type="line"/>
			<point x="851" y="614" type="line"/>
			<point x="871" y="614" type="line"/>
			<point x="974" y="629" type="line"/>
			<point x="982" y="670" type="line"/>
			<point x="759" y="670" type="line"/>
		</contour>
	</outline>
	<anchor name="aboveUC" x="521" y="691"/>
	<anchor name="belowLC" x="410" y="-2"/>
</glyph>
<glyph name="X" format="1">
	<unicode hex="0058"/>
	<advance width="699"/>
	<outline>
		<contour>
			<point x="-7" y="0" type="line"/>
			<point x="245" y="0" type="line"/>
			<point x="253" y="40" type="line"/>
			<point x="146" y="55" type="line"/>
			<point x="127" y="55" type="line"/>
			<point x="1" y="40" type="line"/>
		</contour>
		<contour>
			<point x="55" y="0" type="line"/>
			<point x="115" y="0" type="line"/>
			<point x="378" y="324" type="line"/>
			<point x="351" y="350" type="line"/>
		</contour>
		<contour>
			<point x="140" y="629" type="line"/>
			<point x="262" y="614" type="line"/>
			<point x="281" y="614" type="line"/>
			<point x="405" y="629" type="line"/>
			<point x="413" y="670" type="line"/>
			<point x="148" y="670" type="line"/>
		</contour>
		<contour>
			<point x="468" y="0" type="line"/>
			<point x="561" y="0" type="line"/>
			<point x="296" y="670" type="line"/>
			<point x="204" y="670" type="line"/>
		</contour>
		<contour>
			<point x="362" y="0" type="line"/>
			<point x="633" y="0" type="line"/>
			<point x="641" y="40" type="line"/>
			<point x="521" y="55" type="line"/>
			<point x="503" y="55" type="line"/>
			<point x="370" y="40" type="line"/>
		</contour>
		<contour>
			<point x="354" y="346" type="line"/>
			<point x="381" y="320" type="line"/>
			<point x="675" y="670" type="line"/>
			<point x="617" y="670" type="line"/>
		</contour>
		<contour>
			<point x="476" y="629" type="line"/>
			<point x="587" y="614" type="line"/>
			<point x="606" y="614" type="line"/>
			<point x="720" y="629" type="line"/>
			<point x="728" y="670" type="line"/>
			<point x="484" y="670" type="line"/>
		</contour>
		<contour>
			<point name="aboveUC" x="447" y="691" type="move"/>
		</contour>
		<contour>
			<point name="belowLC" x="308" y="-22" type="move"/>
		</contour>
	</outline>
</glyph>
<glyph name="Y" format="2">
	<unicode hex="0059"/>
	<advance width="554"/>
	<outline>
		<contour>
			<point x="62" y="629" type="line"/>
			<point x="184" y="614" type="line"/>
			<point x="203" y="614" type="line"/>
			<point x="327" y="629" type="line"/>
			<point x="335" y="670" type="line"/>
			<point x="70" y="670" type="line"/>
		</contour>
		<contour>
			<point x="112" y="0" type="line"/>
			<point x="397" y="0" type="line"/>
			<point x="405" y="40" type="line"/>
			<point x="276" y="55" type="line"/>
			<point x="257" y="55" type="line"/>
			<point x="120" y="40" type="line"/>
		</contour>
		<contour>
			<point x="270" y="249" type="line"/>
			<point x="324" y="249" type="line"/>
			<point x="601" y="670" type="line"/>
			<point x="551" y="670" type="line"/>
			<point x="321" y="314" type="line"/>
			<point x="335" y="314" type="line"/>
			<point x="223" y="670" type="line"/>
			<point x="124" y="670" type="line"/>
		</contour>
		<contour>
			<point x="206" y="0" type="line"/>
			<point x="296" y="0" type="line"/>
			<point x="312" y="103"/>
			<point x="330" y="207"/>
			<point x="349" y="310" type="curve"/>
			<point x="265" y="310" type="line"/>
		</contour>
		<contour>
			<point x="432" y="629" type="line"/>
			<point x="533" y="614" type="line"/>
			<point x="552" y="614" type="line"/>
			<point x="655" y="629" type="line"/>
			<point x="663" y="670" type="line"/>
			<point x="440" y="670" type="line"/>
		</contour>
	</outline>
	<anchor name="aboveUC" x="387" y="691"/>
	<anchor name="belowLC" x="250" y="-22"/>
</glyph>
<glyph name="Z" format="1">
	<unicode hex="005A"/>
	<advance width="569"/>
	<outline>
		<contour>
			<point x="8" y="0" type="line"/>
			<point x="82" y="0" type="line"/>
			<point x="589" y="634" type="line"/>
			<point x="596" y="670" type="line"/>
			<point x="521" y="670" type="line"/>
			<point x="15" y="35" type="line"/>
		</contour>
		<contour>
			<point x="96" y="491" type="line"/>
			<point x="154" y="491" type="line"/>
			<point x="217" y="670" type="line"/>
			<point x="155" y="619" type="line"/>
			<point x="549" y="619" type="line"/>
			<point x="559" y="670" type="line"/>
			<point x="130" y="670" type="line"/>
		</contour>
		<contour>
			<point x="55" y="0" type="line"/>
			<point x="491" y="0" type="line"/>
			<point x="526" y="178" type="line"/>
			<point x="467" y="178" type="line"/>
			<point x="405" y="0" type="line"/>
			<point x="466" y="50" type="line"/>
			<point x="65" y="50" type="line"/>
		</contour>
		<contour>
			<point name="aboveUC" x="360" y="691" type="move"/>
		</contour>
		<contour>
			<point name="belowLC" x="266" y="-22" type="move"/>
		</contour>
	</outline>
</glyph>
<glyph name="bracketleft" format="2">
	<unicode hex="005B"/>
	<advance width="325"/>
	<outline>
		<contour>
			<point x="39" y="-159" type="line"/>
			<point x="112" y="-159" type="line"/>
			<point x="129" y="-54"/>
			<point x="150" y="53"/>
			<point x="171" y="158" type="curve" smooth="yes"/>
			<point x="278" y="715" type="line"/>
			<point x="205" y="715" type="line"/>
			<point x="187" y="610"/>
			<point x="167" y="503"/>
			<point x="146" y="398" type="curve" smooth="yes"/>
		</contour>
		<contour>
			<point x="83" y="-159" type="line"/>
			<point x="224" y="-159" type="line"/>
			<point x="232" y="-119" type="line"/>
			<point x="104" y="-104" type="line"/>
			<point x="94" y="-104" type="line"/>
		</contour>
		<contour>
			<point x="242" y="660" type="line"/>
			<point x="252" y="660" type="line"/>
			<point x="386" y="675" type="line"/>
			<point x="394" y="715" type="line"/>
			<point x="253" y="715" type="line"/>
		</contour>
	</outline>
</glyph>
<glyph name="backslash" format="1">
	<unicode hex="005C"/>
	<advance width="330"/>
	<outline>
		<contour>
			<point x="260" y="-160" type="line"/>
			<point x="171" y="710" type="line"/>
			<point x="112" y="710" type="line"/>
			<point x="201" y="-160" type="line"/>
		</contour>
	</outline>
</glyph>
<glyph name="asciicircum" format="1">
	<unicode hex="005E"/>
	<advance width="530"/>
	<outline>
		<contour>
			<point x="140" y="243" type="line"/>
			<point x="184" y="209" type="line"/>
			<point x="334" y="448" type="line"/>
			<point x="301" y="448" type="line"/>
			<point x="452" y="209" type="line"/>
			<point x="495" y="243" type="line"/>
			<point x="349" y="481" type="line"/>
			<point x="286" y="481" type="line"/>
		</contour>
	</outline>
</glyph>
<glyph name="a" format="2">
	<unicode hex="0061"/>
	<advance width="522"/>
	<outline>
		<contour>
			<point x="140" y="-13" type="curve" smooth="yes"/>
			<point x="211" y="-13"/>
			<point x="300" y="66"/>
			<point x="370" y="170" type="curve"/>
			<point x="361" y="192" type="line"/>
			<point x="274" y="89"/>
			<point x="224" y="56"/>
			<point x="183" y="56" type="curve" smooth="yes"/>
			<point x="147" y="56"/>
			<point x="123" y="85"/>
			<point x="123" y="146" type="curve" smooth="yes"/>
			<point x="123" y="234"/>
			<point x="161" y="313"/>
			<point x="209" y="363" type="curve" smooth="yes"/>
			<point x="245" y="400"/>
			<point x="287" y="421"/>
			<point x="319" y="421" type="curve" smooth="yes"/>
			<point x="353" y="421"/>
			<point x="387" y="400"/>
			<point x="412" y="379" type="curve"/>
			<point x="449" y="405" type="line"/>
			<point x="423" y="451"/>
			<point x="397" y="487"/>
			<point x="354" y="487" type="curve" smooth="yes"/>
			<point x="225" y="487"/>
			<point x="45" y="279"/>
			<point x="45" y="105" type="curve" smooth="yes"/>
			<point x="45" y="22"/>
			<point x="92" y="-13"/>
		</contour>
		<contour>
			<point x="363" y="-13" type="curve" smooth="yes"/>
			<point x="430" y="-13"/>
			<point x="493" y="51"/>
			<point x="532" y="109" type="curve"/>
			<point x="508" y="128" type="line"/>
			<point x="473" y="85"/>
			<point x="435" y="56"/>
			<point x="410" y="56" type="curve" smooth="yes"/>
			<point x="397" y="56"/>
			<point x="386" y="64"/>
			<point x="386" y="78" type="curve" smooth="yes"/>
			<point x="386" y="89"/>
			<point x="389" y="110"/>
			<point x="395" y="135" type="curve" smooth="yes"/>
			<point x="475" y="488" type="line"/>
			<point x="457" y="497" type="line"/>
			<point x="389" y="442" type="line"/>
			<point x="321" y="128" type="line" smooth="yes"/>
			<point x="314" y="95"/>
			<point x="311" y="74"/>
			<point x="311" y="45" type="curve" smooth="yes"/>
			<point x="311" y="5"/>
			<point x="336" y="-13"/>
		</contour>
	</outline>
	<anchor name="aboveLC" x="353" y="506"/>
	<anchor name="belowLC" x="218" y="-22"/>
	<anchor name="ogonek" x="401" y="0"/>
</glyph>
<glyph name="b" format="2">
	<unicode hex="0062"/>
	<advance width="494"/>
	<outline>
		<contour>
			<point x="150" y="-13" type="curve" smooth="yes"/>
			<point x="313" y="-13"/>
			<point x="478" y="195"/>
			<point x="478" y="364" type="curve" smooth="yes"/>
			<point x="478" y="454"/>
			<point x="436" y="487"/>
			<point x="387" y="487" type="curve" smooth="yes"/>
			<point x="314" y="487"/>
			<point x="211" y="413"/>
			<point x="148" y="295" type="curve"/>
			<point x="143" y="295" type="line"/>
			<point x="160" y="289" type="line"/>
			<point x="232" y="373"/>
			<point x="294" y="420"/>
			<point x="342" y="420" type="curve" smooth="yes"/>
			<point x="379" y="420"/>
			<point x="402" y="388"/>
			<point x="402" y="324" type="curve" smooth="yes"/>
			<point x="402" y="242"/>
			<point x="367" y="156"/>
			<point x="313" y="104" type="curve" smooth="yes"/>
			<point x="276" y="69"/>
			<point x="236" y="50"/>
			<point x="195" y="50" type="curve" smooth="yes"/>
			<point x="163" y="50"/>
			<point x="145" y="70"/>
			<point x="145" y="104" type="curve" smooth="yes"/>
			<point x="145" y="142"/>
			<point x="149" y="167"/>
			<point x="165" y="243" type="curve" smooth="yes"/>
			<point x="183" y="329" type="line"/>
			<point x="186" y="344" type="line"/>
			<point x="266" y="732" type="line"/>
			<point x="255" y="740" type="line"/>
			<point x="82" y="690" type="line"/>
			<point x="77" y="661" type="line"/>
			<point x="194" y="653" type="line"/>
			<point x="179" y="670" type="line"/>
			<point x="91" y="227" type="line" smooth="yes"/>
			<point x="78" y="160"/>
			<point x="68" y="112"/>
			<point x="68" y="70" type="curve" smooth="yes"/>
			<point x="68" y="18"/>
			<point x="106" y="-13"/>
		</contour>
	</outline>
	<anchor name="aboveLC" x="214" y="740"/>
	<anchor name="belowLC" x="166" y="-20"/>
</glyph>
<glyph name="c" format="1">
	<unicode hex="0063"/>
	<advance width="409"/>
	<outline>
		<contour>
			<point x="204" y="-13" type="curve" smooth="yes"/>
			<point x="274" y="-13"/>
			<point x="347" y="41"/>
			<point x="387" y="112" type="curve"/>
			<point x="364" y="130" type="line"/>
			<point x="336" y="95"/>
			<point x="295" y="57"/>
			<point x="241" y="57" type="curve" smooth="yes"/>
			<point x="176" y="57"/>
			<point x="131" y="99"/>
			<point x="131" y="185" type="curve" smooth="yes"/>
			<point x="131" y="320"/>
			<point x="219" y="440"/>
			<point x="316" y="457" type="curve"/>
			<point x="274" y="467" type="line"/>
			<point x="319" y="415" type="line" smooth="yes"/>
			<point x="336" y="394"/>
			<point x="355" y="378"/>
			<point x="378" y="378" type="curve" smooth="yes"/>
			<point x="397" y="378"/>
			<point x="417" y="389"/>
			<point x="421" y="414" type="curve"/>
			<point x="409" y="457"/>
			<point x="374" y="488"/>
			<point x="312" y="488" type="curve" smooth="yes"/>
			<point x="185" y="488"/>
			<point x="54" y="343"/>
			<point x="54" y="174" type="curve" smooth="yes"/>
			<point x="54" y="49"/>
			<point x="116" y="-13"/>
		</contour>
		<contour>
			<point name="aboveLC" x="356" y="506" type="move"/>
		</contour>
		<contour>
			<point name="baseLC" x="184" y="0" type="move"/>
		</contour>
		<contour>
			<point name="belowLC" x="178" y="-22" type="move"/>
		</contour>
	</outline>
</glyph>
<glyph name="d" format="1">
	<unicode hex="0064"/>
	<advance width="526"/>
	<outline>
		<contour>
			<point x="138" y="-13" type="curve" smooth="yes"/>
			<point x="209" y="-13"/>
			<point x="304" y="66"/>
			<point x="369" y="168" type="curve"/>
			<point x="361" y="191" type="line"/>
			<point x="278" y="90"/>
			<point x="230" y="57"/>
			<point x="189" y="57" type="curve" smooth="yes"/>
			<point x="153" y="57"/>
			<point x="126" y="86"/>
			<point x="126" y="152" type="curve" smooth="yes"/>
			<point x="126" y="233"/>
			<point x="157" y="310"/>
			<point x="202" y="360" type="curve" smooth="yes"/>
			<point x="236" y="398"/>
			<point x="278" y="421"/>
			<point x="321" y="421" type="curve" smooth="yes"/>
			<point x="347" y="421"/>
			<point x="376" y="409"/>
			<point x="401" y="378" type="curve"/>
			<point x="443" y="429" type="line"/>
			<point x="411" y="471"/>
			<point x="387" y="488"/>
			<point x="351" y="488" type="curve" smooth="yes"/>
			<point x="215" y="488"/>
			<point x="47" y="279"/>
			<point x="47" y="114" type="curve" smooth="yes"/>
			<point x="47" y="22"/>
			<point x="89" y="-13"/>
		</contour>
		<contour>
			<point x="404" y="135" type="curve" smooth="yes"/>
			<point x="525" y="732" type="line"/>
			<point x="513" y="740" type="line"/>
			<point x="341" y="689" type="line"/>
			<point x="337" y="659" type="line"/>
			<point x="454" y="651" type="line"/>
			<point x="441" y="675" type="line"/>
			<point x="397" y="455" type="line"/>
			<point x="387" y="423" type="line"/>
			<point x="324" y="112" type="line" smooth="yes"/>
			<point x="316" y="72"/>
			<point x="315" y="54"/>
			<point x="316" y="40" type="curve" smooth="yes"/>
			<point x="316" y="5"/>
			<point x="341" y="-13"/>
			<point x="372" y="-13" type="curve" smooth="yes"/>
			<point x="439" y="-13"/>
			<point x="502" y="51"/>
			<point x="541" y="109" type="curve"/>
			<point x="517" y="129" type="line"/>
			<point x="483" y="86"/>
			<point x="444" y="56"/>
			<point x="419" y="56" type="curve" smooth="yes"/>
			<point x="407" y="56"/>
			<point x="396" y="64"/>
			<point x="396" y="78" type="curve" smooth="yes"/>
			<point x="396" y="90"/>
			<point x="399" y="110"/>
		</contour>
		<contour>
			<point name="aboveLC" x="465" y="738" type="move"/>
		</contour>
		<contour>
			<point name="belowLC" x="244" y="-22" type="move"/>
		</contour>
	</outline>
</glyph>
<glyph name="e" format="1">
	<unicode hex="0065"/>
	<advance width="408"/>
	<outline>
		<contour>
			<point x="205" y="-13" type="curve" smooth="yes"/>
			<point x="280" y="-13"/>
			<point x="345" y="43"/>
			<point x="387" y="112" type="curve"/>
			<point x="364" y="130" type="line"/>
			<point x="336" y="96"/>
			<point x="291" y="57"/>
			<point x="229" y="57" type="curve" smooth="yes"/>
			<point x="164" y="57"/>
			<point x="125" y="96"/>
			<point x="125" y="195" type="curve" smooth="yes"/>
			<point x="125" y="327"/>
			<point x="230" y="444"/>
			<point x="294" y="444" type="curve" smooth="yes"/>
			<point x="326" y="444"/>
			<point x="349" y="422"/>
			<point x="349" y="386" type="curve" smooth="yes"/>
			<point x="349" y="328"/>
			<point x="285" y="255"/>
			<point x="98" y="207" type="curve"/>
			<point x="102" y="169" type="line"/>
			<point x="348" y="234"/>
			<point x="417" y="328"/>
			<point x="417" y="395" type="curve" smooth="yes"/>
			<point x="417" y="454"/>
			<point x="381" y="488"/>
			<point x="316" y="488" type="curve" smooth="yes"/>
			<point x="175" y="488"/>
			<point x="54" y="335"/>
			<point x="54" y="173" type="curve" smooth="yes"/>
			<point x="54" y="46"/>
			<point x="117" y="-13"/>
		</contour>
		<contour>
			<point name="aboveLC" x="332" y="507" type="move"/>
		</contour>
		<contour>
			<point name="ogonek" x="243" y="0" type="move"/>
		</contour>
		<contour>
			<point name="belowLC" x="192" y="-22" type="move"/>
		</contour>
	</outline>
</glyph>
<glyph name="f" format="2">
	<unicode hex="0066"/>
	<advance width="294"/>
	<outline>
		<contour>
			<point x="-76" y="-250" type="curve" smooth="yes"/>
			<point x="-44" y="-250"/>
			<point x="-11" y="-238"/>
			<point x="30" y="-201" type="curve" smooth="yes"/>
			<point x="86" y="-151"/>
			<point x="112" y="-72"/>
			<point x="133" y="35" type="curve" smooth="yes"/>
			<point x="162" y="181"/>
			<point x="186" y="341"/>
			<point x="210" y="485" type="curve" smooth="yes"/>
			<point x="242" y="683"/>
			<point x="309" y="718"/>
			<point x="377" y="731" type="curve"/>
			<point x="376" y="739" type="line"/>
			<point x="316" y="738" type="line"/>
			<point x="347" y="698" type="line" smooth="yes"/>
			<point x="378" y="658"/>
			<point x="396" y="643"/>
			<point x="426" y="643" type="curve" smooth="yes"/>
			<point x="443" y="643"/>
			<point x="458" y="653"/>
			<point x="465" y="677" type="curve"/>
			<point x="457" y="714"/>
			<point x="410" y="750"/>
			<point x="352" y="750" type="curve" smooth="yes"/>
			<point x="287" y="750"/>
			<point x="172" y="704"/>
			<point x="137" y="483" type="curve" smooth="yes"/>
			<point x="113" y="326"/>
			<point x="91" y="187"/>
			<point x="64" y="35" type="curve" smooth="yes"/>
			<point x="45" y="-69"/>
			<point x="28" y="-125"/>
			<point x="2" y="-162" type="curve" smooth="yes"/>
			<point x="-19" y="-193"/>
			<point x="-41" y="-209"/>
			<point x="-62" y="-220" type="curve"/>
			<point x="-26" y="-220" type="line"/>
			<point x="-26" y="-217" type="line"/>
			<point x="-51" y="-193" type="line" smooth="yes"/>
			<point x="-73" y="-171"/>
			<point x="-94" y="-152"/>
			<point x="-123" y="-152" type="curve" smooth="yes"/>
			<point x="-145" y="-152"/>
			<point x="-165" y="-167"/>
			<point x="-169" y="-188" type="curve"/>
			<point x="-160" y="-226"/>
			<point x="-121" y="-250"/>
		</contour>
		<contour>
			<point x="25" y="427" type="line"/>
			<point x="156" y="427" type="line"/>
			<point x="329" y="421" type="line"/>
			<point x="337" y="474" type="line"/>
			<point x="165" y="474" type="line"/>
			<point x="165" y="477" type="line"/>
			<point x="33" y="465" type="line"/>
		</contour>
	</outline>
	<anchor name="aboveLC" x="350" y="740"/>
	<anchor name="belowLC" x="-61" y="-260"/>
</glyph>
<glyph name="g" format="1">
	<unicode hex="0067"/>
	<advance width="488"/>
	<outline>
		<contour>
			<point x="56" y="82" type="curve" smooth="yes"/>
			<point x="56" y="52"/>
			<point x="74" y="10"/>
			<point x="150" y="1" type="curve" smooth="yes"/>
			<point x="232" y="-8" type="line" smooth="yes"/>
			<point x="334" y="-19"/>
			<point x="358" y="-52"/>
			<point x="358" y="-89" type="curve" smooth="yes"/>
			<point x="358" y="-152"/>
			<point x="289" y="-193"/>
			<point x="183" y="-193" type="curve" smooth="yes"/>
			<point x="102" y="-193"/>
			<point x="54" y="-159"/>
			<point x="54" y="-102" type="curve" smooth="yes"/>
			<point x="54" y="-56"/>
			<point x="86" y="-24"/>
			<point x="151" y="16" type="curve"/>
			<point x="132" y="27" type="line"/>
			<point x="50" y="0"/>
			<point x="-25" y="-66"/>
			<point x="-25" y="-135" type="curve" smooth="yes"/>
			<point x="-25" y="-207"/>
			<point x="45" y="-241"/>
			<point x="138" y="-241" type="curve" smooth="yes"/>
			<point x="305" y="-241"/>
			<point x="428" y="-155"/>
			<point x="428" y="-50" type="curve" smooth="yes"/>
			<point x="428" y="8"/>
			<point x="389" y="45"/>
			<point x="281" y="59" type="curve" smooth="yes"/>
			<point x="182" y="72" type="line" smooth="yes"/>
			<point x="141" y="77"/>
			<point x="129" y="100"/>
			<point x="129" y="117" type="curve" smooth="yes"/>
			<point x="129" y="134"/>
			<point x="133" y="150"/>
			<point x="175" y="193" type="curve"/>
			<point x="163" y="203" type="line"/>
			<point x="97" y="164"/>
			<point x="56" y="127"/>
		</contour>
		<contour>
			<point x="240" y="187" type="curve" smooth="yes"/>
			<point x="188" y="186"/>
			<point x="162" y="225"/>
			<point x="162" y="296" type="curve" smooth="yes"/>
			<point x="162" y="389"/>
			<point x="195" y="453"/>
			<point x="265" y="455" type="curve" smooth="yes"/>
			<point x="307" y="456"/>
			<point x="341" y="417"/>
			<point x="341" y="352" type="curve" smooth="yes"/>
			<point x="341" y="247"/>
			<point x="302" y="188"/>
		</contour>
		<contour>
			<point x="83" y="290" type="curve" smooth="yes"/>
			<point x="83" y="209"/>
			<point x="137" y="155"/>
			<point x="232" y="155" type="curve" smooth="yes"/>
			<point x="313" y="155"/>
			<point x="384" y="214"/>
			<point x="414" y="342" type="curve" smooth="yes"/>
			<point x="426" y="395"/>
			<point x="437" y="424"/>
			<point x="463" y="468" type="curve"/>
			<point x="429" y="442" type="line"/>
			<point x="441" y="435" type="line"/>
			<point x="461" y="425"/>
			<point x="485" y="417"/>
			<point x="507" y="417" type="curve" smooth="yes"/>
			<point x="529" y="417"/>
			<point x="546" y="438"/>
			<point x="546" y="468" type="curve"/>
			<point x="536" y="488"/>
			<point x="515" y="498"/>
			<point x="494" y="498" type="curve" smooth="yes"/>
			<point x="443" y="498"/>
			<point x="408" y="462"/>
			<point x="392" y="374" type="curve"/>
			<point x="401" y="375" type="line"/>
			<point x="394" y="445"/>
			<point x="344" y="488"/>
			<point x="272" y="488" type="curve" smooth="yes"/>
			<point x="168" y="488"/>
			<point x="83" y="399"/>
		</contour>
		<contour>
			<point name="aboveLC" x="299" y="507" type="move"/>
		</contour>
		<contour>
			<point name="belowLC" x="153" y="-242" type="move"/>
		</contour>
	</outline>
</glyph>
<glyph name="h" format="1">
	<unicode hex="0068"/>
	<advance width="552"/>
	<outline>
		<contour>
			<point x="80" y="-8" type="line"/>
			<point x="147" y="0" type="line"/>
			<point x="158" y="70"/>
			<point x="171" y="140"/>
			<point x="185" y="210" type="curve" smooth="yes"/>
			<point x="214" y="347" type="line"/>
			<point x="217" y="364" type="line"/>
			<point x="292" y="732" type="line"/>
			<point x="282" y="740" type="line"/>
			<point x="109" y="690" type="line"/>
			<point x="105" y="661" type="line"/>
			<point x="222" y="653" type="line"/>
			<point x="204" y="684" type="line"/>
			<point x="194" y="615"/>
			<point x="181" y="546"/>
			<point x="167" y="477" type="curve" smooth="yes"/>
			<point x="70" y="0" type="line"/>
		</contour>
		<contour>
			<point x="385" y="-13" type="curve" smooth="yes"/>
			<point x="454" y="-13"/>
			<point x="519" y="50"/>
			<point x="558" y="109" type="curve"/>
			<point x="534" y="128" type="line"/>
			<point x="498" y="83"/>
			<point x="460" y="56"/>
			<point x="436" y="56" type="curve" smooth="yes"/>
			<point x="424" y="56"/>
			<point x="416" y="63"/>
			<point x="416" y="77" type="curve" smooth="yes"/>
			<point x="416" y="87"/>
			<point x="422" y="107"/>
			<point x="429" y="135" type="curve" smooth="yes"/>
			<point x="474" y="320" type="line" smooth="yes"/>
			<point x="482" y="353"/>
			<point x="490" y="386"/>
			<point x="490" y="418" type="curve" smooth="yes"/>
			<point x="490" y="464"/>
			<point x="468" y="487"/>
			<point x="426" y="487" type="curve" smooth="yes"/>
			<point x="360" y="487"/>
			<point x="269" y="428"/>
			<point x="202" y="359" type="curve"/>
			<point x="197" y="322" type="line"/>
			<point x="276" y="388"/>
			<point x="337" y="420"/>
			<point x="375" y="420" type="curve" smooth="yes"/>
			<point x="397" y="420"/>
			<point x="410" y="409"/>
			<point x="410" y="374" type="curve" smooth="yes"/>
			<point x="410" y="354"/>
			<point x="402" y="321"/>
			<point x="394" y="287" type="curve" smooth="yes"/>
			<point x="351" y="111" type="line" smooth="yes"/>
			<point x="341" y="70"/>
			<point x="335" y="53"/>
			<point x="335" y="30" type="curve" smooth="yes"/>
			<point x="335" y="4"/>
			<point x="354" y="-13"/>
		</contour>
		<contour>
			<point name="aboveLC" x="202" y="738" type="move"/>
		</contour>
		<contour>
			<point name="belowLC" x="224" y="-12" type="move"/>
		</contour>
	</outline>
</glyph>
<glyph name="i" format="1">
	<unicode hex="0069"/>
	<advance width="306"/>
	<outline>
		<contour>
			<point x="90" y="39" type="curve" smooth="yes"/>
			<point x="90" y="4"/>
			<point x="116" y="-13"/>
			<point x="144" y="-13" type="curve" smooth="yes"/>
			<point x="216" y="-13"/>
			<point x="268" y="49"/>
			<point x="312" y="109" type="curve"/>
			<point x="288" y="129" type="line"/>
			<point x="247" y="81"/>
			<point x="216" y="56"/>
			<point x="192" y="56" type="curve" smooth="yes"/>
			<point x="181" y="56"/>
			<point x="171" y="64"/>
			<point x="171" y="78" type="curve" smooth="yes"/>
			<point x="171" y="90"/>
			<point x="175" y="111"/>
			<point x="180" y="135" type="curve" smooth="yes"/>
			<point x="251" y="478" type="line"/>
			<point x="238" y="488" type="line"/>
			<point x="66" y="436" type="line"/>
			<point x="62" y="407" type="line"/>
			<point x="182" y="399" type="line"/>
			<point x="163" y="414" type="line"/>
			<point x="100" y="112" type="line" smooth="yes"/>
			<point x="91" y="72"/>
			<point x="90" y="53"/>
		</contour>
		<contour>
			<point x="248" y="622" type="curve" smooth="yes"/>
			<point x="279" y="622"/>
			<point x="307" y="654"/>
			<point x="307" y="686" type="curve" smooth="yes"/>
			<point x="307" y="722"/>
			<point x="285" y="744"/>
			<point x="252" y="744" type="curve" smooth="yes"/>
			<point x="221" y="744"/>
			<point x="193" y="715"/>
			<point x="193" y="681" type="curve" smooth="yes"/>
			<point x="193" y="645"/>
			<point x="215" y="622"/>
		</contour>
		<contour>
			<point name="aboveLC" x="251" y="736" type="move"/>
		</contour>
		<contour>
			<point name="ogonek" x="182" y="0" type="move"/>
		</contour>
		<contour>
			<point name="belowLC" x="139" y="-22" type="move"/>
		</contour>
	</outline>
</glyph>
<glyph name="j" format="1">
	<unicode hex="006A"/>
	<advance width="267"/>
	<outline>
		<contour>
			<point x="248" y="622" type="curve" smooth="yes"/>
			<point x="279" y="622"/>
			<point x="307" y="654"/>
			<point x="307" y="686" type="curve" smooth="yes"/>
			<point x="307" y="722"/>
			<point x="285" y="744"/>
			<point x="252" y="744" type="curve" smooth="yes"/>
			<point x="221" y="744"/>
			<point x="193" y="715"/>
			<point x="193" y="681" type="curve" smooth="yes"/>
			<point x="193" y="645"/>
			<point x="215" y="622"/>
		</contour>
		<contour>
			<point x="-62" y="-247" type="line"/>
			<point x="-25" y="-241"/>
			<point x="9" y="-225"/>
			<point x="42" y="-197" type="curve" smooth="yes"/>
			<point x="103" y="-145"/>
			<point x="143" y="-69"/>
			<point x="162" y="24" type="curve" smooth="yes"/>
			<point x="250" y="477" type="line"/>
			<point x="236" y="488" type="line"/>
			<point x="66" y="436" type="line"/>
			<point x="63" y="407" type="line"/>
			<point x="183" y="399" type="line"/>
			<point x="163" y="415" type="line"/>
			<point x="93" y="48" type="line" smooth="yes"/>
			<point x="71" y="-72"/>
			<point x="44" y="-122"/>
			<point x="11" y="-166" type="curve" smooth="yes"/>
			<point x="-9" y="-190"/>
			<point x="-34" y="-204"/>
			<point x="-70" y="-219" type="curve"/>
		</contour>
		<contour>
			<point name="aboveLC" x="243" y="736" type="move"/>
		</contour>
		<contour>
			<point name="belowLC" x="-20" y="-251" type="move"/>
		</contour>
	</outline>
</glyph>
<glyph name="k" format="1">
	<unicode hex="006B"/>
	<advance width="490"/>
	<outline>
		<contour>
			<point x="67" y="0" type="line"/>
			<point x="76" y="-8" type="line"/>
			<point x="143" y="0" type="line"/>
			<point x="155" y="70"/>
			<point x="167" y="140"/>
			<point x="181" y="210" type="curve" smooth="yes"/>
			<point x="284" y="732" type="line"/>
			<point x="278" y="740" type="line"/>
			<point x="105" y="690" type="line"/>
			<point x="101" y="661" type="line"/>
			<point x="218" y="653" type="line"/>
			<point x="200" y="684" type="line"/>
			<point x="190" y="615"/>
			<point x="177" y="546"/>
			<point x="163" y="477" type="curve" smooth="yes"/>
		</contour>
		<contour>
			<point x="480" y="0" type="curve"/>
			<point x="485" y="30" type="line"/>
			<point x="434" y="34" type="line" smooth="yes"/>
			<point x="403" y="36"/>
			<point x="388" y="44"/>
			<point x="366" y="92" type="curve" smooth="yes"/>
			<point x="337" y="155" type="line" smooth="yes"/>
			<point x="314" y="205"/>
			<point x="283" y="239"/>
			<point x="225" y="250" type="curve" smooth="yes"/>
			<point x="195" y="256" type="line"/>
			<point x="192" y="249" type="line"/>
			<point x="445" y="389" type="line" smooth="yes"/>
			<point x="482" y="409"/>
			<point x="496" y="423"/>
			<point x="496" y="441" type="curve" smooth="yes"/>
			<point x="496" y="462"/>
			<point x="481" y="481"/>
			<point x="460" y="482" type="curve"/>
			<point x="171" y="257" type="line"/>
			<point x="174" y="235" type="line"/>
			<point x="194" y="229" type="line" smooth="yes"/>
			<point x="229" y="219"/>
			<point x="244" y="201"/>
			<point x="268" y="145" type="curve" smooth="yes"/>
			<point x="300" y="67" type="line" smooth="yes"/>
			<point x="329" y="-3"/>
			<point x="362" y="-13"/>
			<point x="409" y="-13" type="curve" smooth="yes"/>
			<point x="431" y="-13"/>
			<point x="450" y="-10"/>
		</contour>
		<contour>
			<point name="aboveLC" x="228" y="738" type="move"/>
		</contour>
		<contour>
			<point name="belowLC" x="238" y="-22" type="move"/>
		</contour>
	</outline>
</glyph>
<glyph name="l" format="1">
	<unicode hex="006C"/>
	<advance width="287"/>
	<outline>
		<contour>
			<point x="138" y="-13" type="curve" smooth="yes"/>
			<point x="208" y="-13"/>
			<point x="259" y="50"/>
			<point x="302" y="109" type="curve"/>
			<point x="278" y="128" type="line"/>
			<point x="239" y="82"/>
			<point x="205" y="56"/>
			<point x="184" y="56" type="curve" smooth="yes"/>
			<point x="171" y="56"/>
			<point x="159" y="64"/>
			<point x="159" y="79" type="curve" smooth="yes"/>
			<point x="159" y="89"/>
			<point x="162" y="110"/>
			<point x="168" y="137" type="curve" smooth="yes"/>
			<point x="288" y="732" type="line"/>
			<point x="277" y="740" type="line"/>
			<point x="105" y="690" type="line"/>
			<point x="101" y="661" type="line"/>
			<point x="218" y="653" type="line"/>
			<point x="199" y="684" type="line"/>
			<point x="190" y="615"/>
			<point x="177" y="546"/>
			<point x="163" y="477" type="curve" smooth="yes"/>
			<point x="91" y="112" type="line" smooth="yes"/>
			<point x="85" y="77"/>
			<point x="81" y="59"/>
			<point x="81" y="45" type="curve" smooth="yes"/>
			<point x="81" y="6"/>
			<point x="107" y="-13"/>
		</contour>
		<contour>
			<point name="aboveLC" x="235" y="738" type="move"/>
		</contour>
		<contour>
			<point name="belowLC" x="138" y="-22" type="move"/>
		</contour>
	</outline>
</glyph>
<glyph name="m" format="2">
	<unicode hex="006D"/>
	<advance width="818"/>
	<outline>
		<contour>
			<point x="634" y="-13" type="curve" smooth="yes"/>
			<point x="705" y="-13"/>
			<point x="762" y="48"/>
			<point x="806" y="109" type="curve"/>
			<point x="782" y="128" type="line"/>
			<point x="742" y="80"/>
			<point x="711" y="56"/>
			<point x="684" y="56" type="curve" smooth="yes"/>
			<point x="673" y="56"/>
			<point x="664" y="63"/>
			<point x="664" y="77" type="curve" smooth="yes"/>
			<point x="664" y="87"/>
			<point x="670" y="107"/>
			<point x="677" y="135" type="curve" smooth="yes"/>
			<point x="722" y="320" type="line" smooth="yes"/>
			<point x="730" y="353"/>
			<point x="739" y="386"/>
			<point x="739" y="418" type="curve" smooth="yes"/>
			<point x="739" y="464"/>
			<point x="717" y="487"/>
			<point x="675" y="487" type="curve" smooth="yes"/>
			<point x="611" y="487"/>
			<point x="527" y="428"/>
			<point x="461" y="360" type="curve"/>
			<point x="456" y="360" type="line"/>
			<point x="456" y="322" type="line"/>
			<point x="533" y="387"/>
			<point x="587" y="420"/>
			<point x="623" y="420" type="curve" smooth="yes"/>
			<point x="646" y="420"/>
			<point x="658" y="409"/>
			<point x="658" y="374" type="curve" smooth="yes"/>
			<point x="658" y="354"/>
			<point x="650" y="321"/>
			<point x="642" y="287" type="curve" smooth="yes"/>
			<point x="599" y="111" type="line" smooth="yes"/>
			<point x="589" y="70"/>
			<point x="583" y="53"/>
			<point x="583" y="30" type="curve" smooth="yes"/>
			<point x="583" y="4"/>
			<point x="602" y="-13"/>
		</contour>
		<contour>
			<point x="135" y="0" type="line"/>
			<point x="148" y="71"/>
			<point x="160" y="140"/>
			<point x="175" y="210" type="curve" smooth="yes"/>
			<point x="206" y="352" type="line"/>
			<point x="206" y="354" type="line"/>
			<point x="231" y="477" type="line"/>
			<point x="218" y="487" type="line"/>
			<point x="48" y="436" type="line"/>
			<point x="44" y="407" type="line"/>
			<point x="164" y="400" type="line"/>
			<point x="146" y="414" type="line"/>
			<point x="58" y="0" type="line"/>
			<point x="68" y="-8" type="line"/>
		</contour>
		<contour>
			<point x="400" y="0" type="line"/>
			<point x="413" y="71"/>
			<point x="426" y="140"/>
			<point x="441" y="210" type="curve" smooth="yes"/>
			<point x="471" y="349" type="line"/>
			<point x="473" y="357" type="line" smooth="yes"/>
			<point x="477" y="378"/>
			<point x="482" y="399"/>
			<point x="482" y="418" type="curve" smooth="yes"/>
			<point x="482" y="464"/>
			<point x="460" y="487"/>
			<point x="419" y="487" type="curve" smooth="yes"/>
			<point x="352" y="487"/>
			<point x="262" y="428"/>
			<point x="195" y="359" type="curve"/>
			<point x="190" y="359" type="line"/>
			<point x="190" y="322" type="line"/>
			<point x="269" y="388"/>
			<point x="329" y="420"/>
			<point x="367" y="420" type="curve" smooth="yes"/>
			<point x="389" y="420"/>
			<point x="401" y="409"/>
			<point x="401" y="377" type="curve" smooth="yes"/>
			<point x="401" y="361"/>
			<point x="397" y="343"/>
			<point x="394" y="326" type="curve" smooth="yes"/>
			<point x="325" y="0" type="line"/>
			<point x="335" y="-8" type="line"/>
		</contour>
	</outline>
	<anchor name="aboveLC" x="439" y="494"/>
	<anchor name="belowLC" x="365" y="-20"/>
</glyph>
<glyph name="n" format="2">
	<unicode hex="006E"/>
	<advance width="563"/>
	<outline>
		<contour>
			<point x="346" y="30" type="curve" smooth="yes"/>
			<point x="346" y="4"/>
			<point x="365" y="-13"/>
			<point x="396" y="-13" type="curve" smooth="yes"/>
			<point x="465" y="-13"/>
			<point x="530" y="50"/>
			<point x="569" y="109" type="curve"/>
			<point x="545" y="128" type="line"/>
			<point x="509" y="83"/>
			<point x="471" y="56"/>
			<point x="446" y="56" type="curve" smooth="yes"/>
			<point x="435" y="56"/>
			<point x="427" y="63"/>
			<point x="427" y="77" type="curve" smooth="yes"/>
			<point x="427" y="87"/>
			<point x="433" y="107"/>
			<point x="440" y="135" type="curve" smooth="yes"/>
			<point x="485" y="320" type="line" smooth="yes"/>
			<point x="493" y="353"/>
			<point x="501" y="386"/>
			<point x="501" y="418" type="curve" smooth="yes"/>
			<point x="501" y="464"/>
			<point x="479" y="487"/>
			<point x="437" y="487" type="curve" smooth="yes"/>
			<point x="371" y="487"/>
			<point x="280" y="428"/>
			<point x="213" y="359" type="curve"/>
			<point x="208" y="322" type="line"/>
			<point x="287" y="388"/>
			<point x="348" y="420"/>
			<point x="386" y="420" type="curve" smooth="yes"/>
			<point x="408" y="420"/>
			<point x="421" y="409"/>
			<point x="421" y="374" type="curve" smooth="yes"/>
			<point x="421" y="354"/>
			<point x="413" y="321"/>
			<point x="405" y="287" type="curve" smooth="yes"/>
			<point x="362" y="111" type="line" smooth="yes"/>
			<point x="352" y="70"/>
			<point x="346" y="53"/>
		</contour>
		<contour>
			<point x="153" y="0" type="line"/>
			<point x="166" y="71"/>
			<point x="178" y="140"/>
			<point x="193" y="210" type="curve" smooth="yes"/>
			<point x="224" y="352" type="line"/>
			<point x="249" y="477" type="line"/>
			<point x="236" y="487" type="line"/>
			<point x="66" y="436" type="line"/>
			<point x="62" y="407" type="line"/>
			<point x="182" y="400" type="line"/>
			<point x="164" y="414" type="line"/>
			<point x="76" y="0" type="line"/>
			<point x="86" y="-8" type="line"/>
		</contour>
	</outline>
	<anchor name="aboveLC" x="338" y="506"/>
	<anchor name="belowLC" x="244" y="-12"/>
</glyph>
<glyph name="o" format="2">
	<unicode hex="006F"/>
	<advance width="488"/>
	<outline>
		<contour>
			<point x="202" y="-13" type="curve" smooth="yes"/>
			<point x="343" y="-13"/>
			<point x="459" y="138"/>
			<point x="459" y="312" type="curve" smooth="yes"/>
			<point x="459" y="425"/>
			<point x="391" y="487"/>
			<point x="297" y="487" type="curve" smooth="yes"/>
			<point x="155" y="487"/>
			<point x="36" y="343"/>
			<point x="36" y="163" type="curve" smooth="yes"/>
			<point x="36" y="49"/>
			<point x="110" y="-13"/>
		</contour>
		<contour>
			<point x="214" y="27" type="curve" smooth="yes"/>
			<point x="158" y="27"/>
			<point x="117" y="70"/>
			<point x="117" y="175" type="curve" smooth="yes"/>
			<point x="117" y="324"/>
			<point x="191" y="447"/>
			<point x="286" y="447" type="curve" smooth="yes"/>
			<point x="340" y="447"/>
			<point x="378" y="405"/>
			<point x="378" y="297" type="curve" smooth="yes"/>
			<point x="378" y="163"/>
			<point x="312" y="27"/>
		</contour>
	</outline>
	<anchor name="aboveLC" x="297" y="494"/>
	<anchor name="belowLC" x="185" y="-20"/>
	<anchor name="hornLC" x="388" y="388"/>
	<anchor name="ogonek" x="259" y="0"/>
</glyph>
<glyph name="p" format="1">
	<unicode hex="0070"/>
	<advance width="513"/>
	<outline>
		<contour>
			<point x="25" y="-240" type="line"/>
			<point x="104" y="-240" type="line"/>
			<point x="115" y="-172"/>
			<point x="127" y="-106"/>
			<point x="153" y="22" type="curve"/>
			<point x="157" y="40" type="line"/>
			<point x="250" y="477" type="line"/>
			<point x="237" y="488" type="line"/>
			<point x="66" y="436" type="line"/>
			<point x="62" y="407" type="line"/>
			<point x="181" y="399" type="line"/>
			<point x="163" y="414" type="line"/>
		</contour>
		<contour>
			<point x="103" y="44" type="line"/>
			<point x="136" y="3"/>
			<point x="165" y="-13"/>
			<point x="206" y="-13" type="curve" smooth="yes"/>
			<point x="350" y="-13"/>
			<point x="515" y="195"/>
			<point x="515" y="364" type="curve" smooth="yes"/>
			<point x="515" y="455"/>
			<point x="473" y="488"/>
			<point x="424" y="488" type="curve" smooth="yes"/>
			<point x="351" y="488"/>
			<point x="243" y="414"/>
			<point x="180" y="296" type="curve"/>
			<point x="191" y="290" type="line"/>
			<point x="263" y="373"/>
			<point x="329" y="420"/>
			<point x="376" y="420" type="curve" smooth="yes"/>
			<point x="414" y="420"/>
			<point x="436" y="388"/>
			<point x="436" y="323" type="curve" smooth="yes"/>
			<point x="436" y="255"/>
			<point x="412" y="183"/>
			<point x="371" y="131" type="curve" smooth="yes"/>
			<point x="337" y="86"/>
			<point x="291" y="55"/>
			<point x="241" y="55" type="curve" smooth="yes"/>
			<point x="213" y="55"/>
			<point x="179" y="67"/>
			<point x="145" y="102" type="curve"/>
		</contour>
		<contour>
			<point x="-58" y="-240" type="line"/>
			<point x="195" y="-240" type="line"/>
			<point x="203" y="-206" type="line"/>
			<point x="84" y="-188" type="line"/>
			<point x="64" y="-188" type="line"/>
			<point x="-51" y="-206" type="line"/>
		</contour>
		<contour>
			<point name="aboveLC" x="324" y="507" type="move"/>
		</contour>
		<contour>
			<point name="belowLC" x="68" y="-251" type="move"/>
		</contour>
	</outline>
</glyph>
<glyph name="q" format="1">
	<unicode hex="0071"/>
	<advance width="489"/>
	<outline>
		<contour>
			<point x="138" y="-13" type="curve" smooth="yes"/>
			<point x="209" y="-13"/>
			<point x="318" y="66"/>
			<point x="382" y="168" type="curve"/>
			<point x="374" y="191" type="line"/>
			<point x="291" y="90"/>
			<point x="229" y="57"/>
			<point x="187" y="57" type="curve" smooth="yes"/>
			<point x="145" y="57"/>
			<point x="125" y="91"/>
			<point x="125" y="148" type="curve" smooth="yes"/>
			<point x="125" y="232"/>
			<point x="159" y="312"/>
			<point x="208" y="362" type="curve" smooth="yes"/>
			<point x="243" y="398"/>
			<point x="286" y="421"/>
			<point x="328" y="421" type="curve" smooth="yes"/>
			<point x="355" y="421"/>
			<point x="382" y="412"/>
			<point x="416" y="383" type="curve"/>
			<point x="457" y="429" type="line"/>
			<point x="424" y="471"/>
			<point x="400" y="488"/>
			<point x="360" y="488" type="curve" smooth="yes"/>
			<point x="220" y="488"/>
			<point x="47" y="279"/>
			<point x="47" y="114" type="curve" smooth="yes"/>
			<point x="47" y="22"/>
			<point x="88" y="-13"/>
		</contour>
		<contour>
			<point x="168" y="-240" type="line"/>
			<point x="421" y="-240" type="line"/>
			<point x="429" y="-206" type="line"/>
			<point x="312" y="-188" type="line"/>
			<point x="292" y="-188" type="line"/>
			<point x="175" y="-206" type="line"/>
		</contour>
		<contour>
			<point x="479" y="479" type="line"/>
			<point x="462" y="488" type="line"/>
			<point x="397" y="442" type="line"/>
			<point x="332" y="129" type="line"/>
			<point x="329" y="114" type="line"/>
			<point x="255" y="-240" type="line"/>
			<point x="334" y="-240" type="line"/>
			<point x="345" y="-172"/>
			<point x="357" y="-106"/>
			<point x="371" y="-39" type="curve" smooth="yes"/>
		</contour>
		<contour>
			<point name="aboveLC" x="369" y="507" type="move"/>
		</contour>
		<contour>
			<point name="belowLC" x="291" y="-251" type="move"/>
		</contour>
	</outline>
</glyph>
<glyph name="r" format="1">
	<unicode hex="0072"/>
	<advance width="401"/>
	<outline>
		<contour>
			<point x="202" y="254" type="line"/>
			<point x="246" y="339"/>
			<point x="292" y="404"/>
			<point x="355" y="446" type="curve"/>
			<point x="305" y="449" type="line"/>
			<point x="317" y="438" type="line" smooth="yes"/>
			<point x="339" y="416"/>
			<point x="367" y="400"/>
			<point x="389" y="400" type="curve" smooth="yes"/>
			<point x="422" y="400"/>
			<point x="440" y="424"/>
			<point x="441" y="457" type="curve"/>
			<point x="428" y="479"/>
			<point x="403" y="488"/>
			<point x="375" y="488" type="curve" smooth="yes"/>
			<point x="311" y="488"/>
			<point x="246" y="391"/>
			<point x="202" y="302" type="curve"/>
		</contour>
		<contour>
			<point x="76" y="0" type="line"/>
			<point x="86" y="-8" type="line"/>
			<point x="154" y="0" type="line"/>
			<point x="168" y="71"/>
			<point x="180" y="140"/>
			<point x="195" y="210" type="curve" smooth="yes"/>
			<point x="216" y="308" type="line"/>
			<point x="221" y="328" type="line"/>
			<point x="245" y="477" type="line"/>
			<point x="232" y="488" type="line"/>
			<point x="66" y="436" type="line"/>
			<point x="62" y="407" type="line"/>
			<point x="182" y="399" type="line"/>
			<point x="163" y="414" type="line"/>
		</contour>
		<contour>
			<point name="aboveLC" x="291" y="507" type="move"/>
		</contour>
		<contour>
			<point name="belowLC" x="114" y="-22" type="move"/>
		</contour>
	</outline>
</glyph>
<glyph name="s" format="1">
	<unicode hex="0073"/>
	<advance width="360"/>
	<outline>
		<contour>
			<point x="136" y="-4" type="line"/>
			<point x="120" y="65" type="line" smooth="yes"/>
			<point x="114" y="93"/>
			<point x="101" y="109"/>
			<point x="73" y="109" type="curve" smooth="yes"/>
			<point x="56" y="109"/>
			<point x="41" y="98"/>
			<point x="36" y="81" type="curve"/>
			<point x="43" y="21"/>
			<point x="83" y="-13"/>
			<point x="161" y="-13" type="curve" smooth="yes"/>
			<point x="261" y="-13"/>
			<point x="329" y="46"/>
			<point x="329" y="135" type="curve" smooth="yes"/>
			<point x="329" y="187"/>
			<point x="310" y="216"/>
			<point x="247" y="262" type="curve" smooth="yes"/>
			<point x="190" y="304"/>
			<point x="170" y="322"/>
			<point x="170" y="366" type="curve" smooth="yes"/>
			<point x="170" y="411"/>
			<point x="200" y="452"/>
			<point x="269" y="452" type="curve" smooth="yes"/>
			<point x="285" y="452"/>
			<point x="295" y="450"/>
			<point x="305" y="447" type="curve"/>
			<point x="274" y="474" type="line"/>
			<point x="293" y="418" type="line" smooth="yes"/>
			<point x="303" y="388"/>
			<point x="320" y="371"/>
			<point x="343" y="371" type="curve" smooth="yes"/>
			<point x="362" y="371"/>
			<point x="376" y="380"/>
			<point x="382" y="399" type="curve"/>
			<point x="367" y="464"/>
			<point x="322" y="487"/>
			<point x="255" y="487" type="curve" smooth="yes"/>
			<point x="166" y="487"/>
			<point x="103" y="425"/>
			<point x="103" y="340" type="curve" smooth="yes"/>
			<point x="103" y="284"/>
			<point x="142" y="248"/>
			<point x="196" y="208" type="curve" smooth="yes"/>
			<point x="250" y="169"/>
			<point x="260" y="145"/>
			<point x="260" y="113" type="curve" smooth="yes"/>
			<point x="260" y="59"/>
			<point x="217" y="22"/>
			<point x="146" y="22" type="curve" smooth="yes"/>
			<point x="129" y="22"/>
			<point x="120" y="24"/>
			<point x="100" y="31" type="curve"/>
		</contour>
		<contour>
			<point name="aboveLC" x="251" y="506" type="move"/>
		</contour>
		<contour>
			<point name="baseLC" x="122" y="0" type="move"/>
		</contour>
		<contour>
			<point name="belowLC" x="119" y="-22" type="move"/>
		</contour>
	</outline>
</glyph>
<glyph name="t" format="2">
	<unicode hex="0074"/>
	<advance width="329"/>
	<outline>
		<contour>
			<point x="81" y="111" type="line" smooth="yes"/>
			<point x="73" y="70"/>
			<point x="72" y="53"/>
			<point x="72" y="38" type="curve" smooth="yes"/>
			<point x="72" y="4"/>
			<point x="98" y="-13"/>
			<point x="127" y="-13" type="curve" smooth="yes"/>
			<point x="195" y="-13"/>
			<point x="256" y="49"/>
			<point x="297" y="109" type="curve"/>
			<point x="273" y="128" type="line"/>
			<point x="232" y="80"/>
			<point x="202" y="56"/>
			<point x="175" y="56" type="curve" smooth="yes"/>
			<point x="163" y="56"/>
			<point x="151" y="64"/>
			<point x="151" y="79" type="curve" smooth="yes"/>
			<point x="151" y="89"/>
			<point x="154" y="110"/>
			<point x="160" y="137" type="curve" smooth="yes"/>
			<point x="260" y="609" type="line"/>
			<point x="209" y="609" type="line"/>
			<point x="155" y="454" type="line"/>
		</contour>
		<contour>
			<point x="47" y="425" type="line"/>
			<point x="185" y="425" type="line"/>
			<point x="350" y="420" type="line"/>
			<point x="357" y="474" type="line"/>
			<point x="190" y="474" type="line"/>
			<point x="190" y="477" type="line"/>
			<point x="54" y="465" type="line"/>
		</contour>
	</outline>
	<anchor name="aboveLC" x="225" y="589"/>
	<anchor name="belowLC" x="116" y="-20"/>
	<anchor name="baseLC" x="124" y="0"/>
</glyph>
<glyph name="v" format="2">
	<unicode hex="0076"/>
	<advance width="478"/>
	<outline>
		<contour>
			<point x="160" y="-2" type="curve"/>
			<point x="167" y="-7" type="line"/>
			<point x="196" y="-4" type="line"/>
			<point x="298" y="100"/>
			<point x="390" y="221"/>
			<point x="437" y="310" type="curve" smooth="yes"/>
			<point x="485" y="399"/>
			<point x="487" y="425"/>
			<point x="487" y="446" type="curve" smooth="yes"/>
			<point x="487" y="462"/>
			<point x="486" y="468"/>
			<point x="482" y="474" type="curve"/>
			<point x="476" y="481"/>
			<point x="462" y="487"/>
			<point x="443" y="487" type="curve" smooth="yes"/>
			<point x="411" y="487"/>
			<point x="390" y="466"/>
			<point x="390" y="416" type="curve" smooth="yes"/>
			<point x="390" y="406"/>
			<point x="392" y="390"/>
			<point x="394" y="377" type="curve"/>
			<point x="407" y="307" type="line"/>
			<point x="415" y="368" type="line"/>
			<point x="409" y="356"/>
			<point x="404" y="344"/>
			<point x="398" y="332" type="curve" smooth="yes"/>
			<point x="346" y="235"/>
			<point x="293" y="155"/>
			<point x="216" y="66" type="curve"/>
			<point x="227" y="65" type="line"/>
			<point x="227" y="186"/>
			<point x="223" y="314"/>
			<point x="208" y="408" type="curve" smooth="yes"/>
			<point x="199" y="463"/>
			<point x="182" y="487"/>
			<point x="141" y="487" type="curve" smooth="yes"/>
			<point x="94" y="487"/>
			<point x="50" y="446"/>
			<point x="15" y="368" type="curve"/>
			<point x="38" y="352" type="line"/>
			<point x="73" y="404"/>
			<point x="88" y="418"/>
			<point x="106" y="418" type="curve" smooth="yes"/>
			<point x="120" y="418"/>
			<point x="129" y="411"/>
			<point x="134" y="371" type="curve" smooth="yes"/>
			<point x="148" y="265"/>
			<point x="156" y="155"/>
		</contour>
	</outline>
	<anchor name="aboveLC" x="294" y="494"/>
	<anchor name="belowLC" x="179" y="-20"/>
</glyph>
<glyph name="w" format="1">
	<unicode hex="0077"/>
	<advance width="729"/>
	<outline>
		<contour>
			<point x="175" y="-2" type="curve"/>
			<point x="182" y="-7" type="line"/>
			<point x="212" y="-4" type="line"/>
			<point x="314" y="111"/>
			<point x="412" y="298"/>
			<point x="457" y="388" type="curve"/>
			<point x="417" y="350" type="line"/>
			<point x="418" y="336"/>
			<point x="433" y="43"/>
			<point x="435" y="-2" type="curve"/>
			<point x="442" y="-7" type="line"/>
			<point x="471" y="-4" type="line"/>
			<point x="574" y="103"/>
			<point x="658" y="219"/>
			<point x="705" y="310" type="curve" smooth="yes"/>
			<point x="751" y="396"/>
			<point x="756" y="423"/>
			<point x="756" y="444" type="curve" smooth="yes"/>
			<point x="756" y="460"/>
			<point x="754" y="468"/>
			<point x="750" y="474" type="curve"/>
			<point x="744" y="481"/>
			<point x="733" y="486"/>
			<point x="717" y="487" type="curve" smooth="yes"/>
			<point x="686" y="487"/>
			<point x="657" y="466"/>
			<point x="657" y="416" type="curve" smooth="yes"/>
			<point x="657" y="407"/>
			<point x="659" y="387"/>
			<point x="662" y="375" type="curve" smooth="yes"/>
			<point x="678" y="304" type="line"/>
			<point x="682" y="365" type="line"/>
			<point x="676" y="353"/>
			<point x="672" y="344"/>
			<point x="665" y="331" type="curve" smooth="yes"/>
			<point x="612" y="234"/>
			<point x="564" y="164"/>
			<point x="491" y="74" type="curve"/>
			<point x="502" y="68" type="line"/>
			<point x="502" y="84"/>
			<point x="488" y="454"/>
			<point x="487" y="475" type="curve"/>
			<point x="446" y="475" type="line"/>
			<point x="381" y="320"/>
			<point x="304" y="183"/>
			<point x="225" y="73" type="curve"/>
			<point x="242" y="69" type="line"/>
			<point x="243" y="184"/>
			<point x="238" y="332"/>
			<point x="223" y="420" type="curve" smooth="yes"/>
			<point x="215" y="468"/>
			<point x="198" y="487"/>
			<point x="156" y="487" type="curve" smooth="yes"/>
			<point x="111" y="487"/>
			<point x="68" y="446"/>
			<point x="33" y="368" type="curve"/>
			<point x="56" y="352" type="line"/>
			<point x="88" y="400"/>
			<point x="105" y="418"/>
			<point x="124" y="418" type="curve" smooth="yes"/>
			<point x="139" y="418"/>
			<point x="148" y="413"/>
			<point x="152" y="374" type="curve" smooth="yes"/>
			<point x="165" y="276"/>
			<point x="174" y="157"/>
		</contour>
		<contour>
			<point name="aboveLC" x="456" y="506" type="move"/>
		</contour>
		<contour>
			<point name="belowLC" x="325" y="-22" type="move"/>
		</contour>
	</outline>
</glyph>
<glyph name="x" format="1">
	<unicode hex="0078"/>
	<advance width="520"/>
	<outline>
		<contour>
			<point x="-4" y="59" type="curve"/>
			<point x="0" y="10"/>
			<point x="37" y="-13"/>
			<point x="77" y="-13" type="curve" smooth="yes"/>
			<point x="105" y="-13"/>
			<point x="125" y="-4"/>
			<point x="148" y="22" type="curve" smooth="yes"/>
			<point x="190" y="73"/>
			<point x="236" y="141"/>
			<point x="289" y="229" type="curve"/>
			<point x="275" y="262" type="line"/>
			<point x="225" y="188"/>
			<point x="176" y="117"/>
			<point x="120" y="57" type="curve" smooth="yes"/>
			<point x="109" y="45"/>
			<point x="99" y="36"/>
			<point x="86" y="26" type="curve"/>
			<point x="117" y="12" type="line"/>
			<point x="91" y="58" type="line" smooth="yes"/>
			<point x="73" y="89"/>
			<point x="61" y="95"/>
			<point x="39" y="95" type="curve" smooth="yes"/>
			<point x="22" y="95"/>
			<point x="0" y="82"/>
		</contour>
		<contour>
			<point x="297" y="59" type="line" smooth="yes"/>
			<point x="315" y="1"/>
			<point x="336" y="-13"/>
			<point x="367" y="-13" type="curve" smooth="yes"/>
			<point x="421" y="-13"/>
			<point x="480" y="38"/>
			<point x="528" y="109" type="curve"/>
			<point x="502" y="129" type="line"/>
			<point x="467" y="84"/>
			<point x="432" y="56"/>
			<point x="407" y="56" type="curve" smooth="yes"/>
			<point x="379" y="56"/>
			<point x="366" y="68"/>
			<point x="351" y="122" type="curve" smooth="yes"/>
			<point x="271" y="401" type="line" smooth="yes"/>
			<point x="253" y="465"/>
			<point x="233" y="488"/>
			<point x="194" y="488" type="curve" smooth="yes"/>
			<point x="152" y="488"/>
			<point x="106" y="452"/>
			<point x="69" y="370" type="curve"/>
			<point x="92" y="352" type="line"/>
			<point x="125" y="409"/>
			<point x="152" y="419"/>
			<point x="166" y="419" type="curve" smooth="yes"/>
			<point x="187" y="419"/>
			<point x="194" y="407"/>
			<point x="206" y="365" type="curve" smooth="yes"/>
		</contour>
		<contour>
			<point x="294" y="220" type="line"/>
			<point x="338" y="285"/>
			<point x="389" y="357"/>
			<point x="443" y="413" type="curve" smooth="yes"/>
			<point x="455" y="427"/>
			<point x="468" y="439"/>
			<point x="481" y="449" type="curve"/>
			<point x="438" y="454" type="line"/>
			<point x="462" y="419" type="line" smooth="yes"/>
			<point x="481" y="391"/>
			<point x="498" y="386"/>
			<point x="518" y="386" type="curve" smooth="yes"/>
			<point x="541" y="386"/>
			<point x="560" y="405"/>
			<point x="560" y="434" type="curve"/>
			<point x="552" y="470"/>
			<point x="519" y="488"/>
			<point x="493" y="488" type="curve" smooth="yes"/>
			<point x="461" y="488"/>
			<point x="439" y="477"/>
			<point x="410" y="442" type="curve" smooth="yes"/>
			<point x="381" y="406"/>
			<point x="331" y="339"/>
			<point x="279" y="252" type="curve"/>
		</contour>
		<contour>
			<point name="aboveLC" x="339" y="507" type="move"/>
		</contour>
		<contour>
			<point name="belowLC" x="224" y="-22" type="move"/>
		</contour>
	</outline>
</glyph>
<glyph name="y" format="1">
	<unicode hex="0079"/>
	<advance width="477"/>
	<outline>
		<contour>
			<point x="-101" y="-192" type="curve"/>
			<point x="-98" y="-226"/>
			<point x="-70" y="-250"/>
			<point x="-23" y="-250" type="curve" smooth="yes"/>
			<point x="30" y="-250"/>
			<point x="88" y="-209"/>
			<point x="152" y="-140" type="curve" smooth="yes"/>
			<point x="202" y="-88"/>
			<point x="237" y="-42"/>
			<point x="274" y="13" type="curve" smooth="yes"/>
			<point x="322" y="82"/>
			<point x="363" y="159"/>
			<point x="400" y="226" type="curve" smooth="yes"/>
			<point x="438" y="293"/>
			<point x="459" y="334"/>
			<point x="480" y="377" type="curve" smooth="yes"/>
			<point x="501" y="417"/>
			<point x="506" y="433"/>
			<point x="506" y="458" type="curve" smooth="yes"/>
			<point x="506" y="479"/>
			<point x="491" y="493"/>
			<point x="465" y="493" type="curve" smooth="yes"/>
			<point x="435" y="493"/>
			<point x="416" y="481"/>
			<point x="394" y="387" type="curve" smooth="yes"/>
			<point x="363" y="248"/>
			<point x="322" y="163"/>
			<point x="248" y="29" type="curve" smooth="yes"/>
			<point x="196" y="-37"/>
			<point x="170" y="-74"/>
			<point x="129" y="-111" type="curve" smooth="yes"/>
			<point x="85" y="-152"/>
			<point x="39" y="-187"/>
			<point x="-14" y="-212" type="curve"/>
			<point x="65" y="-203" type="line"/>
			<point x="36" y="-182" type="line" smooth="yes"/>
			<point x="7" y="-161"/>
			<point x="-16" y="-146"/>
			<point x="-46" y="-146" type="curve" smooth="yes"/>
			<point x="-74" y="-146"/>
			<point x="-96" y="-163"/>
		</contour>
		<contour>
			<point x="256" y="29" type="line"/>
			<point x="252" y="122"/>
			<point x="245" y="238"/>
			<point x="232" y="355" type="curve" smooth="yes"/>
			<point x="221" y="466"/>
			<point x="200" y="488"/>
			<point x="161" y="488" type="curve" smooth="yes"/>
			<point x="119" y="488"/>
			<point x="73" y="454"/>
			<point x="33" y="369" type="curve"/>
			<point x="56" y="352" type="line"/>
			<point x="92" y="406"/>
			<point x="106" y="418"/>
			<point x="122" y="418" type="curve" smooth="yes"/>
			<point x="141" y="418"/>
			<point x="146" y="403"/>
			<point x="161" y="278" type="curve" smooth="yes"/>
			<point x="178" y="153"/>
			<point x="191" y="71"/>
			<point x="198" y="-40" type="curve"/>
		</contour>
		<contour>
			<point name="aboveLC" x="329" y="497" type="move"/>
		</contour>
		<contour>
			<point name="belowLC" x="1" y="-254" type="move"/>
		</contour>
	</outline>
</glyph>
<glyph name="z" format="1">
	<unicode hex="007A"/>
	<advance width="458"/>
	<outline>
		<contour>
			<point x="281" y="-23" type="curve" smooth="yes"/>
			<point x="358" y="-23"/>
			<point x="442" y="50"/>
			<point x="442" y="123" type="curve" smooth="yes"/>
			<point x="442" y="148"/>
			<point x="430" y="175"/>
			<point x="408" y="183" type="curve"/>
			<point x="380" y="180"/>
			<point x="358" y="161"/>
			<point x="358" y="129" type="curve" smooth="yes"/>
			<point x="358" y="107"/>
			<point x="370" y="90"/>
			<point x="385" y="72" type="curve" smooth="yes"/>
			<point x="399" y="55" type="line"/>
			<point x="414" y="88" type="line"/>
			<point x="385" y="63"/>
			<point x="355" y="48"/>
			<point x="315" y="48" type="curve" smooth="yes"/>
			<point x="271" y="48"/>
			<point x="220" y="67"/>
			<point x="174" y="100" type="curve" smooth="yes"/>
			<point x="126" y="135" type="line"/>
			<point x="99" y="94" type="line"/>
			<point x="137" y="49" type="line" smooth="yes"/>
			<point x="173" y="4"/>
			<point x="232" y="-23"/>
		</contour>
		<contour>
			<point x="85" y="0" type="line"/>
			<point x="115" y="89" type="line"/>
			<point x="203" y="174"/>
			<point x="309" y="260"/>
			<point x="399" y="353" type="curve" smooth="yes"/>
			<point x="451" y="406"/>
			<point x="484" y="451"/>
			<point x="495" y="476" type="curve"/>
			<point x="483" y="486" type="line"/>
			<point x="418" y="473" type="line"/>
			<point x="384" y="390" type="line"/>
			<point x="294" y="292"/>
			<point x="180" y="197"/>
			<point x="89" y="108" type="curve" smooth="yes"/>
			<point x="47" y="67"/>
			<point x="27" y="36"/>
			<point x="7" y="0" type="curve"/>
			<point x="15" y="-6" type="line"/>
		</contour>
		<contour>
			<point x="67" y="282" type="line"/>
			<point x="109" y="276" type="line"/>
			<point x="164" y="455" type="line"/>
			<point x="109" y="421" type="line"/>
			<point x="219" y="396"/>
			<point x="284" y="379"/>
			<point x="375" y="348" type="curve"/>
			<point x="414" y="399" type="line"/>
			<point x="324" y="438"/>
			<point x="249" y="463"/>
			<point x="160" y="488" type="curve"/>
			<point x="90" y="432" type="line"/>
		</contour>
		<contour>
			<point name="aboveLC" x="284" y="507" type="move"/>
		</contour>
		<contour>
			<point name="belowLC" x="150" y="-22" type="move"/>
		</contour>
	</outline>
</glyph>
<glyph name="braceleft" format="1">
	<unicode hex="007B"/>
	<advance width="378"/>
	<outline>
		<contour>
			<point x="67" y="258" type="line"/>
			<point x="137" y="249"/>
			<point x="166" y="224"/>
			<point x="166" y="184" type="curve" smooth="yes"/>
			<point x="166" y="118"/>
			<point x="99" y="21"/>
			<point x="99" y="-67" type="curve" smooth="yes"/>
			<point x="99" y="-128"/>
			<point x="144" y="-159"/>
			<point x="226" y="-159" type="curve" smooth="yes"/>
			<point x="277" y="-159" type="line"/>
			<point x="285" y="-119" type="line"/>
			<point x="252" y="-116" type="line" smooth="yes"/>
			<point x="195" y="-111"/>
			<point x="170" y="-97"/>
			<point x="170" y="-59" type="curve" smooth="yes"/>
			<point x="170" y="1"/>
			<point x="217" y="136"/>
			<point x="217" y="192" type="curve" smooth="yes"/>
			<point x="217" y="247"/>
			<point x="184" y="281"/>
			<point x="106" y="283" type="curve"/>
			<point x="104" y="273" type="line"/>
			<point x="197" y="275"/>
			<point x="264" y="328"/>
			<point x="264" y="413" type="curve" smooth="yes"/>
			<point x="264" y="444"/>
			<point x="261" y="507"/>
			<point x="261" y="547" type="curve" smooth="yes"/>
			<point x="261" y="637"/>
			<point x="285" y="669"/>
			<point x="392" y="674" type="curve" smooth="yes"/>
			<point x="415" y="675" type="line"/>
			<point x="422" y="715" type="line"/>
			<point x="384" y="715" type="line" smooth="yes"/>
			<point x="248" y="715"/>
			<point x="191" y="659"/>
			<point x="191" y="552" type="curve" smooth="yes"/>
			<point x="191" y="503"/>
			<point x="206" y="453"/>
			<point x="206" y="420" type="curve" smooth="yes"/>
			<point x="206" y="353"/>
			<point x="171" y="311"/>
			<point x="75" y="298" type="curve"/>
		</contour>
	</outline>
</glyph>
<glyph name="bar" format="2">
	<unicode hex="007C"/>
	<advance width="251"/>
	<outline>
		<contour>
			<point x="113" y="-250" type="line"/>
			<point x="170" y="-250" type="line"/>
			<point x="170" y="750" type="line"/>
			<point x="113" y="750" type="line"/>
		</contour>
	</outline>
</glyph>
<glyph name="asciitilde" format="1">
	<unicode hex="007E"/>
	<advance width="530"/>
	<outline>
		<contour>
			<point x="285" y="366" type="curve" smooth="yes"/>
			<point x="246" y="402"/>
			<point x="212" y="422"/>
			<point x="170" y="422" type="curve" smooth="yes"/>
			<point x="96" y="422"/>
			<point x="56" y="373"/>
			<point x="50" y="282" type="curve"/>
			<point x="100" y="274" type="line"/>
			<point x="109" y="344"/>
			<point x="136" y="365"/>
			<point x="164" y="365" type="curve" smooth="yes"/>
			<point x="191" y="365"/>
			<point x="215" y="354"/>
			<point x="248" y="324" type="curve" smooth="yes"/>
			<point x="287" y="288"/>
			<point x="321" y="268"/>
			<point x="363" y="268" type="curve" smooth="yes"/>
			<point x="437" y="268"/>
			<point x="476" y="317"/>
			<point x="482" y="408" type="curve"/>
			<point x="433" y="416" type="line"/>
			<point x="424" y="346"/>
			<point x="397" y="325"/>
			<point x="369" y="325" type="curve" smooth="yes"/>
			<point x="342" y="325"/>
			<point x="317" y="336"/>
		</contour>
	</outline>
</glyph>
<glyph name="cent" format="1">
	<unicode hex="00A2"/>
	<advance width="500"/>
	<outline>
		<contour>
			<point x="223" y="-115" type="line"/>
			<point x="399" y="749" type="line"/>
			<point x="359" y="749" type="line"/>
			<point x="184" y="-115" type="line"/>
		</contour>
		<component base="c" xOffset="37" yOffset="101"/>
	</outline>
</glyph>
<glyph name="sterling" format="1">
	<unicode hex="00A3"/>
	<advance width="512"/>
	<outline>
		<contour>
			<point x="4" y="0" type="line"/>
			<point x="414" y="0" type="line"/>
			<point x="431" y="82" type="line"/>
			<point x="78" y="82" type="line"/>
			<point x="77" y="66" type="line"/>
			<point x="176" y="127"/>
			<point x="244" y="217"/>
			<point x="244" y="309" type="curve" smooth="yes"/>
			<point x="244" y="361"/>
			<point x="217" y="392"/>
			<point x="217" y="474" type="curve" smooth="yes"/>
			<point x="217" y="546"/>
			<point x="265" y="614"/>
			<point x="352" y="614" type="curve" smooth="yes"/>
			<point x="384" y="614"/>
			<point x="417" y="610"/>
			<point x="458" y="592" type="curve"/>
			<point x="397" y="623" type="line"/>
			<point x="404" y="536" type="line" smooth="yes"/>
			<point x="407" y="484"/>
			<point x="423" y="468"/>
			<point x="454" y="468" type="curve" smooth="yes"/>
			<point x="472" y="468"/>
			<point x="487" y="477"/>
			<point x="499" y="500" type="curve"/>
			<point x="499" y="606"/>
			<point x="440" y="659"/>
			<point x="336" y="659" type="curve" smooth="yes"/>
			<point x="216" y="659"/>
			<point x="130" y="575"/>
			<point x="130" y="477" type="curve" smooth="yes"/>
			<point x="130" y="404"/>
			<point x="179" y="361"/>
			<point x="179" y="306" type="curve" smooth="yes"/>
			<point x="179" y="205"/>
			<point x="114" y="121"/>
			<point x="16" y="59" type="curve"/>
		</contour>
		<contour>
			<point x="68" y="285" type="line"/>
			<point x="375" y="285" type="line"/>
			<point x="385" y="335" type="line"/>
			<point x="79" y="335" type="line"/>
		</contour>
	</outline>
</glyph>
<glyph name="currency" format="1">
	<unicode hex="00A4"/>
	<advance width="502"/>
	<outline>
		<contour>
			<point x="401" y="428" type="line"/>
			<point x="449" y="456" type="line" smooth="yes"/>
			<point x="493" y="482"/>
			<point x="507" y="497"/>
			<point x="507" y="515" type="curve" smooth="yes"/>
			<point x="507" y="535"/>
			<point x="490" y="551"/>
			<point x="470" y="551" type="curve" smooth="yes"/>
			<point x="452" y="551"/>
			<point x="438" y="538"/>
			<point x="411" y="493" type="curve" smooth="yes"/>
			<point x="383" y="446" type="line"/>
		</contour>
		<contour>
			<point x="176" y="329" type="curve" smooth="yes"/>
			<point x="176" y="395"/>
			<point x="225" y="440"/>
			<point x="284" y="440" type="curve" smooth="yes"/>
			<point x="343" y="440"/>
			<point x="392" y="395"/>
			<point x="392" y="329" type="curve" smooth="yes"/>
			<point x="392" y="263"/>
			<point x="343" y="217"/>
			<point x="284" y="217" type="curve" smooth="yes"/>
			<point x="225" y="217"/>
			<point x="176" y="263"/>
		</contour>
		<contour>
			<point x="118" y="329" type="curve" smooth="yes"/>
			<point x="118" y="231"/>
			<point x="195" y="166"/>
			<point x="284" y="166" type="curve" smooth="yes"/>
			<point x="373" y="166"/>
			<point x="449" y="231"/>
			<point x="449" y="329" type="curve" smooth="yes"/>
			<point x="449" y="426"/>
			<point x="373" y="492"/>
			<point x="284" y="492" type="curve" smooth="yes"/>
			<point x="195" y="492"/>
			<point x="118" y="426"/>
		</contour>
		<contour>
			<point x="185" y="446" type="line"/>
			<point x="157" y="493" type="line" smooth="yes"/>
			<point x="130" y="538"/>
			<point x="116" y="551"/>
			<point x="98" y="551" type="curve" smooth="yes"/>
			<point x="78" y="551"/>
			<point x="62" y="535"/>
			<point x="62" y="515" type="curve" smooth="yes"/>
			<point x="62" y="497"/>
			<point x="75" y="482"/>
			<point x="120" y="456" type="curve" smooth="yes"/>
			<point x="167" y="428" type="line"/>
		</contour>
		<contour>
			<point x="167" y="230" type="line"/>
			<point x="120" y="202" type="line" smooth="yes"/>
			<point x="75" y="175"/>
			<point x="62" y="161"/>
			<point x="62" y="143" type="curve" smooth="yes"/>
			<point x="62" y="122"/>
			<point x="78" y="106"/>
			<point x="98" y="106" type="curve" smooth="yes"/>
			<point x="116" y="106"/>
			<point x="130" y="119"/>
			<point x="157" y="164" type="curve" smooth="yes"/>
			<point x="185" y="212" type="line"/>
		</contour>
		<contour>
			<point x="383" y="212" type="line"/>
			<point x="411" y="164" type="line" smooth="yes"/>
			<point x="438" y="119"/>
			<point x="452" y="106"/>
			<point x="470" y="106" type="curve" smooth="yes"/>
			<point x="490" y="106"/>
			<point x="507" y="123"/>
			<point x="507" y="143" type="curve" smooth="yes"/>
			<point x="507" y="161"/>
			<point x="493" y="175"/>
			<point x="449" y="202" type="curve" smooth="yes"/>
			<point x="401" y="230" type="line"/>
		</contour>
	</outline>
</glyph>
<glyph name="yen" format="1">
	<unicode hex="00A5"/>
	<advance width="500"/>
	<outline>
		<contour>
			<point x="52" y="153" type="line"/>
			<point x="450" y="153" type="line"/>
			<point x="461" y="203" type="line"/>
			<point x="62" y="203" type="line"/>
		</contour>
		<contour>
			<point x="74" y="270" type="line"/>
			<point x="472" y="270" type="line"/>
			<point x="483" y="320" type="line"/>
			<point x="84" y="320" type="line"/>
		</contour>
		<contour>
			<point x="216" y="54" type="line"/>
			<point x="81" y="40" type="line"/>
			<point x="73" y="0" type="line"/>
			<point x="358" y="0" type="line"/>
			<point x="367" y="40" type="line"/>
			<point x="237" y="54" type="line"/>
		</contour>
		<contour>
			<point x="183" y="592" type="line"/>
			<point x="193" y="592" type="line"/>
			<point x="310" y="607" type="line"/>
			<point x="318" y="646" type="line"/>
			<point x="80" y="646" type="line"/>
			<point x="72" y="607" type="line"/>
		</contour>
		<contour>
			<point x="495" y="592" type="line"/>
			<point x="501" y="592" type="line"/>
			<point x="588" y="607" type="line"/>
			<point x="596" y="646" type="line"/>
			<point x="408" y="646" type="line"/>
			<point x="400" y="607" type="line"/>
		</contour>
		<contour>
			<point x="179" y="0" type="line"/>
			<point x="260" y="0" type="line"/>
			<point x="273" y="72"/>
			<point x="283" y="128"/>
			<point x="320" y="311" type="curve"/>
			<point x="242" y="311" type="line"/>
		</contour>
		<contour>
			<point x="291" y="239" type="line"/>
			<point x="550" y="646" type="line"/>
			<point x="497" y="646" type="line"/>
			<point x="295" y="321" type="line"/>
			<point x="302" y="321" type="line"/>
			<point x="215" y="646" type="line"/>
			<point x="129" y="646" type="line"/>
			<point x="250" y="239" type="line"/>
		</contour>
	</outline>
</glyph>
<glyph name="brokenbar" format="2">
	<unicode hex="00A6"/>
	<advance width="251"/>
	<outline>
		<contour>
			<point x="113" y="-250" type="line"/>
			<point x="170" y="-250" type="line"/>
			<point x="170" y="200" type="line"/>
			<point x="113" y="200" type="line"/>
		</contour>
		<contour>
			<point x="170" y="320" type="line"/>
			<point x="170" y="750" type="line"/>
			<point x="113" y="750" type="line"/>
			<point x="113" y="320" type="line"/>
		</contour>
	</outline>
</glyph>
<glyph name="section" format="1">
	<unicode hex="00A7"/>
	<advance width="466"/>
	<outline>
		<contour>
			<point x="177" y="-111" type="curve" smooth="yes"/>
			<point x="279" y="-111"/>
			<point x="347" y="-52"/>
			<point x="347" y="29" type="curve" smooth="yes"/>
			<point x="347" y="87"/>
			<point x="327" y="113"/>
			<point x="265" y="160" type="curve" smooth="yes"/>
			<point x="215" y="196" type="line" smooth="yes"/>
			<point x="161" y="236"/>
			<point x="142" y="260"/>
			<point x="142" y="300" type="curve" smooth="yes"/>
			<point x="142" y="357"/>
			<point x="178" y="408"/>
			<point x="291" y="413" type="curve"/>
			<point x="291" y="442" type="line"/>
			<point x="145" y="442"/>
			<point x="76" y="366"/>
			<point x="76" y="284" type="curve" smooth="yes"/>
			<point x="76" y="219"/>
			<point x="112" y="184"/>
			<point x="164" y="145" type="curve" smooth="yes"/>
			<point x="212" y="109" type="line" smooth="yes"/>
			<point x="266" y="71"/>
			<point x="276" y="47"/>
			<point x="276" y="15" type="curve" smooth="yes"/>
			<point x="276" y="-39"/>
			<point x="233" y="-76"/>
			<point x="163" y="-76" type="curve" smooth="yes"/>
			<point x="147" y="-76"/>
			<point x="136" y="-74"/>
			<point x="116" y="-67" type="curve"/>
			<point x="154" y="-102" type="line"/>
			<point x="138" y="-32" type="line" smooth="yes"/>
			<point x="131" y="-4"/>
			<point x="118" y="12"/>
			<point x="89" y="12" type="curve" smooth="yes"/>
			<point x="72" y="12"/>
			<point x="57" y="0"/>
			<point x="52" y="-17" type="curve"/>
			<point x="59" y="-75"/>
			<point x="103" y="-111"/>
		</contour>
		<contour>
			<point x="342" y="686" type="curve" smooth="yes"/>
			<point x="248" y="686"/>
			<point x="189" y="623"/>
			<point x="189" y="545" type="curve" smooth="yes"/>
			<point x="189" y="486"/>
			<point x="227" y="453"/>
			<point x="267" y="423" type="curve" smooth="yes"/>
			<point x="328" y="376" type="line" smooth="yes"/>
			<point x="379" y="338"/>
			<point x="389" y="314"/>
			<point x="389" y="277" type="curve" smooth="yes"/>
			<point x="389" y="222"/>
			<point x="341" y="179"/>
			<point x="232" y="174" type="curve"/>
			<point x="232" y="144" type="line"/>
			<point x="381" y="144"/>
			<point x="456" y="211"/>
			<point x="456" y="297" type="curve" smooth="yes"/>
			<point x="456" y="356"/>
			<point x="433" y="387"/>
			<point x="382" y="425" type="curve" smooth="yes"/>
			<point x="334" y="461" type="line" smooth="yes"/>
			<point x="277" y="503"/>
			<point x="257" y="520"/>
			<point x="257" y="564" type="curve" smooth="yes"/>
			<point x="257" y="609"/>
			<point x="287" y="650"/>
			<point x="356" y="650" type="curve" smooth="yes"/>
			<point x="371" y="650"/>
			<point x="383" y="648"/>
			<point x="392" y="645" type="curve"/>
			<point x="360" y="672" type="line"/>
			<point x="379" y="616" type="line" smooth="yes"/>
			<point x="389" y="585"/>
			<point x="407" y="569"/>
			<point x="430" y="569" type="curve" smooth="yes"/>
			<point x="449" y="569"/>
			<point x="463" y="577"/>
			<point x="469" y="597" type="curve"/>
			<point x="454" y="662"/>
			<point x="409" y="686"/>
		</contour>
	</outline>
</glyph>
<glyph name="copyright" format="1">
	<unicode hex="00A9"/>
	<advance width="756"/>
	<outline>
		<contour>
			<point x="386" y="-15" type="curve" smooth="yes"/>
			<point x="582" y="-15"/>
			<point x="765" y="130"/>
			<point x="765" y="375" type="curve" smooth="yes"/>
			<point x="765" y="570"/>
			<point x="630" y="685"/>
			<point x="444" y="685" type="curve" smooth="yes"/>
			<point x="247" y="685"/>
			<point x="65" y="539"/>
			<point x="65" y="294" type="curve" smooth="yes"/>
			<point x="65" y="99"/>
			<point x="199" y="-15"/>
		</contour>
		<contour>
			<point x="382" y="24" type="curve" smooth="yes"/>
			<point x="227" y="24"/>
			<point x="115" y="125"/>
			<point x="115" y="299" type="curve" smooth="yes"/>
			<point x="115" y="514"/>
			<point x="273" y="645"/>
			<point x="448" y="645" type="curve" smooth="yes"/>
			<point x="602" y="645"/>
			<point x="714" y="543"/>
			<point x="714" y="371" type="curve" smooth="yes"/>
			<point x="714" y="153"/>
			<point x="557" y="24"/>
		</contour>
		<contour>
			<point x="410" y="135" type="curve" smooth="yes"/>
			<point x="451" y="135"/>
			<point x="483" y="147"/>
			<point x="514" y="161" type="curve"/>
			<point x="530" y="254" type="line"/>
			<point x="486" y="254" type="line"/>
			<point x="458" y="161" type="line"/>
			<point x="501" y="193" type="line"/>
			<point x="476" y="180"/>
			<point x="449" y="172"/>
			<point x="421" y="172" type="curve" smooth="yes"/>
			<point x="358" y="172"/>
			<point x="301" y="219"/>
			<point x="301" y="320" type="curve" smooth="yes"/>
			<point x="301" y="421"/>
			<point x="357" y="504"/>
			<point x="454" y="504" type="curve" smooth="yes"/>
			<point x="488" y="504"/>
			<point x="520" y="495"/>
			<point x="540" y="478" type="curve"/>
			<point x="507" y="510" type="line"/>
			<point x="507" y="420" type="line"/>
			<point x="549" y="420" type="line"/>
			<point x="562" y="510" type="line"/>
			<point x="526" y="534"/>
			<point x="496" y="541"/>
			<point x="459" y="541" type="curve" smooth="yes"/>
			<point x="332" y="541"/>
			<point x="239" y="443"/>
			<point x="239" y="314" type="curve" smooth="yes"/>
			<point x="239" y="206"/>
			<point x="311" y="135"/>
		</contour>
	</outline>
</glyph>
<glyph name="logicalnot" format="2">
	<unicode hex="00AC"/>
	<advance width="530"/>
	<outline>
		<contour>
			<point x="36" y="339" type="line"/>
			<point x="439" y="339" type="line"/>
			<point x="423" y="359" type="line"/>
			<point x="423" y="167" type="line"/>
			<point x="480" y="167" type="line"/>
			<point x="480" y="393" type="line"/>
			<point x="36" y="393" type="line"/>
		</contour>
	</outline>
</glyph>
<glyph name="registered" format="1">
	<unicode hex="00AE"/>
	<advance width="444"/>
	<outline>
		<contour>
			<point x="303" y="317" type="curve" smooth="yes"/>
			<point x="424" y="317"/>
			<point x="527" y="396"/>
			<point x="527" y="536" type="curve" smooth="yes"/>
			<point x="527" y="646"/>
			<point x="448" y="712"/>
			<point x="348" y="712" type="curve" smooth="yes"/>
			<point x="229" y="712"/>
			<point x="125" y="632"/>
			<point x="125" y="498" type="curve" smooth="yes"/>
			<point x="125" y="385"/>
			<point x="204" y="317"/>
		</contour>
		<contour>
			<point x="309" y="348" type="curve" smooth="yes"/>
			<point x="228" y="348"/>
			<point x="167" y="408"/>
			<point x="167" y="503" type="curve" smooth="yes"/>
			<point x="167" y="615"/>
			<point x="251" y="681"/>
			<point x="341" y="681" type="curve" smooth="yes"/>
			<point x="423" y="681"/>
			<point x="484" y="622"/>
			<point x="484" y="530" type="curve" smooth="yes"/>
			<point x="484" y="418"/>
			<point x="409" y="348"/>
		</contour>
		<contour>
			<point x="418" y="419" type="curve"/>
			<point x="421" y="434" type="line"/>
			<point x="378" y="439" type="line"/>
			<point x="398" y="427" type="line"/>
			<point x="380" y="479" type="line" smooth="yes"/>
			<point x="371" y="505"/>
			<point x="358" y="517"/>
			<point x="333" y="517" type="curve"/>
			<point x="324" y="511" type="line"/>
			<point x="385" y="511"/>
			<point x="412" y="534"/>
			<point x="412" y="570" type="curve" smooth="yes"/>
			<point x="412" y="603"/>
			<point x="387" y="620"/>
			<point x="348" y="620" type="curve" smooth="yes"/>
			<point x="314" y="620" type="line"/>
			<point x="311" y="603" type="line"/>
			<point x="346" y="603" type="line" smooth="yes"/>
			<point x="363" y="603"/>
			<point x="372" y="593"/>
			<point x="372" y="574" type="curve" smooth="yes"/>
			<point x="372" y="543"/>
			<point x="357" y="525"/>
			<point x="326" y="525" type="curve" smooth="yes"/>
			<point x="296" y="525" type="line"/>
			<point x="294" y="508" type="line"/>
			<point x="315" y="508" type="line" smooth="yes"/>
			<point x="329" y="508"/>
			<point x="332" y="502"/>
			<point x="337" y="487" type="curve" smooth="yes"/>
			<point x="350" y="442" type="line" smooth="yes"/>
			<point x="356" y="421"/>
			<point x="364" y="416"/>
			<point x="387" y="416" type="curve" smooth="yes"/>
			<point x="397" y="416"/>
			<point x="405" y="416"/>
		</contour>
		<contour>
			<point x="246" y="419" type="line"/>
			<point x="288" y="419" type="line"/>
			<point x="328" y="620" type="line"/>
			<point x="286" y="620" type="line"/>
		</contour>
		<contour>
			<point x="257" y="604" type="line"/>
			<point x="298" y="599" type="line"/>
			<point x="302" y="599" type="line"/>
			<point x="306" y="620" type="line"/>
			<point x="260" y="620" type="line"/>
		</contour>
		<contour>
			<point x="221" y="419" type="line"/>
			<point x="313" y="419" type="line"/>
			<point x="316" y="434" type="line"/>
			<point x="275" y="439" type="line"/>
			<point x="267" y="439" type="line"/>
			<point x="224" y="434" type="line"/>
		</contour>
	</outline>
</glyph>
<glyph name="plusminus" format="1">
	<unicode hex="00B1"/>
	<advance width="530"/>
	<outline>
		<contour>
			<point x="251" y="98" type="line"/>
			<point x="312" y="98" type="line"/>
			<point x="312" y="558" type="line"/>
			<point x="251" y="558" type="line"/>
		</contour>
		<contour>
			<point x="517" y="302" type="line"/>
			<point x="517" y="359" type="line"/>
			<point x="45" y="359" type="line"/>
			<point x="45" y="302" type="line"/>
		</contour>
		<contour>
			<point x="517" y="0" type="line"/>
			<point x="517" y="57" type="line"/>
			<point x="45" y="57" type="line"/>
			<point x="45" y="0" type="line"/>
		</contour>
	</outline>
</glyph>
<glyph name="mu.math" format="1">
	<unicode hex="00B5"/>
	<advance width="550"/>
	<outline>
		<contour>
			<point x="10" y="-160" type="line"/>
			<point x="18" y="-176"/>
			<point x="32" y="-192"/>
			<point x="51" y="-191" type="curve" smooth="yes"/>
			<point x="81" y="-190"/>
			<point x="99" y="-178"/>
			<point x="107" y="-103" type="curve" smooth="yes"/>
			<point x="128" y="84" type="line"/>
			<point x="145" y="104" type="line"/>
			<point x="163" y="191"/>
			<point x="185" y="280"/>
			<point x="236" y="477" type="curve"/>
			<point x="228" y="487" type="line"/>
			<point x="145" y="469" type="line"/>
			<point x="86" y="101" type="line"/>
		</contour>
		<contour>
			<point x="223" y="-13" type="curve" smooth="yes"/>
			<point x="291" y="-13"/>
			<point x="356" y="39"/>
			<point x="414" y="165" type="curve"/>
			<point x="400" y="183" type="line"/>
			<point x="344" y="86"/>
			<point x="302" y="63"/>
			<point x="249" y="63" type="curve" smooth="yes"/>
			<point x="208" y="63"/>
			<point x="161" y="83"/>
			<point x="150" y="150" type="curve"/>
			<point x="120" y="95" type="line"/>
			<point x="127" y="23"/>
			<point x="176" y="-13"/>
		</contour>
		<contour>
			<point x="433" y="-13" type="curve" smooth="yes"/>
			<point x="472" y="-13"/>
			<point x="506" y="10"/>
			<point x="527" y="39" type="curve"/>
			<point x="524" y="65" type="line"/>
			<point x="510" y="60"/>
			<point x="493" y="56"/>
			<point x="480" y="56" type="curve" smooth="yes"/>
			<point x="447" y="56"/>
			<point x="440" y="73"/>
			<point x="451" y="135" type="curve" smooth="yes"/>
			<point x="463" y="204"/>
			<point x="482" y="277"/>
			<point x="539" y="477" type="curve"/>
			<point x="531" y="487" type="line"/>
			<point x="448" y="469" type="line"/>
			<point x="383" y="118"/>
			<point x="378" y="74"/>
			<point x="377" y="45" type="curve" smooth="yes"/>
			<point x="378" y="9"/>
			<point x="394" y="-13"/>
		</contour>
	</outline>
</glyph>
<glyph name="paragraph" format="2">
	<unicode hex="00B6"/>
	<advance width="597"/>
	<outline>
		<contour>
			<point x="541" y="670" type="line"/>
			<point x="531" y="614" type="line"/>
			<point x="536" y="614" type="line"/>
			<point x="669" y="629" type="line"/>
			<point x="676" y="670" type="line"/>
		</contour>
		<contour>
			<point x="360" y="-130" type="line"/>
			<point x="437" y="-130" type="line"/>
			<point x="453" y="-27"/>
			<point x="472" y="77"/>
			<point x="491" y="180" type="curve" smooth="yes"/>
			<point x="582" y="670" type="line"/>
			<point x="508" y="670" type="line"/>
		</contour>
		<contour>
			<point x="432" y="623" type="line"/>
			<point x="533" y="623" type="line"/>
			<point x="541" y="670" type="line"/>
			<point x="467" y="670" type="line" smooth="yes"/>
			<point x="219" y="670"/>
			<point x="97" y="551"/>
			<point x="97" y="372" type="curve" smooth="yes"/>
			<point x="97" y="242"/>
			<point x="199" y="171"/>
			<point x="344" y="150" type="curve"/>
		</contour>
	</outline>
</glyph>
<glyph name="AE" format="2">
	<unicode hex="00C6"/>
	<advance width="880"/>
	<outline>
		<contour>
			<point x="-38" y="0" type="line"/>
			<point x="186" y="0" type="line"/>
			<point x="194" y="40" type="line"/>
			<point x="95" y="55" type="line"/>
			<point x="77" y="55" type="line"/>
			<point x="-30" y="40" type="line"/>
		</contour>
		<contour>
			<point x="22" y="0" type="line"/>
			<point x="79" y="0" type="line"/>
			<point x="540" y="670" type="line"/>
			<point x="489" y="670" type="line"/>
		</contour>
		<contour>
			<point x="219" y="243" type="line"/>
			<point x="481" y="243" type="line"/>
			<point x="490" y="289" type="line"/>
			<point x="250" y="289" type="line"/>
		</contour>
		<contour>
			<point x="309" y="0" type="line"/>
			<point x="436" y="0" type="line"/>
			<point x="446" y="55" type="line"/>
			<point x="440" y="55" type="line"/>
			<point x="317" y="40" type="line"/>
		</contour>
		<contour>
			<point x="364" y="629" type="line"/>
			<point x="485" y="614" type="line"/>
			<point x="548" y="614" type="line"/>
			<point x="560" y="670" type="line"/>
			<point x="372" y="670" type="line"/>
		</contour>
		<contour>
			<point x="394" y="0" type="line"/>
			<point x="484" y="0" type="line"/>
			<point x="500" y="103"/>
			<point x="518" y="207"/>
			<point x="537" y="310" type="curve" smooth="yes"/>
			<point x="605" y="670" type="line"/>
			<point x="515" y="670" type="line"/>
			<point x="499" y="567"/>
			<point x="481" y="463"/>
			<point x="462" y="360" type="curve" smooth="yes"/>
		</contour>
		<contour>
			<point x="436" y="0" type="line"/>
			<point x="809" y="0" type="line"/>
			<point x="848" y="178" type="line"/>
			<point x="797" y="178" type="line"/>
			<point x="734" y="0" type="line"/>
			<point x="790" y="50" type="line"/>
			<point x="446" y="50" type="line"/>
		</contour>
		<contour>
			<point x="498" y="319" type="line"/>
			<point x="722" y="319" type="line"/>
			<point x="730" y="365" type="line"/>
			<point x="507" y="365" type="line"/>
		</contour>
		<contour>
			<point x="550" y="619" type="line"/>
			<point x="844" y="619" type="line"/>
			<point x="811" y="670" type="line"/>
			<point x="811" y="492" type="line"/>
			<point x="862" y="492" type="line"/>
			<point x="886" y="670" type="line"/>
			<point x="560" y="670" type="line"/>
		</contour>
		<contour>
			<point x="690" y="224" type="line"/>
			<point x="733" y="224" type="line"/>
			<point x="778" y="461" type="line"/>
			<point x="735" y="461" type="line"/>
			<point x="697" y="355" type="line"/>
			<point x="694" y="335" type="line"/>
		</contour>
	</outline>
	<anchor name="aboveUC" x="658" y="691"/>
</glyph>
<glyph name="Eth" format="1">
	<unicode hex="00D0"/>
	<advance width="700"/>
	<outline>
		<contour>
			<point x="399" y="319" type="line"/>
			<point x="407" y="366" type="line"/>
			<point x="66" y="366" type="line"/>
			<point x="57" y="319" type="line"/>
		</contour>
		<component base="D"/>
	</outline>
</glyph>
<glyph name="multiply" format="1">
	<unicode hex="00D7"/>
	<advance width="530"/>
	<outline>
		<contour>
			<point x="463" y="108" type="line"/>
			<point x="504" y="148" type="line"/>
			<point x="100" y="552" type="line"/>
			<point x="59" y="511" type="line"/>
		</contour>
		<contour>
			<point x="504" y="511" type="line"/>
			<point x="463" y="552" type="line"/>
			<point x="59" y="148" type="line"/>
			<point x="100" y="108" type="line"/>
		</contour>
	</outline>
</glyph>
<glyph name="Oslash" format="1">
	<unicode hex="00D8"/>
	<advance width="660"/>
	<outline>
		<contour>
			<point x="691" y="657" type="line"/>
			<point x="654" y="690" type="line"/>
			<point x="7" y="13" type="line"/>
			<point x="44" y="-20" type="line"/>
		</contour>
		<contour>
			<point x="302" y="-15" type="curve" smooth="yes"/>
			<point x="505" y="-15"/>
			<point x="652" y="179"/>
			<point x="652" y="404" type="curve" smooth="yes"/>
			<point x="652" y="572"/>
			<point x="554" y="685"/>
			<point x="415" y="685" type="curve" smooth="yes"/>
			<point x="217" y="685"/>
			<point x="68" y="491"/>
			<point x="68" y="265" type="curve" smooth="yes"/>
			<point x="68" y="89"/>
			<point x="167" y="-15"/>
		</contour>
		<contour>
			<point x="314" y="35" type="curve" smooth="yes"/>
			<point x="208" y="35"/>
			<point x="153" y="106"/>
			<point x="153" y="264" type="curve" smooth="yes"/>
			<point x="153" y="472"/>
			<point x="264" y="635"/>
			<point x="405" y="635" type="curve" smooth="yes"/>
			<point x="514" y="635"/>
			<point x="567" y="567"/>
			<point x="567" y="405" type="curve" smooth="yes"/>
			<point x="567" y="198"/>
			<point x="456" y="35"/>
		</contour>
		<contour>
			<point name="aboveUC" x="417" y="691" type="move"/>
		</contour>
	</outline>
</glyph>
<glyph name="Thorn" format="1">
	<unicode hex="00DE"/>
	<advance width="563"/>
	<outline>
		<contour>
			<point x="172" y="154" type="line"/>
			<point x="274" y="154" type="line" smooth="yes"/>
			<point x="459" y="154"/>
			<point x="565" y="241"/>
			<point x="565" y="364" type="curve" smooth="yes"/>
			<point x="565" y="469"/>
			<point x="488" y="535"/>
			<point x="330" y="535" type="curve" smooth="yes"/>
			<point x="247" y="535" type="line"/>
			<point x="238" y="488" type="line"/>
			<point x="322" y="488" type="line" smooth="yes"/>
			<point x="426" y="488"/>
			<point x="472" y="446"/>
			<point x="472" y="363" type="curve" smooth="yes"/>
			<point x="472" y="267"/>
			<point x="409" y="201"/>
			<point x="282" y="201" type="curve" smooth="yes"/>
			<point x="181" y="201" type="line"/>
		</contour>
		<contour>
			<point x="15" y="0" type="line"/>
			<point x="282" y="0" type="line"/>
			<point x="290" y="41" type="line"/>
			<point x="170" y="56" type="line"/>
			<point x="151" y="56" type="line"/>
			<point x="23" y="41" type="line"/>
		</contour>
		<contour>
			<point x="100" y="0" type="line"/>
			<point x="191" y="0" type="line"/>
			<point x="207" y="103"/>
			<point x="225" y="207"/>
			<point x="244" y="310" type="curve" smooth="yes"/>
			<point x="312" y="669" type="line"/>
			<point x="221" y="669" type="line"/>
			<point x="204" y="566"/>
			<point x="186" y="462"/>
			<point x="167" y="359" type="curve" smooth="yes"/>
		</contour>
		<contour>
			<point x="121" y="628" type="line"/>
			<point x="243" y="613" type="line"/>
			<point x="263" y="613" type="line"/>
			<point x="388" y="628" type="line"/>
			<point x="396" y="669" type="line"/>
			<point x="129" y="669" type="line"/>
		</contour>
	</outline>
</glyph>
<glyph name="germandbls" format="2">
	<unicode hex="00DF"/>
	<advance width="505"/>
	<outline>
		<contour>
			<point x="82" y="35" type="curve" smooth="yes"/>
			<point x="63" y="-69"/>
			<point x="46" y="-125"/>
			<point x="20" y="-162" type="curve" smooth="yes"/>
			<point x="-1" y="-193"/>
			<point x="-23" y="-209"/>
			<point x="-44" y="-220" type="curve"/>
			<point x="-8" y="-217" type="line"/>
			<point x="-33" y="-193" type="line" smooth="yes"/>
			<point x="-55" y="-171"/>
			<point x="-76" y="-152"/>
			<point x="-105" y="-152" type="curve" smooth="yes"/>
			<point x="-127" y="-152"/>
			<point x="-147" y="-167"/>
			<point x="-151" y="-188" type="curve"/>
			<point x="-142" y="-226"/>
			<point x="-104" y="-250"/>
			<point x="-58" y="-250" type="curve" smooth="yes"/>
			<point x="-26" y="-250"/>
			<point x="7" y="-238"/>
			<point x="48" y="-201" type="curve" smooth="yes"/>
			<point x="104" y="-151"/>
			<point x="130" y="-72"/>
			<point x="151" y="35" type="curve" smooth="yes"/>
			<point x="180" y="181"/>
			<point x="202" y="341"/>
			<point x="227" y="485" type="curve" smooth="yes"/>
			<point x="254" y="639"/>
			<point x="298" y="717"/>
			<point x="390" y="717" type="curve" smooth="yes"/>
			<point x="432" y="717"/>
			<point x="467" y="687"/>
			<point x="467" y="630" type="curve" smooth="yes"/>
			<point x="467" y="593"/>
			<point x="451" y="555"/>
			<point x="399" y="510" type="curve" smooth="yes"/>
			<point x="332" y="453"/>
			<point x="288" y="407"/>
			<point x="288" y="340" type="curve" smooth="yes"/>
			<point x="288" y="288"/>
			<point x="318" y="244"/>
			<point x="367" y="208" type="curve" smooth="yes"/>
			<point x="421" y="169"/>
			<point x="431" y="145"/>
			<point x="431" y="113" type="curve" smooth="yes"/>
			<point x="431" y="59"/>
			<point x="387" y="22"/>
			<point x="317" y="22" type="curve" smooth="yes"/>
			<point x="300" y="22"/>
			<point x="292" y="24"/>
			<point x="271" y="31" type="curve"/>
			<point x="307" y="-4" type="line"/>
			<point x="291" y="65" type="line" smooth="yes"/>
			<point x="285" y="93"/>
			<point x="272" y="109"/>
			<point x="244" y="109" type="curve" smooth="yes"/>
			<point x="227" y="109"/>
			<point x="212" y="97"/>
			<point x="207" y="81" type="curve"/>
			<point x="214" y="21"/>
			<point x="254" y="-13"/>
			<point x="332" y="-13" type="curve" smooth="yes"/>
			<point x="431" y="-13"/>
			<point x="499" y="46"/>
			<point x="499" y="125" type="curve" smooth="yes"/>
			<point x="499" y="187"/>
			<point x="479" y="216"/>
			<point x="417" y="262" type="curve" smooth="yes"/>
			<point x="372" y="296"/>
			<point x="353" y="324"/>
			<point x="353" y="367" type="curve" smooth="yes"/>
			<point x="353" y="413"/>
			<point x="377" y="446"/>
			<point x="426" y="481" type="curve" smooth="yes"/>
			<point x="489" y="527"/>
			<point x="534" y="572"/>
			<point x="534" y="639" type="curve" smooth="yes"/>
			<point x="534" y="704"/>
			<point x="485" y="751"/>
			<point x="401" y="751" type="curve" smooth="yes"/>
			<point x="279" y="751"/>
			<point x="185" y="668"/>
			<point x="155" y="483" type="curve" smooth="yes"/>
			<point x="130" y="326"/>
			<point x="109" y="187"/>
		</contour>
	</outline>
</glyph>
<glyph name="ae" format="2">
	<unicode hex="00E6"/>
	<advance width="667"/>
	<outline>
		<contour>
			<point x="122" y="-13" type="curve" smooth="yes"/>
			<point x="183" y="-13"/>
			<point x="259" y="46"/>
			<point x="322" y="129" type="curve"/>
			<point x="341" y="129" type="line"/>
			<point x="317" y="163" type="line"/>
			<point x="246" y="83"/>
			<point x="203" y="56"/>
			<point x="165" y="56" type="curve" smooth="yes"/>
			<point x="129" y="56"/>
			<point x="105" y="85"/>
			<point x="105" y="146" type="curve" smooth="yes"/>
			<point x="105" y="234"/>
			<point x="143" y="313"/>
			<point x="191" y="363" type="curve" smooth="yes"/>
			<point x="227" y="400"/>
			<point x="269" y="421"/>
			<point x="301" y="421" type="curve" smooth="yes"/>
			<point x="335" y="421"/>
			<point x="367" y="408"/>
			<point x="394" y="379" type="curve"/>
			<point x="436" y="415" type="line"/>
			<point x="412" y="457"/>
			<point x="381" y="487"/>
			<point x="336" y="487" type="curve" smooth="yes"/>
			<point x="207" y="487"/>
			<point x="27" y="279"/>
			<point x="27" y="105" type="curve" smooth="yes"/>
			<point x="27" y="22"/>
			<point x="74" y="-13"/>
		</contour>
		<component base="e" xOffset="261"/>
	</outline>
	<anchor name="aboveLC" x="431" y="494"/>
	<anchor name="belowLC" x="312" y="-20"/>
</glyph>
<glyph name="idieresis" format="2">
	<unicode hex="00EF"/>
	<advance width="305"/>
	<outline>
		<contour>
			<point x="168" y="624" type="curve" smooth="yes"/>
			<point x="198" y="624"/>
			<point x="224" y="648"/>
			<point x="224" y="683" type="curve" smooth="yes"/>
			<point x="224" y="708"/>
			<point x="204" y="727"/>
			<point x="178" y="727" type="curve" smooth="yes"/>
			<point x="150" y="727"/>
			<point x="122" y="704"/>
			<point x="122" y="670" type="curve" smooth="yes"/>
			<point x="122" y="641"/>
			<point x="144" y="624"/>
		</contour>
		<contour>
			<point x="332" y="624" type="curve" smooth="yes"/>
			<point x="362" y="624"/>
			<point x="387" y="648"/>
			<point x="387" y="683" type="curve" smooth="yes"/>
			<point x="387" y="708"/>
			<point x="368" y="727"/>
			<point x="342" y="727" type="curve" smooth="yes"/>
			<point x="314" y="727"/>
			<point x="287" y="704"/>
			<point x="287" y="670" type="curve" smooth="yes"/>
			<point x="287" y="641"/>
			<point x="308" y="624"/>
		</contour>
		<component base="dotlessi"/>
	</outline>
</glyph>
<glyph name="eth" format="1">
	<unicode hex="00F0"/>
	<advance width="489"/>
	<outline>
		<contour>
			<point x="227" y="-13" type="curve" smooth="yes"/>
			<point x="354" y="-13"/>
			<point x="480" y="115"/>
			<point x="480" y="336" type="curve" smooth="yes"/>
			<point x="480" y="515"/>
			<point x="394" y="670"/>
			<point x="233" y="748" type="curve"/>
			<point x="206" y="716" type="line"/>
			<point x="348" y="629"/>
			<point x="403" y="524"/>
			<point x="409" y="339" type="curve"/>
			<point x="441" y="375" type="line"/>
			<point x="418" y="442"/>
			<point x="379" y="484"/>
			<point x="309" y="484" type="curve" smooth="yes"/>
			<point x="180" y="484"/>
			<point x="54" y="356"/>
			<point x="54" y="174" type="curve" smooth="yes"/>
			<point x="54" y="56"/>
			<point x="123" y="-13"/>
		</contour>
		<contour>
			<point x="233" y="28" type="curve" smooth="yes"/>
			<point x="175" y="28"/>
			<point x="137" y="76"/>
			<point x="137" y="185" type="curve" smooth="yes"/>
			<point x="137" y="328"/>
			<point x="213" y="440"/>
			<point x="309" y="440" type="curve" smooth="yes"/>
			<point x="363" y="440"/>
			<point x="400" y="407"/>
			<point x="400" y="310" type="curve" smooth="yes"/>
			<point x="400" y="145"/>
			<point x="324" y="28"/>
		</contour>
		<contour>
			<point x="193" y="544" type="line"/>
			<point x="477" y="697" type="line"/>
			<point x="460" y="732" type="line"/>
			<point x="176" y="578" type="line"/>
		</contour>
	</outline>
</glyph>
<glyph name="divide" format="1">
	<unicode hex="00F7"/>
	<advance width="530"/>
	<outline>
		<contour>
			<point x="281" y="68" type="curve" smooth="yes"/>
			<point x="318" y="68"/>
			<point x="349" y="95"/>
			<point x="349" y="134" type="curve" smooth="yes"/>
			<point x="349" y="174"/>
			<point x="318" y="200"/>
			<point x="281" y="200" type="curve" smooth="yes"/>
			<point x="244" y="200"/>
			<point x="213" y="174"/>
			<point x="213" y="134" type="curve" smooth="yes"/>
			<point x="213" y="95"/>
			<point x="244" y="68"/>
		</contour>
		<contour>
			<point x="281" y="459" type="curve" smooth="yes"/>
			<point x="318" y="459"/>
			<point x="349" y="487"/>
			<point x="349" y="526" type="curve" smooth="yes"/>
			<point x="349" y="566"/>
			<point x="318" y="592"/>
			<point x="281" y="592" type="curve" smooth="yes"/>
			<point x="244" y="592"/>
			<point x="213" y="566"/>
			<point x="213" y="526" type="curve" smooth="yes"/>
			<point x="213" y="487"/>
			<point x="244" y="459"/>
		</contour>
		<component base="minus"/>
	</outline>
</glyph>
<glyph name="oslash" format="1">
	<unicode hex="00F8"/>
	<advance width="488"/>
	<outline>
		<contour>
			<point x="523" y="475" type="line"/>
			<point x="496" y="501" type="line"/>
			<point x="-7" y="5" type="line"/>
			<point x="22" y="-20" type="line"/>
		</contour>
		<component base="o"/>
		<contour>
			<point name="aboveLC" x="296" y="506" type="move"/>
		</contour>
	</outline>
</glyph>
<glyph name="thorn" format="2">
	<unicode hex="00FE"/>
	<advance width="505"/>
	<outline>
		<contour>
			<point x="-82" y="-240" type="line"/>
			<point x="172" y="-240" type="line"/>
			<point x="179" y="-206" type="line"/>
			<point x="60" y="-187" type="line"/>
			<point x="40" y="-187" type="line"/>
			<point x="-75" y="-206" type="line"/>
		</contour>
		<contour>
			<point x="1" y="-240" type="line"/>
			<point x="77" y="-240" type="line"/>
			<point x="92" y="-149"/>
			<point x="108" y="-63"/>
			<point x="128" y="26" type="curve"/>
			<point x="132" y="39" type="line"/>
			<point x="192" y="329" type="line"/>
			<point x="195" y="344" type="line"/>
			<point x="275" y="732" type="line"/>
			<point x="264" y="740" type="line"/>
			<point x="91" y="690" type="line"/>
			<point x="86" y="661" type="line"/>
			<point x="203" y="653" type="line"/>
			<point x="185" y="672" type="line"/>
			<point x="175" y="607"/>
			<point x="163" y="542"/>
			<point x="150" y="476" type="curve" smooth="yes"/>
		</contour>
		<contour>
			<point x="180" y="-13" type="curve" smooth="yes"/>
			<point x="324" y="-13"/>
			<point x="489" y="195"/>
			<point x="489" y="364" type="curve" smooth="yes"/>
			<point x="489" y="454"/>
			<point x="447" y="487"/>
			<point x="398" y="487" type="curve" smooth="yes"/>
			<point x="325" y="487"/>
			<point x="216" y="413"/>
			<point x="154" y="295" type="curve"/>
			<point x="142" y="295" type="line"/>
			<point x="165" y="289" type="line"/>
			<point x="237" y="373"/>
			<point x="305" y="420"/>
			<point x="351" y="420" type="curve" smooth="yes"/>
			<point x="389" y="420"/>
			<point x="412" y="389"/>
			<point x="412" y="324" type="curve" smooth="yes"/>
			<point x="412" y="255"/>
			<point x="387" y="184"/>
			<point x="347" y="131" type="curve" smooth="yes"/>
			<point x="312" y="86"/>
			<point x="266" y="55"/>
			<point x="216" y="55" type="curve" smooth="yes"/>
			<point x="187" y="55"/>
			<point x="153" y="67"/>
			<point x="120" y="101" type="curve"/>
			<point x="78" y="45" type="line"/>
			<point x="111" y="3"/>
			<point x="139" y="-13"/>
		</contour>
	</outline>
	<anchor name="aboveLC" x="240" y="740"/>
	<anchor name="belowLC" x="321" y="-20"/>
</glyph>
<glyph name="aogonek" format="1">
	<unicode hex="0105"/>
	<advance width="522"/>
	<outline>
		<component base="a"/>
		<component base="ogonekcmb" xOffset="415"/>
		<contour>
			<point name="aboveLC" x="340" y="506" type="move"/>
		</contour>
	</outline>
</glyph>
<glyph name="dcroat" format="1">
	<unicode hex="0111"/>
	<advance width="524"/>
	<outline>
		<contour>
			<point x="251" y="544" type="line"/>
			<point x="590" y="544" type="line"/>
			<point x="599" y="584" type="line"/>
			<point x="259" y="584" type="line"/>
		</contour>
		<component base="d"/>
	</outline>
</glyph>
<glyph name="Eogonek" format="1">
	<unicode hex="0118"/>
	<advance width="587"/>
	<outline>
		<component base="E"/>
		<component base="ogonekcmb" xOffset="442"/>
		<contour>
			<point name="aboveUC" x="396" y="691" type="move"/>
		</contour>
	</outline>
</glyph>
<glyph name="eogonek" format="2">
	<unicode hex="0119"/>
	<advance width="407"/>
	<outline>
		<contour>
			<point x="233" y="-240" type="curve" smooth="yes"/>
			<point x="277" y="-240"/>
			<point x="322" y="-212"/>
			<point x="348" y="-183" type="curve"/>
			<point x="336" y="-166" type="line"/>
			<point x="313" y="-182"/>
			<point x="281" y="-194"/>
			<point x="257" y="-194" type="curve" smooth="yes"/>
			<point x="228" y="-194"/>
			<point x="207" y="-175"/>
			<point x="207" y="-137" type="curve" smooth="yes"/>
			<point x="207" y="-76"/>
			<point x="254" y="-23"/>
			<point x="306" y="21" type="curve" smooth="yes"/>
			<point x="340" y="49"/>
			<point x="363" y="77"/>
			<point x="385" y="111" type="curve"/>
			<point x="362" y="129" type="line"/>
			<point x="335" y="95"/>
			<point x="290" y="56"/>
			<point x="227" y="56" type="curve" smooth="yes"/>
			<point x="162" y="56"/>
			<point x="123" y="95"/>
			<point x="123" y="194" type="curve" smooth="yes"/>
			<point x="123" y="327"/>
			<point x="228" y="444"/>
			<point x="293" y="444" type="curve" smooth="yes"/>
			<point x="326" y="444"/>
			<point x="349" y="422"/>
			<point x="349" y="385" type="curve" smooth="yes"/>
			<point x="349" y="328"/>
			<point x="284" y="255"/>
			<point x="97" y="207" type="curve"/>
			<point x="101" y="169" type="line"/>
			<point x="348" y="235"/>
			<point x="415" y="329"/>
			<point x="415" y="395" type="curve" smooth="yes"/>
			<point x="415" y="454"/>
			<point x="380" y="487"/>
			<point x="315" y="487" type="curve" smooth="yes"/>
			<point x="175" y="487"/>
			<point x="54" y="334"/>
			<point x="54" y="173" type="curve" smooth="yes"/>
			<point x="54" y="45"/>
			<point x="117" y="-13"/>
			<point x="205" y="-13" type="curve" smooth="yes"/>
			<point x="216" y="-13"/>
			<point x="227" y="-12"/>
			<point x="237" y="-9" type="curve"/>
			<point x="188" y="-55"/>
			<point x="144" y="-106"/>
			<point x="144" y="-162" type="curve" smooth="yes"/>
			<point x="144" y="-210"/>
			<point x="176" y="-240"/>
		</contour>
	</outline>
	<anchor name="aboveLC" x="319" y="506"/>
	<anchor name="belowLC" x="192" y="-22"/>
</glyph>
<glyph name="gcommaaccent" format="1">
	<unicode hex="0123"/>
	<advance width="486"/>
	<outline>
		<contour>
			<point x="360" y="770" type="line"/>
			<point x="295" y="734"/>
			<point x="252" y="704"/>
			<point x="252" y="637" type="curve" smooth="yes"/>
			<point x="252" y="625"/>
			<point x="254" y="613"/>
			<point x="262" y="593" type="curve"/>
			<point x="276" y="581"/>
			<point x="290" y="575"/>
			<point x="304" y="575" type="curve" smooth="yes"/>
			<point x="328" y="575"/>
			<point x="348" y="592"/>
			<point x="348" y="617" type="curve" smooth="yes"/>
			<point x="348" y="646"/>
			<point x="328" y="670"/>
			<point x="294" y="687" type="curve"/>
			<point x="291" y="652" type="line"/>
			<point x="315" y="702"/>
			<point x="333" y="719"/>
			<point x="375" y="747" type="curve"/>
		</contour>
		<component base="g"/>
	</outline>
</glyph>
<glyph name="Hbar" format="2">
	<unicode hex="0126"/>
	<advance width="764"/>
	<outline>
		<contour>
			<point x="17" y="0" type="line"/>
			<point x="282" y="0" type="line"/>
			<point x="290" y="40" type="line"/>
			<point x="170" y="55" type="line"/>
			<point x="152" y="55" type="line"/>
			<point x="25" y="40" type="line"/>
		</contour>
		<contour>
			<point x="100" y="0" type="line"/>
			<point x="190" y="0" type="line"/>
			<point x="206" y="103"/>
			<point x="224" y="207"/>
			<point x="243" y="310" type="curve" smooth="yes"/>
			<point x="311" y="670" type="line"/>
			<point x="222" y="670" type="line"/>
			<point x="206" y="567"/>
			<point x="187" y="463"/>
			<point x="168" y="360" type="curve" smooth="yes"/>
		</contour>
		<contour>
			<point x="122" y="629" type="line"/>
			<point x="243" y="614" type="line"/>
			<point x="262" y="614" type="line"/>
			<point x="387" y="629" type="line"/>
			<point x="395" y="670" type="line"/>
			<point x="130" y="670" type="line"/>
		</contour>
		<contour>
			<point x="195" y="300" type="line"/>
			<point x="608" y="300" type="line"/>
			<point x="615" y="346" type="line"/>
			<point x="204" y="346" type="line"/>
		</contour>
		<contour>
			<point x="422" y="0" type="line"/>
			<point x="687" y="0" type="line"/>
			<point x="695" y="40" type="line"/>
			<point x="576" y="55" type="line"/>
			<point x="557" y="55" type="line"/>
			<point x="430" y="40" type="line"/>
		</contour>
		<contour>
			<point x="506" y="0" type="line"/>
			<point x="595" y="0" type="line"/>
			<point x="611" y="103"/>
			<point x="629" y="207"/>
			<point x="648" y="310" type="curve" smooth="yes"/>
			<point x="716" y="670" type="line"/>
			<point x="627" y="670" type="line"/>
			<point x="611" y="567"/>
			<point x="593" y="463"/>
			<point x="574" y="360" type="curve" smooth="yes"/>
		</contour>
		<contour>
			<point x="527" y="629" type="line"/>
			<point x="648" y="614" type="line"/>
			<point x="668" y="614" type="line"/>
			<point x="792" y="629" type="line"/>
			<point x="800" y="670" type="line"/>
			<point x="535" y="670" type="line"/>
		</contour>
		<contour>
			<point x="72" y="466" type="line"/>
			<point x="802" y="466" type="line"/>
			<point x="810" y="513" type="line"/>
			<point x="80" y="513" type="line"/>
		</contour>
	</outline>
</glyph>
<glyph name="hbar" format="2">
	<unicode hex="0127"/>
	<advance width="544"/>
	<outline>
		<contour>
			<point x="360" y="-13" type="curve" smooth="yes"/>
			<point x="428" y="-13"/>
			<point x="493" y="50"/>
			<point x="532" y="109" type="curve"/>
			<point x="508" y="128" type="line"/>
			<point x="472" y="83"/>
			<point x="434" y="56"/>
			<point x="410" y="56" type="curve" smooth="yes"/>
			<point x="398" y="56"/>
			<point x="390" y="63"/>
			<point x="390" y="77" type="curve" smooth="yes"/>
			<point x="390" y="87"/>
			<point x="396" y="107"/>
			<point x="403" y="135" type="curve" smooth="yes"/>
			<point x="445" y="310" type="line" smooth="yes"/>
			<point x="453" y="343"/>
			<point x="461" y="376"/>
			<point x="461" y="408" type="curve" smooth="yes"/>
			<point x="461" y="454"/>
			<point x="439" y="477"/>
			<point x="397" y="477" type="curve" smooth="yes"/>
			<point x="331" y="477"/>
			<point x="240" y="417"/>
			<point x="173" y="349" type="curve"/>
			<point x="159" y="349" type="line"/>
			<point x="168" y="312" type="line"/>
			<point x="247" y="377"/>
			<point x="308" y="410"/>
			<point x="346" y="410" type="curve" smooth="yes"/>
			<point x="368" y="410"/>
			<point x="381" y="399"/>
			<point x="381" y="363" type="curve" smooth="yes"/>
			<point x="381" y="343"/>
			<point x="373" y="311"/>
			<point x="365" y="277" type="curve" smooth="yes"/>
			<point x="325" y="111" type="line" smooth="yes"/>
			<point x="315" y="70"/>
			<point x="309" y="53"/>
			<point x="309" y="30" type="curve" smooth="yes"/>
			<point x="309" y="4"/>
			<point x="328" y="-13"/>
		</contour>
		<contour>
			<point x="54" y="-8" type="line"/>
			<point x="121" y="0" type="line"/>
			<point x="132" y="70"/>
			<point x="144" y="140"/>
			<point x="159" y="210" type="curve" smooth="yes"/>
			<point x="188" y="347" type="line"/>
			<point x="191" y="364" type="line"/>
			<point x="266" y="732" type="line"/>
			<point x="256" y="740" type="line"/>
			<point x="83" y="690" type="line"/>
			<point x="79" y="661" type="line"/>
			<point x="196" y="653" type="line"/>
			<point x="178" y="684" type="line"/>
			<point x="168" y="615"/>
			<point x="155" y="546"/>
			<point x="141" y="477" type="curve" smooth="yes"/>
			<point x="44" y="0" type="line"/>
		</contour>
		<contour>
			<point x="56" y="538" type="line"/>
			<point x="403" y="538" type="line"/>
			<point x="411" y="584" type="line"/>
			<point x="64" y="584" type="line"/>
		</contour>
	</outline>
</glyph>
<glyph name="Iogonek" format="1">
	<unicode hex="012E"/>
	<advance width="358"/>
	<outline>
		<component base="I"/>
		<component base="ogonekcmb" xOffset="189"/>
		<contour>
			<point name="aboveUC" x="266" y="691" type="move"/>
		</contour>
	</outline>
</glyph>
<glyph name="iogonek" format="2">
	<unicode hex="012F"/>
	<advance width="305"/>
	<outline>
		<contour>
			<point x="146" y="-240" type="curve" smooth="yes"/>
			<point x="190" y="-240"/>
			<point x="235" y="-212"/>
			<point x="261" y="-183" type="curve"/>
			<point x="249" y="-166" type="line"/>
			<point x="226" y="-182"/>
			<point x="195" y="-194"/>
			<point x="170" y="-194" type="curve" smooth="yes"/>
			<point x="141" y="-194"/>
			<point x="120" y="-175"/>
			<point x="120" y="-137" type="curve" smooth="yes"/>
			<point x="120" y="-77"/>
			<point x="163" y="-25"/>
			<point x="211" y="18" type="curve" smooth="yes"/>
			<point x="240" y="45"/>
			<point x="269" y="76"/>
			<point x="294" y="109" type="curve"/>
			<point x="269" y="128" type="line"/>
			<point x="229" y="80"/>
			<point x="197" y="56"/>
			<point x="173" y="56" type="curve" smooth="yes"/>
			<point x="162" y="56"/>
			<point x="151" y="64"/>
			<point x="151" y="78" type="curve" smooth="yes"/>
			<point x="151" y="89"/>
			<point x="155" y="110"/>
			<point x="160" y="135" type="curve" smooth="yes"/>
			<point x="231" y="478" type="line"/>
			<point x="218" y="488" type="line"/>
			<point x="48" y="437" type="line"/>
			<point x="44" y="408" type="line"/>
			<point x="173" y="400" type="line"/>
			<point x="149" y="431" type="line"/>
			<point x="82" y="111" type="line" smooth="yes"/>
			<point x="74" y="70"/>
			<point x="72" y="53"/>
			<point x="72" y="38" type="curve" smooth="yes"/>
			<point x="72" y="4"/>
			<point x="98" y="-13"/>
			<point x="126" y="-13" type="curve" smooth="yes"/>
			<point x="137" y="-13"/>
			<point x="144" y="-11"/>
			<point x="147" y="-10" type="curve"/>
			<point x="147" y="-11" type="line"/>
			<point x="101" y="-56"/>
			<point x="57" y="-106"/>
			<point x="57" y="-162" type="curve" smooth="yes"/>
			<point x="57" y="-210"/>
			<point x="89" y="-240"/>
		</contour>
		<contour>
			<point x="228" y="626" type="curve" smooth="yes"/>
			<point x="257" y="626"/>
			<point x="284" y="655"/>
			<point x="284" y="688" type="curve" smooth="yes"/>
			<point x="284" y="720"/>
			<point x="263" y="741"/>
			<point x="232" y="741" type="curve" smooth="yes"/>
			<point x="203" y="741"/>
			<point x="177" y="713"/>
			<point x="177" y="680" type="curve" smooth="yes"/>
			<point x="177" y="647"/>
			<point x="198" y="626"/>
		</contour>
	</outline>
</glyph>
<glyph name="dotlessi" format="2">
	<unicode hex="0131"/>
	<advance width="305"/>
	<outline>
		<contour>
			<point x="90" y="38" type="curve" smooth="yes"/>
			<point x="90" y="4"/>
			<point x="117" y="-13"/>
			<point x="144" y="-13" type="curve" smooth="yes"/>
			<point x="215" y="-13"/>
			<point x="267" y="49"/>
			<point x="312" y="109" type="curve"/>
			<point x="287" y="128" type="line"/>
			<point x="247" y="80"/>
			<point x="215" y="56"/>
			<point x="191" y="56" type="curve" smooth="yes"/>
			<point x="180" y="56"/>
			<point x="169" y="64"/>
			<point x="169" y="78" type="curve" smooth="yes"/>
			<point x="169" y="89"/>
			<point x="173" y="110"/>
			<point x="178" y="135" type="curve" smooth="yes"/>
			<point x="249" y="477" type="line"/>
			<point x="236" y="487" type="line"/>
			<point x="66" y="436" type="line"/>
			<point x="62" y="407" type="line"/>
			<point x="181" y="400" type="line"/>
			<point x="164" y="414" type="line"/>
			<point x="101" y="111" type="line" smooth="yes"/>
			<point x="92" y="70"/>
			<point x="90" y="53"/>
		</contour>
	</outline>
	<anchor name="aboveLC" x="215" y="506"/>
	<anchor name="belowLC" x="138" y="-22"/>
	<anchor name="ogonek" x="181" y="0"/>
</glyph>
<glyph name="kgreenlandic" format="2">
	<unicode hex="0138"/>
	<advance width="492"/>
	<outline>
		<contour>
			<point x="494" y="0" type="curve"/>
			<point x="499" y="30" type="line"/>
			<point x="448" y="34" type="line" smooth="yes"/>
			<point x="417" y="36"/>
			<point x="404" y="44"/>
			<point x="380" y="92" type="curve" smooth="yes"/>
			<point x="353" y="147" type="line" smooth="yes"/>
			<point x="328" y="197"/>
			<point x="299" y="230"/>
			<point x="241" y="242" type="curve" smooth="yes"/>
			<point x="211" y="248" type="line"/>
			<point x="208" y="241" type="line"/>
			<point x="459" y="389" type="line" smooth="yes"/>
			<point x="496" y="410"/>
			<point x="510" y="423"/>
			<point x="510" y="441" type="curve" smooth="yes"/>
			<point x="510" y="462"/>
			<point x="495" y="481"/>
			<point x="474" y="482" type="curve"/>
			<point x="187" y="249" type="line"/>
			<point x="190" y="227" type="line"/>
			<point x="210" y="221" type="line" smooth="yes"/>
			<point x="244" y="211"/>
			<point x="260" y="191"/>
			<point x="284" y="136" type="curve" smooth="yes"/>
			<point x="314" y="67" type="line" smooth="yes"/>
			<point x="345" y="-3"/>
			<point x="376" y="-13"/>
			<point x="423" y="-13" type="curve" smooth="yes"/>
			<point x="445" y="-13"/>
			<point x="464" y="-10"/>
		</contour>
		<contour>
			<point x="153" y="0" type="line"/>
			<point x="166" y="71"/>
			<point x="178" y="140"/>
			<point x="193" y="210" type="curve" smooth="yes"/>
			<point x="224" y="352" type="line"/>
			<point x="249" y="477" type="line"/>
			<point x="236" y="487" type="line"/>
			<point x="66" y="436" type="line"/>
			<point x="62" y="407" type="line"/>
			<point x="182" y="400" type="line"/>
			<point x="164" y="414" type="line"/>
			<point x="76" y="0" type="line"/>
			<point x="86" y="-8" type="line"/>
		</contour>
	</outline>
</glyph>
<glyph name="Lcaron" format="1">
	<unicode hex="013D"/>
	<advance width="568"/>
	<outline>
		<contour>
			<point x="571" y="738" type="curve" smooth="yes"/>
			<point x="555" y="738"/>
			<point x="544" y="736"/>
			<point x="529" y="730" type="curve"/>
			<point x="486" y="512" type="line"/>
			<point x="517" y="509" type="line"/>
			<point x="550" y="571" type="line" smooth="yes"/>
			<point x="574" y="616"/>
			<point x="605" y="675"/>
			<point x="605" y="708" type="curve" smooth="yes"/>
			<point x="605" y="721"/>
			<point x="601" y="738"/>
		</contour>
		<component base="L"/>
	</outline>
</glyph>
<glyph name="Lslash" format="1">
	<unicode hex="0141"/>
	<advance width="568"/>
	<outline>
		<contour>
			<point x="435" y="476" type="line"/>
			<point x="203" y="355" type="line"/>
			<point x="192" y="295" type="line"/>
			<point x="425" y="415" type="line"/>
		</contour>
		<contour>
			<point x="203" y="361" type="line"/>
			<point x="48" y="281" type="line"/>
			<point x="38" y="221" type="line"/>
			<point x="192" y="300" type="line"/>
		</contour>
		<component base="L"/>
	</outline>
</glyph>
<glyph name="lslash" format="2">
	<unicode hex="0142"/>
	<advance width="279"/>
	<outline>
		<contour>
			<point x="163" y="414" type="line"/>
			<point x="27" y="351" type="line"/>
			<point x="17" y="302" type="line"/>
			<point x="153" y="366" type="line"/>
		</contour>
		<contour>
			<point x="299" y="473" type="line"/>
			<point x="160" y="407" type="line"/>
			<point x="150" y="359" type="line"/>
			<point x="289" y="424" type="line"/>
		</contour>
		<component base="l"/>
	</outline>
</glyph>
<glyph name="OE" format="1">
	<unicode hex="0152"/>
	<advance width="899"/>
	<outline>
		<contour>
			<point x="444" y="0" type="curve"/>
			<point x="454" y="51" type="line"/>
			<point x="420" y="40"/>
			<point x="383" y="35"/>
			<point x="346" y="35" type="curve" smooth="yes"/>
			<point x="238" y="35"/>
			<point x="160" y="129"/>
			<point x="160" y="269" type="curve" smooth="yes"/>
			<point x="160" y="470"/>
			<point x="288" y="635"/>
			<point x="451" y="635" type="curve" smooth="yes"/>
			<point x="491" y="635"/>
			<point x="533" y="627"/>
			<point x="556" y="616" type="curve"/>
			<point x="567" y="670" type="line"/>
			<point x="532" y="680"/>
			<point x="498" y="685"/>
			<point x="462" y="685" type="curve" smooth="yes"/>
			<point x="227" y="685"/>
			<point x="68" y="477"/>
			<point x="68" y="262" type="curve" smooth="yes"/>
			<point x="68" y="93"/>
			<point x="178" y="-15"/>
			<point x="333" y="-15" type="curve" smooth="yes"/>
			<point x="373" y="-15"/>
			<point x="406" y="-9"/>
		</contour>
		<contour>
			<point x="402" y="0" type="line"/>
			<point x="492" y="0" type="line"/>
			<point x="508" y="103"/>
			<point x="526" y="207"/>
			<point x="545" y="310" type="curve" smooth="yes"/>
			<point x="613" y="670" type="line"/>
			<point x="523" y="670" type="line"/>
			<point x="507" y="567"/>
			<point x="489" y="463"/>
			<point x="470" y="360" type="curve" smooth="yes"/>
		</contour>
		<contour>
			<point x="444" y="0" type="line"/>
			<point x="817" y="0" type="line"/>
			<point x="856" y="178" type="line"/>
			<point x="805" y="178" type="line"/>
			<point x="742" y="0" type="line"/>
			<point x="798" y="50" type="line"/>
			<point x="454" y="50" type="line"/>
		</contour>
		<contour>
			<point x="506" y="319" type="line"/>
			<point x="731" y="319" type="line"/>
			<point x="739" y="365" type="line"/>
			<point x="515" y="365" type="line"/>
		</contour>
		<contour>
			<point x="558" y="619" type="line"/>
			<point x="862" y="619" type="line"/>
			<point x="829" y="670" type="line"/>
			<point x="829" y="492" type="line"/>
			<point x="880" y="492" type="line"/>
			<point x="904" y="670" type="line"/>
			<point x="568" y="670" type="line"/>
		</contour>
		<contour>
			<point x="699" y="224" type="line"/>
			<point x="741" y="224" type="line"/>
			<point x="786" y="461" type="line"/>
			<point x="744" y="461" type="line"/>
			<point x="706" y="355" type="line"/>
			<point x="703" y="335" type="line"/>
		</contour>
		<contour>
			<point name="aboveUC" x="579" y="691" type="move"/>
		</contour>
	</outline>
</glyph>
<glyph name="oe" format="2">
	<unicode hex="0153"/>
	<advance width="743"/>
	<outline>
		<contour>
			<point x="220" y="-13" type="curve" smooth="yes"/>
			<point x="308" y="-13"/>
			<point x="387" y="51"/>
			<point x="432" y="143" type="curve"/>
			<point x="393" y="138" type="line"/>
			<point x="403" y="34"/>
			<point x="462" y="-13"/>
			<point x="541" y="-13" type="curve" smooth="yes"/>
			<point x="615" y="-13"/>
			<point x="679" y="42"/>
			<point x="722" y="111" type="curve"/>
			<point x="698" y="129" type="line"/>
			<point x="671" y="95"/>
			<point x="626" y="56"/>
			<point x="563" y="56" type="curve" smooth="yes"/>
			<point x="498" y="56"/>
			<point x="460" y="95"/>
			<point x="460" y="194" type="curve" smooth="yes"/>
			<point x="460" y="327"/>
			<point x="565" y="444"/>
			<point x="630" y="444" type="curve" smooth="yes"/>
			<point x="662" y="444"/>
			<point x="685" y="422"/>
			<point x="685" y="385" type="curve" smooth="yes"/>
			<point x="685" y="328"/>
			<point x="620" y="255"/>
			<point x="434" y="207" type="curve"/>
			<point x="438" y="169" type="line"/>
			<point x="684" y="235"/>
			<point x="752" y="329"/>
			<point x="752" y="395" type="curve" smooth="yes"/>
			<point x="752" y="454"/>
			<point x="716" y="487"/>
			<point x="652" y="487" type="curve" smooth="yes"/>
			<point x="565" y="487"/>
			<point x="486" y="427"/>
			<point x="438" y="345" type="curve"/>
			<point x="471" y="343" type="line"/>
			<point x="455" y="437"/>
			<point x="395" y="487"/>
			<point x="315" y="487" type="curve" smooth="yes"/>
			<point x="173" y="487"/>
			<point x="54" y="343"/>
			<point x="54" y="163" type="curve" smooth="yes"/>
			<point x="54" y="49"/>
			<point x="128" y="-13"/>
		</contour>
		<contour>
			<point x="232" y="27" type="curve" smooth="yes"/>
			<point x="176" y="27"/>
			<point x="136" y="70"/>
			<point x="136" y="175" type="curve" smooth="yes"/>
			<point x="136" y="324"/>
			<point x="209" y="447"/>
			<point x="304" y="447" type="curve" smooth="yes"/>
			<point x="358" y="447"/>
			<point x="396" y="405"/>
			<point x="396" y="297" type="curve" smooth="yes"/>
			<point x="396" y="163"/>
			<point x="330" y="27"/>
		</contour>
	</outline>
	<anchor name="aboveLC" x="470" y="506"/>
</glyph>
<glyph name="tcaron" format="1">
	<unicode hex="0165"/>
	<advance width="330"/>
	<outline>
		<contour>
			<point x="425" y="750" type="curve" smooth="yes"/>
			<point x="409" y="750"/>
			<point x="398" y="748"/>
			<point x="383" y="742" type="curve"/>
			<point x="340" y="524" type="line"/>
			<point x="370" y="521" type="line"/>
			<point x="403" y="582" type="line" smooth="yes"/>
			<point x="427" y="627"/>
			<point x="458" y="687"/>
			<point x="458" y="720" type="curve" smooth="yes"/>
			<point x="458" y="733"/>
			<point x="454" y="750"/>
		</contour>
		<component base="t"/>
	</outline>
</glyph>
<glyph name="Uogonek" format="1">
	<unicode hex="0172"/>
	<advance width="749"/>
	<outline>
		<component base="U"/>
		<component base="ogonekcmb" xOffset="455"/>
		<contour>
			<point name="aboveUC" x="476" y="691" type="move"/>
		</contour>
	</outline>
</glyph>
<glyph name="uogonek" format="1">
	<unicode hex="0173"/>
	<advance width="572"/>
	<outline>
		<component base="u"/>
		<component base="ogonekcmb" xOffset="450"/>
		<contour>
			<point name="aboveLC" x="322" y="506" type="move"/>
		</contour>
	</outline>
</glyph>
<glyph name="longs" format="2">
	<unicode hex="017F"/>
	<advance width="294"/>
	<outline>
		<contour>
			<point x="370" y="750" type="curve" smooth="yes"/>
			<point x="263" y="750"/>
			<point x="188" y="671"/>
			<point x="156" y="487" type="curve" smooth="yes"/>
			<point x="80" y="39" type="line" smooth="yes"/>
			<point x="59" y="-83"/>
			<point x="34" y="-142"/>
			<point x="10" y="-176" type="curve" smooth="yes"/>
			<point x="-9" y="-201"/>
			<point x="-28" y="-210"/>
			<point x="-44" y="-220" type="curve"/>
			<point x="-44" y="-226" type="line"/>
			<point x="-8" y="-217" type="line"/>
			<point x="-33" y="-193" type="line" smooth="yes"/>
			<point x="-55" y="-171"/>
			<point x="-76" y="-152"/>
			<point x="-105" y="-152" type="curve" smooth="yes"/>
			<point x="-127" y="-152"/>
			<point x="-147" y="-167"/>
			<point x="-151" y="-188" type="curve"/>
			<point x="-142" y="-226"/>
			<point x="-104" y="-250"/>
			<point x="-58" y="-250" type="curve" smooth="yes"/>
			<point x="-21" y="-250"/>
			<point x="22" y="-232"/>
			<point x="59" y="-191" type="curve" smooth="yes"/>
			<point x="98" y="-147"/>
			<point x="133" y="-76"/>
			<point x="151" y="32" type="curve" smooth="yes"/>
			<point x="227" y="481" type="line" smooth="yes"/>
			<point x="264" y="695"/>
			<point x="307" y="698"/>
			<point x="394" y="730" type="curve"/>
			<point x="395" y="736" type="line"/>
			<point x="337" y="732" type="line"/>
			<point x="365" y="698" type="line" smooth="yes"/>
			<point x="397" y="659"/>
			<point x="414" y="643"/>
			<point x="444" y="643" type="curve" smooth="yes"/>
			<point x="461" y="643"/>
			<point x="476" y="653"/>
			<point x="483" y="677" type="curve"/>
			<point x="475" y="714"/>
			<point x="428" y="750"/>
		</contour>
	</outline>
</glyph>
<glyph name="Schwa" format="2">
	<unicode hex="018F"/>
	<advance width="619"/>
	<outline>
		<contour>
			<point x="263" y="-14" type="curve" smooth="yes"/>
			<point x="449" y="-14"/>
			<point x="594" y="188"/>
			<point x="594" y="398" type="curve" smooth="yes"/>
			<point x="594" y="593"/>
			<point x="493" y="684"/>
			<point x="349" y="684" type="curve" smooth="yes"/>
			<point x="263" y="684"/>
			<point x="193" y="646"/>
			<point x="136" y="592" type="curve"/>
			<point x="157" y="561" type="line"/>
			<point x="205" y="601"/>
			<point x="263" y="626"/>
			<point x="329" y="626" type="curve" smooth="yes"/>
			<point x="425" y="626"/>
			<point x="507" y="567"/>
			<point x="507" y="426" type="curve" smooth="yes"/>
			<point x="507" y="208"/>
			<point x="414" y="35"/>
			<point x="271" y="35" type="curve" smooth="yes"/>
			<point x="196" y="35"/>
			<point x="132" y="81"/>
			<point x="132" y="210" type="curve" smooth="yes"/>
			<point x="132" y="260"/>
			<point x="137" y="287"/>
			<point x="148" y="325" type="curve"/>
			<point x="531" y="325" type="line"/>
			<point x="538" y="376" type="line"/>
			<point x="73" y="376" type="line"/>
			<point x="56" y="324"/>
			<point x="46" y="273"/>
			<point x="46" y="221" type="curve" smooth="yes"/>
			<point x="46" y="69"/>
			<point x="126" y="-14"/>
		</contour>
	</outline>
	<anchor name="aboveUC" x="351" y="690"/>
	<anchor name="belowLC" x="261" y="-20"/>
</glyph>
<glyph name="florin" format="1">
	<unicode hex="0192"/>
	<advance width="500"/>
	<outline>
		<contour>
			<point x="140" y="345" type="line"/>
			<point x="432" y="345" type="line"/>
			<point x="442" y="396" type="line"/>
			<point x="150" y="396" type="line"/>
		</contour>
		<contour>
			<point x="320" y="350" type="line" smooth="yes"/>
			<point x="346" y="470"/>
			<point x="355" y="530"/>
			<point x="387" y="576" type="curve" smooth="yes"/>
			<point x="402" y="598"/>
			<point x="421" y="616"/>
			<point x="451" y="628" type="curve"/>
			<point x="420" y="627" type="line"/>
			<point x="445" y="593" type="line" smooth="yes"/>
			<point x="464" y="568"/>
			<point x="483" y="560"/>
			<point x="503" y="560" type="curve" smooth="yes"/>
			<point x="533" y="560"/>
			<point x="552" y="578"/>
			<point x="561" y="605" type="curve"/>
			<point x="556" y="636"/>
			<point x="524" y="659"/>
			<point x="475" y="659" type="curve" smooth="yes"/>
			<point x="436" y="659"/>
			<point x="392" y="645"/>
			<point x="352" y="604" type="curve" smooth="yes"/>
			<point x="304" y="554"/>
			<point x="276" y="483"/>
			<point x="247" y="354" type="curve" smooth="yes"/>
			<point x="217" y="217" type="line" smooth="yes"/>
			<point x="190" y="95"/>
			<point x="181" y="30"/>
			<point x="149" y="-17" type="curve" smooth="yes"/>
			<point x="134" y="-39"/>
			<point x="115" y="-57"/>
			<point x="85" y="-69" type="curve"/>
			<point x="117" y="-68" type="line"/>
			<point x="91" y="-34" type="line" smooth="yes"/>
			<point x="73" y="-9"/>
			<point x="54" y="-1"/>
			<point x="32" y="-1" type="curve" smooth="yes"/>
			<point x="2" y="-1"/>
			<point x="-17" y="-19"/>
			<point x="-26" y="-46" type="curve"/>
			<point x="-21" y="-77"/>
			<point x="12" y="-100"/>
			<point x="62" y="-100" type="curve" smooth="yes"/>
			<point x="100" y="-100"/>
			<point x="144" y="-86"/>
			<point x="184" y="-45" type="curve" smooth="yes"/>
			<point x="236" y="9"/>
			<point x="262" y="86"/>
			<point x="294" y="233" type="curve" smooth="yes"/>
		</contour>
	</outline>
</glyph>
<glyph name="Uhorn" format="2">
	<unicode hex="01AF"/>
	<advance width="712"/>
	<outline>
		<contour>
			<point x="658" y="617" type="line"/>
			<point x="765" y="624"/>
			<point x="825" y="661"/>
			<point x="825" y="755" type="curve" smooth="yes"/>
			<point x="825" y="769"/>
			<point x="823" y="783"/>
			<point x="819" y="796" type="curve"/>
			<point x="806" y="806"/>
			<point x="793" y="807"/>
			<point x="784" y="807" type="curve" smooth="yes"/>
			<point x="759" y="807"/>
			<point x="741" y="789"/>
			<point x="741" y="765" type="curve" smooth="yes"/>
			<point x="741" y="743"/>
			<point x="757" y="724"/>
			<point x="757" y="705" type="curve" smooth="yes"/>
			<point x="757" y="680"/>
			<point x="728" y="670"/>
			<point x="665" y="670" type="curve"/>
		</contour>
		<contour>
			<point x="120" y="179" type="curve" smooth="yes"/>
			<point x="120" y="54"/>
			<point x="193" y="-15"/>
			<point x="328" y="-15" type="curve" smooth="yes"/>
			<point x="474" y="-15"/>
			<point x="579" y="62"/>
			<point x="619" y="274" type="curve" smooth="yes"/>
			<point x="694" y="670" type="line"/>
			<point x="641" y="670" type="line"/>
			<point x="570" y="298" type="line" smooth="yes"/>
			<point x="534" y="108"/>
			<point x="478" y="55"/>
			<point x="339" y="55" type="curve" smooth="yes"/>
			<point x="266" y="55"/>
			<point x="205" y="101"/>
			<point x="205" y="185" type="curve" smooth="yes"/>
			<point x="205" y="232"/>
			<point x="211" y="256"/>
			<point x="216" y="282" type="curve" smooth="yes"/>
			<point x="287" y="670" type="line"/>
			<point x="200" y="670" type="line"/>
			<point x="184" y="567"/>
			<point x="166" y="463"/>
			<point x="147" y="360" type="curve" smooth="yes"/>
			<point x="133" y="286" type="line" smooth="yes"/>
			<point x="126" y="249"/>
			<point x="120" y="212"/>
		</contour>
		<contour>
			<point x="100" y="629" type="line"/>
			<point x="221" y="614" type="line"/>
			<point x="241" y="614" type="line"/>
			<point x="365" y="629" type="line"/>
			<point x="373" y="670" type="line"/>
			<point x="108" y="670" type="line"/>
		</contour>
		<contour>
			<point x="528" y="629" type="line"/>
			<point x="644" y="614" type="line"/>
			<point x="658" y="614" type="line"/>
			<point x="665" y="670" type="line"/>
			<point x="536" y="670" type="line"/>
		</contour>
	</outline>
	<anchor name="aboveUC" x="455" y="691"/>
	<anchor name="belowLC" x="336" y="-22"/>
</glyph>
<glyph name="dotlessj" format="2">
	<unicode hex="0237"/>
	<advance width="250"/>
	<outline>
		<contour>
			<point x="-62" y="-248" type="line"/>
			<point x="-27" y="-242"/>
			<point x="7" y="-226"/>
			<point x="39" y="-199" type="curve" smooth="yes"/>
			<point x="102" y="-146"/>
			<point x="141" y="-70"/>
			<point x="160" y="23" type="curve" smooth="yes"/>
			<point x="248" y="477" type="line"/>
			<point x="235" y="487" type="line"/>
			<point x="66" y="436" type="line"/>
			<point x="63" y="407" type="line"/>
			<point x="183" y="400" type="line"/>
			<point x="164" y="415" type="line"/>
			<point x="93" y="48" type="line" smooth="yes"/>
			<point x="71" y="-73"/>
			<point x="45" y="-123"/>
			<point x="11" y="-166" type="curve" smooth="yes"/>
			<point x="-9" y="-191"/>
			<point x="-34" y="-205"/>
			<point x="-70" y="-220" type="curve"/>
		</contour>
	</outline>
	<anchor name="aboveLC" x="215" y="506"/>
</glyph>
<glyph name="schwa" format="2">
	<unicode hex="0259"/>
	<advance width="425"/>
	<outline>
		<contour>
			<point x="119" y="-13" type="curve" smooth="yes"/>
			<point x="262" y="-13"/>
			<point x="397" y="145"/>
			<point x="397" y="311" type="curve" smooth="yes"/>
			<point x="397" y="432"/>
			<point x="343" y="487"/>
			<point x="260" y="487" type="curve" smooth="yes"/>
			<point x="184" y="487"/>
			<point x="114" y="433"/>
			<point x="69" y="364" type="curve"/>
			<point x="92" y="345" type="line"/>
			<point x="122" y="383"/>
			<point x="172" y="424"/>
			<point x="237" y="424" type="curve" smooth="yes"/>
			<point x="293" y="424"/>
			<point x="320" y="386"/>
			<point x="320" y="290" type="curve" smooth="yes"/>
			<point x="320" y="151"/>
			<point x="212" y="29"/>
			<point x="148" y="29" type="curve" smooth="yes"/>
			<point x="111" y="29"/>
			<point x="89" y="52"/>
			<point x="89" y="92" type="curve" smooth="yes"/>
			<point x="89" y="158"/>
			<point x="162" y="225"/>
			<point x="354" y="284" type="curve"/>
			<point x="351" y="320" type="line"/>
			<point x="98" y="246"/>
			<point x="23" y="156"/>
			<point x="23" y="82" type="curve" smooth="yes"/>
			<point x="23" y="24"/>
			<point x="54" y="-13"/>
		</contour>
	</outline>
	<anchor name="aboveLC" x="297" y="494"/>
	<anchor name="belowLC" x="185" y="-20"/>
</glyph>
<glyph name="gscript" format="2">
	<unicode hex="0261"/>
	<advance width="478"/>
	<outline>
		<contour>
			<point x="104" y="-250" type="curve" smooth="yes"/>
			<point x="169" y="-250"/>
			<point x="233" y="-224"/>
			<point x="286" y="-170" type="curve" smooth="yes"/>
			<point x="338" y="-118"/>
			<point x="364" y="-51"/>
			<point x="395" y="104" type="curve" smooth="yes"/>
			<point x="442" y="342" type="line"/>
			<point x="475" y="488" type="line"/>
			<point x="457" y="497" type="line"/>
			<point x="389" y="441" type="line"/>
			<point x="316" y="72" type="line" smooth="yes"/>
			<point x="293" y="-49"/>
			<point x="272" y="-103"/>
			<point x="241" y="-141" type="curve" smooth="yes"/>
			<point x="205" y="-186"/>
			<point x="151" y="-206"/>
			<point x="104" y="-206" type="curve" smooth="yes"/>
			<point x="77" y="-206"/>
			<point x="44" y="-204"/>
			<point x="12" y="-190" type="curve"/>
			<point x="60" y="-224" type="line"/>
			<point x="54" y="-152" type="line" smooth="yes"/>
			<point x="50" y="-105"/>
			<point x="38" y="-83"/>
			<point x="6" y="-83" type="curve" smooth="yes"/>
			<point x="-13" y="-83"/>
			<point x="-28" y="-92"/>
			<point x="-42" y="-113" type="curve"/>
			<point x="-42" y="-209"/>
			<point x="11" y="-250"/>
		</contour>
		<contour>
			<point x="140" y="-13" type="curve" smooth="yes"/>
			<point x="211" y="-13"/>
			<point x="300" y="67"/>
			<point x="370" y="170" type="curve"/>
			<point x="361" y="192" type="line"/>
			<point x="274" y="89"/>
			<point x="224" y="56"/>
			<point x="183" y="56" type="curve" smooth="yes"/>
			<point x="147" y="56"/>
			<point x="123" y="85"/>
			<point x="123" y="146" type="curve" smooth="yes"/>
			<point x="123" y="235"/>
			<point x="161" y="313"/>
			<point x="209" y="363" type="curve" smooth="yes"/>
			<point x="245" y="400"/>
			<point x="287" y="421"/>
			<point x="319" y="421" type="curve" smooth="yes"/>
			<point x="353" y="421"/>
			<point x="387" y="400"/>
			<point x="412" y="379" type="curve"/>
			<point x="449" y="405" type="line"/>
			<point x="423" y="451"/>
			<point x="397" y="487"/>
			<point x="354" y="487" type="curve" smooth="yes"/>
			<point x="225" y="487"/>
			<point x="45" y="279"/>
			<point x="45" y="105" type="curve" smooth="yes"/>
			<point x="45" y="22"/>
			<point x="92" y="-13"/>
		</contour>
	</outline>
	<anchor name="aboveLC" x="357" y="506"/>
	<anchor name="belowLC" x="98" y="-254"/>
</glyph>
<glyph name="h.sups" format="2">
	<unicode hex="02B0"/>
	<advance width="387"/>
	<outline>
		<contour>
			<point x="131" y="420" type="line"/>
			<point x="185" y="425" type="line"/>
			<point x="193" y="472"/>
			<point x="201" y="514"/>
			<point x="211" y="565" type="curve" smooth="yes"/>
			<point x="231" y="658" type="line"/>
			<point x="232" y="669" type="line"/>
			<point x="280" y="900" type="line"/>
			<point x="273" y="907" type="line"/>
			<point x="149" y="870" type="line"/>
			<point x="146" y="848" type="line"/>
			<point x="228" y="841" type="line"/>
			<point x="210" y="862" type="line"/>
			<point x="204" y="816"/>
			<point x="195" y="770"/>
			<point x="185" y="723" type="curve" smooth="yes"/>
			<point x="124" y="426" type="line"/>
		</contour>
		<contour>
			<point x="347" y="416" type="curve" smooth="yes"/>
			<point x="396" y="416"/>
			<point x="441" y="458"/>
			<point x="468" y="500" type="curve"/>
			<point x="450" y="513" type="line"/>
			<point x="426" y="484"/>
			<point x="402" y="468"/>
			<point x="386" y="468" type="curve" smooth="yes"/>
			<point x="371" y="468"/>
			<point x="370" y="477"/>
			<point x="380" y="516" type="curve" smooth="yes"/>
			<point x="411" y="639" type="line" smooth="yes"/>
			<point x="416" y="660"/>
			<point x="421" y="681"/>
			<point x="421" y="699" type="curve" smooth="yes"/>
			<point x="421" y="734"/>
			<point x="405" y="750"/>
			<point x="375" y="750" type="curve" smooth="yes"/>
			<point x="330" y="750"/>
			<point x="269" y="714"/>
			<point x="222" y="665" type="curve"/>
			<point x="219" y="638" type="line"/>
			<point x="269" y="676"/>
			<point x="309" y="695"/>
			<point x="334" y="695" type="curve" smooth="yes"/>
			<point x="348" y="695"/>
			<point x="357" y="688"/>
			<point x="357" y="668" type="curve" smooth="yes"/>
			<point x="357" y="656"/>
			<point x="353" y="637"/>
			<point x="348" y="616" type="curve" smooth="yes"/>
			<point x="321" y="507" type="line" smooth="yes"/>
			<point x="315" y="483"/>
			<point x="310" y="467"/>
			<point x="310" y="450" type="curve" smooth="yes"/>
			<point x="310" y="429"/>
			<point x="323" y="416"/>
		</contour>
	</outline>
</glyph>
<glyph name="j.sups" format="2">
	<unicode hex="02B2"/>
	<advance width="190"/>
	<outline>
		<contour>
			<point x="229" y="827" type="curve" smooth="yes"/>
			<point x="251" y="827"/>
			<point x="273" y="849"/>
			<point x="273" y="875" type="curve" smooth="yes"/>
			<point x="273" y="900"/>
			<point x="257" y="917"/>
			<point x="233" y="917" type="curve" smooth="yes"/>
			<point x="211" y="917"/>
			<point x="190" y="896"/>
			<point x="190" y="869" type="curve" smooth="yes"/>
			<point x="190" y="843"/>
			<point x="206" y="827"/>
		</contour>
		<contour>
			<point x="22" y="265" type="line"/>
			<point x="51" y="270"/>
			<point x="78" y="284"/>
			<point x="106" y="309" type="curve" smooth="yes"/>
			<point x="141" y="341"/>
			<point x="166" y="387"/>
			<point x="179" y="452" type="curve" smooth="yes"/>
			<point x="235" y="743" type="line"/>
			<point x="226" y="751" type="line"/>
			<point x="105" y="713" type="line"/>
			<point x="103" y="691" type="line"/>
			<point x="186" y="684" type="line"/>
			<point x="169" y="699" type="line"/>
			<point x="122" y="458" type="line" smooth="yes"/>
			<point x="107" y="382"/>
			<point x="93" y="346"/>
			<point x="71" y="321" type="curve" smooth="yes"/>
			<point x="56" y="304"/>
			<point x="40" y="294"/>
			<point x="16" y="285" type="curve"/>
		</contour>
	</outline>
</glyph>
<glyph name="r.sups" format="2">
	<unicode hex="02B3"/>
	<advance width="286"/>
	<outline>
		<contour>
			<point x="220" y="583" type="line"/>
			<point x="248" y="636"/>
			<point x="279" y="680"/>
			<point x="323" y="714" type="curve"/>
			<point x="289" y="716" type="line"/>
			<point x="313" y="689"/>
			<point x="332" y="678"/>
			<point x="348" y="678" type="curve" smooth="yes"/>
			<point x="372" y="678"/>
			<point x="385" y="698"/>
			<point x="386" y="723" type="curve"/>
			<point x="377" y="742"/>
			<point x="360" y="750"/>
			<point x="340" y="750" type="curve" smooth="yes"/>
			<point x="295" y="750"/>
			<point x="250" y="686"/>
			<point x="219" y="616" type="curve"/>
		</contour>
		<contour>
			<point x="129" y="426" type="line"/>
			<point x="137" y="420" type="line"/>
			<point x="190" y="425" type="line"/>
			<point x="199" y="472"/>
			<point x="207" y="518"/>
			<point x="217" y="565" type="curve" smooth="yes"/>
			<point x="231" y="627" type="line"/>
			<point x="232" y="635" type="line"/>
			<point x="250" y="742" type="line"/>
			<point x="240" y="751" type="line"/>
			<point x="123" y="713" type="line"/>
			<point x="120" y="691" type="line"/>
			<point x="204" y="684" type="line"/>
			<point x="187" y="699" type="line"/>
		</contour>
	</outline>
</glyph>
<glyph name="w.sups" format="2">
	<unicode hex="02B7"/>
	<advance width="514"/>
	<outline>
		<contour>
			<point x="201" y="424" type="curve"/>
			<point x="233" y="423" type="line"/>
			<point x="283" y="482"/>
			<point x="328" y="547"/>
			<point x="366" y="619" type="curve"/>
			<point x="370" y="563"/>
			<point x="379" y="440"/>
			<point x="381" y="424" type="curve"/>
			<point x="413" y="423" type="line"/>
			<point x="481" y="493"/>
			<point x="538" y="568"/>
			<point x="570" y="627" type="curve" smooth="yes"/>
			<point x="599" y="677"/>
			<point x="603" y="696"/>
			<point x="603" y="712" type="curve" smooth="yes"/>
			<point x="604" y="727"/>
			<point x="602" y="735"/>
			<point x="599" y="742" type="curve"/>
			<point x="595" y="747"/>
			<point x="587" y="751"/>
			<point x="575" y="751" type="curve" smooth="yes"/>
			<point x="552" y="751"/>
			<point x="531" y="736"/>
			<point x="531" y="700" type="curve" smooth="yes"/>
			<point x="531" y="691"/>
			<point x="531" y="679"/>
			<point x="547" y="612" type="curve"/>
			<point x="555" y="667" type="line"/>
			<point x="551" y="659"/>
			<point x="546" y="652"/>
			<point x="542" y="645" type="curve" smooth="yes"/>
			<point x="503" y="577"/>
			<point x="473" y="536"/>
			<point x="435" y="489" type="curve"/>
			<point x="432" y="542"/>
			<point x="421" y="729"/>
			<point x="418" y="739" type="curve"/>
			<point x="385" y="739" type="line"/>
			<point x="347" y="653"/>
			<point x="302" y="573"/>
			<point x="252" y="498" type="curve"/>
			<point x="249" y="558"/>
			<point x="244" y="662"/>
			<point x="236" y="697" type="curve" smooth="yes"/>
			<point x="229" y="733"/>
			<point x="219" y="750"/>
			<point x="189" y="750" type="curve" smooth="yes"/>
			<point x="157" y="750"/>
			<point x="128" y="724"/>
			<point x="102" y="673" type="curve"/>
			<point x="118" y="660" type="line"/>
			<point x="137" y="683"/>
			<point x="148" y="693"/>
			<point x="160" y="693" type="curve" smooth="yes"/>
			<point x="170" y="693"/>
			<point x="175" y="690"/>
			<point x="180" y="667" type="curve" smooth="yes"/>
			<point x="190" y="623"/>
			<point x="195" y="495"/>
		</contour>
	</outline>
</glyph>
<glyph name="ringhalfleftmod" format="2">
	<unicode hex="02BF"/>
	<advance width="201"/>
	<outline>
		<contour>
			<point x="239" y="530" type="curve"/>
			<point x="245" y="571" type="line"/>
			<point x="202" y="574"/>
			<point x="181" y="604"/>
			<point x="181" y="635" type="curve" smooth="yes"/>
			<point x="181" y="677"/>
			<point x="208" y="708"/>
			<point x="271" y="710" type="curve"/>
			<point x="277" y="750" type="line"/>
			<point x="173" y="750"/>
			<point x="130" y="702"/>
			<point x="130" y="629" type="curve" smooth="yes"/>
			<point x="130" y="573"/>
			<point x="172" y="530"/>
		</contour>
	</outline>
</glyph>
<glyph name="verticallinemod" format="2">
	<unicode hex="02C8"/>
	<advance width="145"/>
	<outline>
		<contour>
			<point x="98" y="552" type="line"/>
			<point x="157" y="552" type="line"/>
			<point x="203" y="749" type="line"/>
			<point x="132" y="749" type="line"/>
		</contour>
	</outline>
</glyph>
<glyph name="l.sups" format="2">
	<unicode hex="02E1"/>
	<advance width="204"/>
	<outline>
		<contour>
			<point x="175" y="416" type="curve" smooth="yes"/>
			<point x="225" y="416"/>
			<point x="261" y="458"/>
			<point x="290" y="500" type="curve"/>
			<point x="273" y="513" type="line"/>
			<point x="247" y="484"/>
			<point x="225" y="468"/>
			<point x="212" y="468" type="curve" smooth="yes"/>
			<point x="197" y="468"/>
			<point x="191" y="474"/>
			<point x="199" y="511" type="curve" smooth="yes"/>
			<point x="279" y="900" type="line"/>
			<point x="271" y="907" type="line"/>
			<point x="147" y="870" type="line"/>
			<point x="144" y="848" type="line"/>
			<point x="226" y="841" type="line"/>
			<point x="208" y="862" type="line"/>
			<point x="202" y="816"/>
			<point x="193" y="769"/>
			<point x="183" y="723" type="curve" smooth="yes"/>
			<point x="143" y="517" type="line" smooth="yes"/>
			<point x="137" y="487"/>
			<point x="134" y="470"/>
			<point x="134" y="457" type="curve" smooth="yes"/>
			<point x="134" y="430"/>
			<point x="151" y="416"/>
		</contour>
	</outline>
</glyph>
